font.ufo
<glyph name="exclam" format="1">
  <advance width="255"/>
  <unicode hex="0021"/>
  <outline>
    <contour>
      <point x="170" y="229" type="line"/>
      <point x="179" y="722" type="line"/>
      <point x="78" y="722" type="line"/>
      <point x="86" y="229" type="line"/>
    </contour>
    <contour>
      <point x="179" y="39" type="curve"/>
      <point x="179" y="70"/>
      <point x="157" y="86"/>
      <point x="128" y="86" type="curve"/>
      <point x="97" y="86"/>
      <point x="78" y="69"/>
      <point x="78" y="39" type="curve"/>
      <point x="176" y="39"/>
      <point x="81" y="39"/>
      <point x="179" y="39" type="curve"/>
      <point x="179" y="7"/>
      <point x="158" y="-7"/>
      <point x="128" y="-7" type="curve"/>
      <point x="97" y="-7"/>
      <point x="78" y="8"/>
      <point x="78" y="39" type="curve"/>
      <point x="176" y="39"/>
      <point x="81" y="39"/>
    </contour>
  </outline>
</glyph>
<glyph name="quotedbl" format="1">
  <advance width="419"/>
  <unicode hex="0022"/>
  <outline>
    <contour>
      <point x="160" y="597" type="line"/>
      <point x="167" y="803" type="line"/>
      <point x="71" y="803" type="line"/>
      <point x="78" y="597" type="line"/>
    </contour>
    <contour>
      <point x="341" y="597" type="line"/>
      <point x="348" y="803" type="line"/>
      <point x="252" y="803" type="line"/>
      <point x="259" y="597" type="line"/>
    </contour>
  </outline>
</glyph>
<glyph name="numbersign" format="1">
  <advance width="631"/>
  <unicode hex="0023"/>
  <outline>
    <contour>
      <point x="45" y="231" type="line"/>
      <point x="503" y="231" type="line"/>
      <point x="524" y="301" type="line"/>
      <point x="66" y="301" type="line"/>
    </contour>
    <contour>
      <point x="106" y="458" type="line"/>
      <point x="566" y="458" type="line"/>
      <point x="586" y="528" type="line"/>
      <point x="125" y="528" type="line"/>
    </contour>
    <contour>
      <point x="387" y="39" type="line"/>
      <point x="579" y="722" type="line"/>
      <point x="489" y="722" type="line"/>
      <point x="297" y="39" type="line"/>
    </contour>
    <contour>
      <point x="148" y="46" type="line"/>
      <point x="337" y="722" type="line"/>
      <point x="248" y="722" type="line"/>
      <point x="62" y="46" type="line"/>
    </contour>
  </outline>
</glyph>
<glyph name="percent" format="1">
  <advance width="1002"/>
  <unicode hex="0025"/>
  <outline>
    <contour>
      <point x="361" y="-62" type="line"/>
      <point x="738" y="730" type="line"/>
      <point x="654" y="730" type="line"/>
      <point x="277" y="-62" type="line"/>
    </contour>
    <contour>
      <point x="118" y="521" type="curve"/>
      <point x="118" y="605"/>
      <point x="143" y="669"/>
      <point x="220" y="669" type="curve"/>
      <point x="297" y="670"/>
      <point x="323" y="605"/>
      <point x="323" y="520" type="curve"/>
      <point x="323" y="436"/>
      <point x="300" y="369"/>
      <point x="225" y="369" type="curve"/>
      <point x="145" y="369"/>
      <point x="118" y="434"/>
      <point x="118" y="521" type="curve"/>
      <point x="88" y="521"/>
      <point x="69" y="521"/>
      <point x="39" y="521" type="curve"/>
      <point x="39" y="393"/>
      <point x="99" y="304"/>
      <point x="221" y="304" type="curve"/>
      <point x="344" y="304"/>
      <point x="406" y="393"/>
      <point x="406" y="523" type="curve"/>
      <point x="406" y="649"/>
      <point x="344" y="735"/>
      <point x="224" y="734" type="curve"/>
      <point x="102" y="734"/>
      <point x="39" y="647"/>
      <point x="39" y="521" type="curve"/>
      <point x="69" y="521"/>
      <point x="88" y="521"/>
    </contour>
    <contour>
      <point x="674" y="151" type="curve"/>
      <point x="674" y="235"/>
      <point x="701" y="299"/>
      <point x="777" y="299" type="curve"/>
      <point x="854" y="300"/>
      <point x="880" y="235"/>
      <point x="880" y="150" type="curve"/>
      <point x="880" y="66"/>
      <point x="857" y="0"/>
      <point x="782" y="0" type="curve"/>
      <point x="703" y="0"/>
      <point x="674" y="64"/>
      <point x="674" y="151" type="curve"/>
      <point x="645" y="151"/>
      <point x="625" y="151"/>
      <point x="596" y="151" type="curve"/>
      <point x="596" y="23"/>
      <point x="657" y="-65"/>
      <point x="778" y="-65" type="curve"/>
      <point x="901" y="-65"/>
      <point x="963" y="24"/>
      <point x="963" y="154" type="curve"/>
      <point x="963" y="280"/>
      <point x="901" y="365"/>
      <point x="781" y="365" type="curve"/>
      <point x="659" y="365"/>
      <point x="596" y="278"/>
      <point x="596" y="151" type="curve"/>
      <point x="625" y="151"/>
      <point x="645" y="151"/>
    </contour>
  </outline>
</glyph>
<glyph name="ampersand" format="1">
  <advance width="640"/>
  <unicode hex="0026"/>
  <outline>
    <contour>
      <point x="617" y="33" type="line"/>
      <point x="523" y="137"/>
      <point x="422" y="258"/>
      <point x="325" y="365" type="curve"/>
      <point x="272" y="427"/>
      <point x="203" y="477"/>
      <point x="203" y="562" type="curve"/>
      <point x="203" y="614"/>
      <point x="228" y="657"/>
      <point x="276" y="657" type="curve"/>
      <point x="328" y="657"/>
      <point x="357" y="619"/>
      <point x="357" y="564" type="curve"/>
      <point x="356" y="486"/>
      <point x="302" y="446"/>
      <point x="235" y="406" type="curve"/>
      <point x="141" y="347"/>
      <point x="58" y="298"/>
      <point x="58" y="190" type="curve"/>
      <point x="58" y="69"/>
      <point x="145" y="-5"/>
      <point x="270" y="-5" type="curve"/>
      <point x="451" y="-5"/>
      <point x="539" y="134"/>
      <point x="594" y="315" type="curve"/>
      <point x="516" y="332"/>
      <point x="594" y="315"/>
      <point x="516" y="332" type="curve"/>
      <point x="472" y="187"/>
      <point x="414" y="65"/>
      <point x="274" y="65" type="curve"/>
      <point x="197" y="65"/>
      <point x="148" y="112"/>
      <point x="148" y="190" type="curve"/>
      <point x="148" y="269"/>
      <point x="206" y="306"/>
      <point x="274" y="349" type="curve"/>
      <point x="365" y="407"/>
      <point x="446" y="458"/>
      <point x="446" y="564" type="curve"/>
      <point x="446" y="664"/>
      <point x="379" y="727"/>
      <point x="279" y="727" type="curve"/>
      <point x="181" y="727"/>
      <point x="118" y="661"/>
      <point x="118" y="562" type="curve"/>
      <point x="118" y="459"/>
      <point x="194" y="398"/>
      <point x="262" y="323" type="curve"/>
      <point x="355" y="217"/>
      <point x="466" y="88"/>
      <point x="557" y="-13" type="curve"/>
    </contour>
  </outline>
</glyph>
<glyph name="quotesingle" format="1">
  <advance width="238"/>
  <unicode hex="0027"/>
  <outline>
    <contour>
      <point x="160" y="597" type="line"/>
      <point x="167" y="803" type="line"/>
      <point x="71" y="803" type="line"/>
      <point x="78" y="597" type="line"/>
    </contour>
  </outline>
</glyph>
<glyph name="parenright" format="1">
  <advance width="350"/>
  <unicode hex="0029"/>
  <outline>
    <contour>
      <point x="58" y="-282" type="curve"/>
      <point x="221" y="-91"/>
      <point x="303" y="74"/>
      <point x="303" y="328" type="curve"/>
      <point x="303" y="576"/>
      <point x="228" y="739"/>
      <point x="61" y="920" type="curve"/>
      <point x="7" y="871"/>
      <point x="61" y="920"/>
      <point x="7" y="871" type="curve"/>
      <point x="156" y="703"/>
      <point x="214" y="549"/>
      <point x="214" y="325" type="curve"/>
      <point x="214" y="95"/>
      <point x="148" y="-59"/>
      <point x="3" y="-237" type="curve"/>
      <point x="58" y="-282"/>
      <point x="3" y="-237"/>
    </contour>
  </outline>
</glyph>
<glyph name="asterisk" format="1">
  <advance width="572"/>
  <unicode hex="002A"/>
  <outline>
    <contour>
      <point x="316" y="560" type="line"/>
      <point x="321" y="767" type="line"/>
      <point x="250" y="767" type="line"/>
      <point x="255" y="560" type="line"/>
    </contour>
    <contour>
      <point x="311" y="522" type="line"/>
      <point x="508" y="585" type="line"/>
      <point x="484" y="651" type="line"/>
      <point x="290" y="579" type="line"/>
    </contour>
    <contour>
      <point x="273" y="514" type="line"/>
      <point x="397" y="348" type="line"/>
      <point x="452" y="394" type="line"/>
      <point x="320" y="552" type="line"/>
    </contour>
    <contour>
      <point x="255" y="551" type="line"/>
      <point x="123" y="392" type="line"/>
      <point x="177" y="347" type="line"/>
      <point x="301" y="513" type="line"/>
    </contour>
    <contour>
      <point x="281" y="577" type="line"/>
      <point x="88" y="649" type="line"/>
      <point x="64" y="583" type="line"/>
      <point x="261" y="520" type="line"/>
    </contour>
  </outline>
</glyph>
<glyph name="plus" format="1">
  <advance width="633"/>
  <unicode hex="002B"/>
  <outline>
    <contour>
      <point x="47" y="274" type="curve"/>
      <point x="586" y="274" type="line"/>
      <point x="586" y="350"/>
      <point x="586" y="274"/>
      <point x="586" y="350" type="curve"/>
      <point x="47" y="350" type="line"/>
      <point x="47" y="274"/>
      <point x="47" y="350"/>
    </contour>
    <contour>
      <point x="359" y="33" type="curve"/>
      <point x="359" y="584" type="line"/>
      <point x="269" y="584"/>
      <point x="364" y="584"/>
      <point x="274" y="584" type="curve"/>
      <point x="274" y="33" type="line"/>
      <point x="364" y="33"/>
      <point x="269" y="33"/>
    </contour>
  </outline>
</glyph>
<glyph name="hyphen" format="1">
  <advance width="410"/>
  <unicode hex="002D"/>
  <outline>
    <contour>
      <point x="76" y="240" type="curve"/>
      <point x="162" y="240"/>
      <point x="248" y="240"/>
      <point x="334" y="240" type="curve"/>
      <point x="334" y="316"/>
      <point x="334" y="240"/>
      <point x="334" y="316" type="curve"/>
      <point x="248" y="316"/>
      <point x="162" y="316"/>
      <point x="76" y="316" type="curve"/>
      <point x="76" y="240"/>
      <point x="76" y="316"/>
    </contour>
  </outline>
</glyph>
<glyph name="period" format="1">
  <advance width="244"/>
  <unicode hex="002E"/>
  <outline>
    <contour>
      <point x="173" y="39" type="curve"/>
      <point x="173" y="70"/>
      <point x="151" y="86"/>
      <point x="121" y="86" type="curve"/>
      <point x="91" y="86"/>
      <point x="72" y="69"/>
      <point x="72" y="39" type="curve"/>
      <point x="170" y="39"/>
      <point x="75" y="39"/>
      <point x="173" y="39" type="curve"/>
      <point x="173" y="7"/>
      <point x="152" y="-7"/>
      <point x="121" y="-7" type="curve"/>
      <point x="90" y="-7"/>
      <point x="72" y="8"/>
      <point x="72" y="39" type="curve"/>
      <point x="170" y="39"/>
      <point x="75" y="39"/>
    </contour>
  </outline>
</glyph>
<glyph name="slash" format="1">
  <advance width="529"/>
  <unicode hex="002F"/>
  <outline>
    <contour>
      <point x="121" y="-38" type="curve"/>
      <point x="247" y="245"/>
      <point x="373" y="527"/>
      <point x="498" y="810" type="curve"/>
      <point x="408" y="810"/>
      <point x="498" y="810"/>
      <point x="408" y="810" type="curve"/>
      <point x="283" y="527"/>
      <point x="157" y="245"/>
      <point x="32" y="-38" type="curve"/>
      <point x="121" y="-38"/>
      <point x="32" y="-38"/>
    </contour>
  </outline>
</glyph>
<glyph name="zero" format="1">
  <advance width="682"/>
  <unicode hex="0030"/>
  <outline>
    <contour>
      <point x="149" y="360" type="curve"/>
      <point x="149" y="526"/>
      <point x="190" y="654"/>
      <point x="339" y="654" type="curve"/>
      <point x="488" y="654"/>
      <point x="533" y="528"/>
      <point x="533" y="363" type="curve"/>
      <point x="533" y="197"/>
      <point x="491" y="69"/>
      <point x="346" y="69" type="curve"/>
      <point x="199" y="69"/>
      <point x="149" y="194"/>
      <point x="149" y="360" type="curve"/>
      <point x="61" y="360"/>
      <point x="148" y="360"/>
      <point x="60" y="360" type="curve"/>
      <point x="60" y="147"/>
      <point x="143" y="-5"/>
      <point x="342" y="-5" type="curve"/>
      <point x="541" y="-5"/>
      <point x="621" y="148"/>
      <point x="621" y="363" type="curve"/>
      <point x="621" y="575"/>
      <point x="543" y="727"/>
      <point x="347" y="727" type="curve"/>
      <point x="146" y="727"/>
      <point x="60" y="575"/>
      <point x="60" y="360" type="curve"/>
      <point x="148" y="360"/>
      <point x="61" y="360"/>
    </contour>
  </outline>
</glyph>
<glyph name="four" format="1">
  <advance width="571"/>
  <unicode hex="0034"/>
  <outline>
    <contour>
      <point x="353" y="70" type="line"/>
      <point x="223" y="70" type="line"/>
      <point x="223" y="0" type="line"/>
      <point x="353" y="0" type="line"/>
    </contour>
    <contour>
      <point x="353" y="0" type="line"/>
      <point x="482" y="0" type="line"/>
      <point x="482" y="70" type="line"/>
      <point x="353" y="70" type="line"/>
    </contour>
    <contour>
      <point x="71" y="258" type="line"/>
      <point x="383" y="697" type="line"/>
      <point x="310" y="708" type="line"/>
      <point x="32" y="320" type="line"/>
    </contour>
    <contour>
      <point x="528" y="320" type="line"/>
      <point x="32" y="320" type="line"/>
      <point x="33" y="244" type="line"/>
      <point x="528" y="244" type="line"/>
    </contour>
    <contour>
      <point x="399" y="26" type="line"/>
      <point x="399" y="708" type="line"/>
      <point x="311" y="708" type="line"/>
      <point x="311" y="26" type="line"/>
    </contour>
  </outline>
</glyph>
<glyph name="five" format="1">
  <advance width="507"/>
  <unicode hex="0035"/>
  <outline>
    <contour>
      <point x="80" y="722" type="curve"/>
      <point x="80" y="623"/>
      <point x="80" y="515"/>
      <point x="80" y="389" type="curve"/>
      <point x="166" y="364"/>
      <point x="80" y="389"/>
      <point x="166" y="364" type="curve"/>
      <point x="166" y="458"/>
      <point x="166" y="559"/>
      <point x="166" y="652" type="curve"/>
      <point x="80" y="722"/>
      <point x="166" y="652"/>
    </contour>
    <contour>
      <point x="166" y="364" type="curve"/>
      <point x="182" y="379"/>
      <point x="215" y="392"/>
      <point x="242" y="392" type="curve"/>
      <point x="326" y="392"/>
      <point x="364" y="325"/>
      <point x="364" y="235" type="curve"/>
      <point x="364" y="142"/>
      <point x="312" y="68"/>
      <point x="224" y="68" type="curve"/>
      <point x="175" y="68"/>
      <point x="140" y="81"/>
      <point x="94" y="107" type="curve"/>
      <point x="51" y="43"/>
      <point x="94" y="107"/>
      <point x="51" y="43" type="curve"/>
      <point x="105" y="11"/>
      <point x="155" y="-5"/>
      <point x="220" y="-5" type="curve"/>
      <point x="359" y="-5"/>
      <point x="454" y="93"/>
      <point x="454" y="234" type="curve"/>
      <point x="454" y="369"/>
      <point x="381" y="466"/>
      <point x="252" y="466" type="curve"/>
      <point x="193" y="466"/>
      <point x="129" y="447"/>
      <point x="80" y="391" type="curve"/>
      <point x="166" y="364"/>
      <point x="80" y="391"/>
    </contour>
    <contour>
      <point x="428" y="722" type="curve"/>
      <point x="314" y="722"/>
      <point x="192" y="722"/>
      <point x="80" y="722" type="curve"/>
      <point x="166" y="652"/>
      <point x="80" y="722"/>
      <point x="166" y="652" type="curve"/>
      <point x="249" y="652"/>
      <point x="342" y="652"/>
      <point x="428" y="652" type="curve"/>
      <point x="428" y="722"/>
      <point x="428" y="652"/>
    </contour>
  </outline>
</glyph>
<glyph name="colon" format="1">
  <advance width="255"/>
  <unicode hex="003A"/>
  <outline>
    <contour>
      <point x="178" y="388" type="curve"/>
      <point x="178" y="419"/>
      <point x="157" y="435"/>
      <point x="126" y="435" type="curve"/>
      <point x="96" y="435"/>
      <point x="77" y="418"/>
      <point x="77" y="388" type="curve"/>
      <point x="174" y="388"/>
      <point x="80" y="388"/>
      <point x="178" y="388" type="curve"/>
      <point x="178" y="356"/>
      <point x="157" y="342"/>
      <point x="126" y="342" type="curve"/>
      <point x="96" y="342"/>
      <point x="77" y="357"/>
      <point x="77" y="388" type="curve"/>
      <point x="174" y="388"/>
      <point x="80" y="388"/>
    </contour>
    <contour>
      <point x="178" y="41" type="curve"/>
      <point x="178" y="72"/>
      <point x="156" y="88"/>
      <point x="126" y="88" type="curve"/>
      <point x="96" y="88"/>
      <point x="76" y="71"/>
      <point x="76" y="41" type="curve"/>
      <point x="174" y="41"/>
      <point x="79" y="41"/>
      <point x="178" y="41" type="curve"/>
      <point x="178" y="9"/>
      <point x="157" y="-6"/>
      <point x="126" y="-6" type="curve"/>
      <point x="96" y="-6"/>
      <point x="76" y="11"/>
      <point x="76" y="41" type="curve"/>
      <point x="174" y="41"/>
      <point x="79" y="41"/>
    </contour>
  </outline>
</glyph>
<glyph name="semicolon" format="1">
  <advance width="283"/>
  <unicode hex="003B"/>
  <outline>
    <contour>
      <point x="80" y="-153" type="line"/>
      <point x="150" y="-141"/>
      <point x="200" y="-89"/>
      <point x="200" y="-9" type="curve"/>
      <point x="200" y="47"/>
      <point x="177" y="82"/>
      <point x="139" y="82" type="curve"/>
      <point x="107" y="82"/>
      <point x="86" y="65"/>
      <point x="86" y="35" type="curve"/>
      <point x="86" y="8"/>
      <point x="102" y="-10"/>
      <point x="132" y="-13" type="curve"/>
      <point x="132" y="-41"/>
      <point x="124" y="-85"/>
      <point x="72" y="-102" type="curve"/>
    </contour>
    <contour>
      <point x="191" y="400" type="curve"/>
      <point x="191" y="432"/>
      <point x="169" y="447"/>
      <point x="139" y="447" type="curve"/>
      <point x="109" y="447"/>
      <point x="90" y="430"/>
      <point x="90" y="400" type="curve"/>
      <point x="188" y="400"/>
      <point x="93" y="400"/>
      <point x="191" y="400" type="curve"/>
      <point x="191" y="369"/>
      <point x="170" y="354"/>
      <point x="139" y="354" type="curve"/>
      <point x="109" y="354"/>
      <point x="90" y="370"/>
      <point x="90" y="400" type="curve"/>
      <point x="188" y="400"/>
      <point x="93" y="400"/>
    </contour>
  </outline>
</glyph>
<glyph name="less" format="1">
  <advance width="646"/>
  <unicode hex="003C"/>
  <outline>
    <contour>
      <point x="577" y="609" type="curve"/>
      <point x="398" y="519"/>
      <point x="218" y="429"/>
      <point x="39" y="339" type="curve"/>
      <point x="39" y="261"/>
      <point x="39" y="339"/>
      <point x="39" y="261" type="curve"/>
      <point x="218" y="351"/>
      <point x="398" y="441"/>
      <point x="577" y="531" type="curve"/>
      <point x="577" y="609"/>
      <point x="577" y="531"/>
    </contour>
    <contour>
      <point x="586" y="75" type="curve"/>
      <point x="404" y="163"/>
      <point x="221" y="251"/>
      <point x="39" y="339" type="curve"/>
      <point x="39" y="261"/>
      <point x="39" y="339"/>
      <point x="39" y="261" type="curve"/>
      <point x="221" y="173"/>
      <point x="404" y="85"/>
      <point x="586" y="-3" type="curve"/>
      <point x="586" y="75"/>
      <point x="586" y="-3"/>
    </contour>
  </outline>
</glyph>
<glyph name="equal" format="1">
  <advance width="716"/>
  <unicode hex="003D"/>
  <outline>
    <contour>
      <point x="80" y="180" type="curve"/>
      <point x="265" y="180"/>
      <point x="450" y="180"/>
      <point x="635" y="180" type="curve"/>
      <point x="635" y="255"/>
      <point x="635" y="180"/>
      <point x="635" y="255" type="curve"/>
      <point x="450" y="255"/>
      <point x="265" y="255"/>
      <point x="80" y="255" type="curve"/>
      <point x="80" y="180"/>
      <point x="80" y="255"/>
    </contour>
    <contour>
      <point x="80" y="402" type="curve"/>
      <point x="265" y="402"/>
      <point x="450" y="402"/>
      <point x="635" y="402" type="curve"/>
      <point x="635" y="477"/>
      <point x="635" y="402"/>
      <point x="635" y="477" type="curve"/>
      <point x="450" y="477"/>
      <point x="265" y="477"/>
      <point x="80" y="477" type="curve"/>
      <point x="80" y="402"/>
      <point x="80" y="477"/>
    </contour>
  </outline>
</glyph>
<glyph name="greater" format="1">
  <advance width="647"/>
  <unicode hex="003E"/>
  <outline>
    <contour>
      <point x="69" y="-3" type="curve"/>
      <point x="248" y="87"/>
      <point x="429" y="177"/>
      <point x="608" y="267" type="curve"/>
      <point x="608" y="345"/>
      <point x="608" y="267"/>
      <point x="608" y="345" type="curve"/>
      <point x="429" y="255"/>
      <point x="248" y="165"/>
      <point x="69" y="75" type="curve"/>
      <point x="69" y="-3"/>
      <point x="69" y="75"/>
    </contour>
    <contour>
      <point x="61" y="531" type="curve"/>
      <point x="242" y="443"/>
      <point x="425" y="355"/>
      <point x="608" y="267" type="curve"/>
      <point x="608" y="345"/>
      <point x="608" y="267"/>
      <point x="608" y="345" type="curve"/>
      <point x="425" y="433"/>
      <point x="242" y="521"/>
      <point x="61" y="609" type="curve"/>
      <point x="61" y="531"/>
      <point x="61" y="609"/>
    </contour>
  </outline>
</glyph>
<glyph name="at" format="1">
  <advance width="781"/>
  <unicode hex="0040"/>
  <outline>
    <contour>
      <point x="529" y="-45" type="curve"/>
      <point x="486" y="-70"/>
      <point x="454" y="-78"/>
      <point x="405" y="-78" type="curve"/>
      <point x="232" y="-78"/>
      <point x="136" y="31"/>
      <point x="136" y="206" type="curve"/>
      <point x="136" y="376"/>
      <point x="231" y="482"/>
      <point x="398" y="482" type="curve"/>
      <point x="555" y="482"/>
      <point x="644" y="376"/>
      <point x="644" y="213" type="curve"/>
      <point x="644" y="148"/>
      <point x="639" y="92"/>
      <point x="599" y="92" type="curve"/>
      <point x="557" y="92"/>
      <point x="550" y="146"/>
      <point x="550" y="211" type="curve"/>
      <point x="550" y="321"/>
      <point x="495" y="395"/>
      <point x="390" y="395" type="curve"/>
      <point x="275" y="395"/>
      <point x="220" y="324"/>
      <point x="220" y="209" type="curve"/>
      <point x="220" y="91"/>
      <point x="269" y="14"/>
      <point x="381" y="14" type="curve"/>
      <point x="482" y="14"/>
      <point x="523" y="89"/>
      <point x="537" y="195" type="curve"/>
      <point x="481" y="209"/>
      <point x="537" y="195"/>
      <point x="481" y="209" type="curve"/>
      <point x="466" y="142"/>
      <point x="453" y="84"/>
      <point x="392" y="84" type="curve"/>
      <point x="326" y="84"/>
      <point x="302" y="137"/>
      <point x="302" y="213" type="curve"/>
      <point x="302" y="279"/>
      <point x="324" y="325"/>
      <point x="384" y="325" type="curve"/>
      <point x="448" y="325"/>
      <point x="469" y="276"/>
      <point x="469" y="207" type="curve"/>
      <point x="469" y="104"/>
      <point x="498" y="26"/>
      <point x="592" y="26" type="curve"/>
      <point x="691" y="26"/>
      <point x="723" y="107"/>
      <point x="723" y="216" type="curve"/>
      <point x="723" y="426"/>
      <point x="608" y="555"/>
      <point x="401" y="555" type="curve"/>
      <point x="180" y="555"/>
      <point x="54" y="424"/>
      <point x="54" y="202" type="curve"/>
      <point x="54" y="-17"/>
      <point x="181" y="-148"/>
      <point x="400" y="-148" type="curve"/>
      <point x="466" y="-148"/>
      <point x="510" y="-137"/>
      <point x="563" y="-105" type="curve"/>
      <point x="529" y="-45"/>
      <point x="563" y="-105"/>
    </contour>
  </outline>
</glyph>
<glyph name="C" format="1">
  <advance width="655"/>
  <unicode hex="0043"/>
  <outline>
    <contour>
      <point x="369" y="801" type="move" name="top"/>
    </contour>
    <contour>
      <point x="379" y="2" type="move" name="bottom"/>
    </contour>
    <contour>
      <point x="524" y="654" type="curve"/>
      <point x="524" y="534"/>
      <point x="524" y="648"/>
      <point x="524" y="528" type="curve"/>
      <point x="596" y="528"/>
      <point x="524" y="528"/>
      <point x="596" y="528" type="curve"/>
      <point x="596" y="648"/>
      <point x="596" y="534"/>
      <point x="596" y="654" type="curve"/>
      <point x="524" y="654"/>
      <point x="596" y="654"/>
    </contour>
    <contour>
      <point x="596" y="654" type="curve"/>
      <point x="532" y="696"/>
      <point x="460" y="727"/>
      <point x="376" y="727" type="curve"/>
      <point x="162" y="727"/>
      <point x="58" y="575"/>
      <point x="58" y="345" type="curve"/>
      <point x="58" y="133"/>
      <point x="157" y="-5"/>
      <point x="358" y="-5" type="curve"/>
      <point x="466" y="-5"/>
      <point x="536" y="29"/>
      <point x="609" y="96" type="curve"/>
      <point x="560" y="150"/>
      <point x="608" y="96"/>
      <point x="560" y="150" type="curve"/>
      <point x="497" y="98"/>
      <point x="444" y="69"/>
      <point x="361" y="69" type="curve"/>
      <point x="210" y="69"/>
      <point x="148" y="184"/>
      <point x="148" y="348" type="curve"/>
      <point x="148" y="526"/>
      <point x="212" y="654"/>
      <point x="372" y="654" type="curve"/>
      <point x="439" y="654"/>
      <point x="497" y="632"/>
      <point x="547" y="599" type="curve"/>
      <point x="596" y="654"/>
      <point x="547" y="599"/>
    </contour>
  </outline>
</glyph>
<glyph name="E" format="1">
  <advance width="614"/>
  <unicode hex="0045"/>
  <outline>
    <contour>
      <point x="319" y="801" type="move" name="top"/>
    </contour>
    <contour>
      <point x="548" y="5" type="move" name="bottom"/>
    </contour>
    <contour>
      <point x="570" y="35" type="curve"/>
      <point x="570" y="155"/>
      <point x="570" y="32"/>
      <point x="570" y="152" type="curve"/>
      <point x="498" y="152"/>
      <point x="570" y="152"/>
      <point x="498" y="152" type="curve"/>
      <point x="498" y="32"/>
      <point x="498" y="155"/>
      <point x="498" y="35" type="curve"/>
      <point x="570" y="35"/>
      <point x="498" y="35"/>
    </contour>
    <contour>
      <point x="468" y="687" type="curve"/>
      <point x="468" y="567"/>
      <point x="468" y="690"/>
      <point x="468" y="570" type="curve"/>
      <point x="540" y="570"/>
      <point x="468" y="570"/>
      <point x="540" y="570" type="curve"/>
      <point x="540" y="690"/>
      <point x="540" y="567"/>
      <point x="540" y="687" type="curve"/>
      <point x="468" y="687"/>
      <point x="540" y="687"/>
    </contour>
    <contour>
      <point x="191" y="70" type="curve"/>
      <point x="48" y="70"/>
      <point x="197" y="70"/>
      <point x="55" y="70" type="curve"/>
      <point x="55" y="0"/>
      <point x="55" y="70"/>
      <point x="55" y="0" type="curve"/>
      <point x="102" y="0"/>
      <point x="143" y="0"/>
      <point x="191" y="0" type="curve"/>
      <point x="191" y="70"/>
      <point x="191" y="0"/>
    </contour>
    <contour>
      <point x="191" y="722" type="curve"/>
      <point x="143" y="722"/>
      <point x="102" y="722"/>
      <point x="55" y="722" type="curve"/>
      <point x="55" y="652"/>
      <point x="55" y="722"/>
      <point x="55" y="652" type="curve"/>
      <point x="197" y="652"/>
      <point x="48" y="652"/>
      <point x="191" y="652" type="curve"/>
      <point x="191" y="722"/>
      <point x="191" y="652"/>
    </contour>
    <contour>
      <point x="194" y="338" type="curve"/>
      <point x="290" y="338"/>
      <point x="387" y="338"/>
      <point x="484" y="338" type="curve"/>
      <point x="484" y="408"/>
      <point x="484" y="338"/>
      <point x="484" y="408" type="curve"/>
      <point x="387" y="408"/>
      <point x="290" y="408"/>
      <point x="194" y="408" type="curve"/>
      <point x="194" y="338"/>
      <point x="194" y="408"/>
    </contour>
    <contour>
      <point x="180" y="652" type="curve"/>
      <point x="300" y="652"/>
      <point x="420" y="652"/>
      <point x="540" y="652" type="curve"/>
      <point x="540" y="722"/>
      <point x="540" y="652"/>
      <point x="540" y="722" type="curve"/>
      <point x="420" y="722"/>
      <point x="300" y="722"/>
      <point x="180" y="722" type="curve"/>
      <point x="180" y="652"/>
      <point x="180" y="722"/>
    </contour>
    <contour>
      <point x="235" y="0" type="curve"/>
      <point x="235" y="722" type="line"/>
      <point x="145" y="722"/>
      <point x="235" y="722"/>
      <point x="145" y="722" type="curve"/>
      <point x="145" y="481"/>
      <point x="145" y="241"/>
      <point x="145" y="0" type="curve"/>
      <point x="235" y="0"/>
      <point x="145" y="0"/>
    </contour>
    <contour>
      <point x="180" y="0" type="curve"/>
      <point x="310" y="0"/>
      <point x="440" y="0"/>
      <point x="570" y="0" type="curve"/>
      <point x="570" y="70"/>
      <point x="570" y="0"/>
      <point x="570" y="70" type="curve"/>
      <point x="440" y="70"/>
      <point x="310" y="70"/>
      <point x="180" y="70" type="curve"/>
      <point x="180" y="0"/>
      <point x="180" y="70"/>
    </contour>
  </outline>
</glyph>
<glyph name="F" format="1">
  <advance width="581"/>
  <unicode hex="0046"/>
  <outline>
    <contour>
      <point x="190" y="0" type="curve"/>
      <point x="238" y="0"/>
      <point x="190" y="0"/>
      <point x="333" y="0" type="curve"/>
      <point x="333" y="70"/>
      <point x="333" y="0"/>
      <point x="333" y="70" type="curve"/>
      <point x="190" y="70"/>
      <point x="333" y="70"/>
      <point x="190" y="70" type="curve"/>
      <point x="190" y="0"/>
      <point x="190" y="70"/>
    </contour>
    <contour>
      <point x="190" y="722" type="curve"/>
      <point x="143" y="722"/>
      <point x="102" y="722"/>
      <point x="54" y="722" type="curve"/>
      <point x="54" y="652"/>
      <point x="54" y="722"/>
      <point x="54" y="652" type="curve"/>
      <point x="197" y="652"/>
      <point x="47" y="652"/>
      <point x="190" y="652" type="curve"/>
      <point x="190" y="722"/>
      <point x="190" y="652"/>
    </contour>
    <contour>
      <point x="190" y="70" type="curve"/>
      <point x="47" y="70"/>
      <point x="197" y="70"/>
      <point x="54" y="70" type="curve"/>
      <point x="54" y="0"/>
      <point x="54" y="70"/>
      <point x="54" y="0" type="curve"/>
      <point x="102" y="0"/>
      <point x="143" y="0"/>
      <point x="190" y="0" type="curve"/>
      <point x="190" y="70"/>
      <point x="190" y="0"/>
    </contour>
    <contour>
      <point x="472" y="687" type="curve"/>
      <point x="472" y="567"/>
      <point x="472" y="690"/>
      <point x="472" y="570" type="curve"/>
      <point x="544" y="570"/>
      <point x="472" y="570"/>
      <point x="544" y="570" type="curve"/>
      <point x="544" y="690"/>
      <point x="544" y="567"/>
      <point x="544" y="687" type="curve"/>
      <point x="472" y="687"/>
      <point x="544" y="687"/>
    </contour>
    <contour>
      <point x="194" y="338" type="curve"/>
      <point x="289" y="338"/>
      <point x="384" y="338"/>
      <point x="479" y="338" type="curve"/>
      <point x="479" y="408"/>
      <point x="479" y="338"/>
      <point x="479" y="408" type="curve"/>
      <point x="384" y="408"/>
      <point x="289" y="408"/>
      <point x="194" y="408" type="curve"/>
      <point x="194" y="338"/>
      <point x="194" y="408"/>
    </contour>
    <contour>
      <point x="236" y="0" type="curve"/>
      <point x="236" y="722" type="line"/>
      <point x="146" y="722"/>
      <point x="236" y="722"/>
      <point x="146" y="722" type="curve"/>
      <point x="146" y="481"/>
      <point x="146" y="241"/>
      <point x="146" y="0" type="curve"/>
      <point x="236" y="0"/>
      <point x="146" y="0"/>
    </contour>
    <contour>
      <point x="181" y="652" type="curve"/>
      <point x="301" y="652"/>
      <point x="422" y="652"/>
      <point x="544" y="652" type="curve"/>
      <point x="544" y="722"/>
      <point x="544" y="652"/>
      <point x="544" y="722" type="curve"/>
      <point x="422" y="722"/>
      <point x="301" y="722"/>
      <point x="181" y="722" type="curve"/>
      <point x="181" y="652"/>
      <point x="181" y="722"/>
    </contour>
  </outline>
</glyph>
<glyph name="H" format="1">
  <advance width="796"/>
  <unicode hex="0048"/>
  <outline>
    <contour>
      <point x="621" y="652" type="curve"/>
      <point x="768" y="652"/>
      <point x="609" y="652"/>
      <point x="757" y="652" type="curve"/>
      <point x="757" y="722"/>
      <point x="757" y="652"/>
      <point x="757" y="722" type="curve"/>
      <point x="708" y="722"/>
      <point x="669" y="722"/>
      <point x="621" y="722" type="curve"/>
      <point x="621" y="652"/>
      <point x="621" y="722"/>
    </contour>
    <contour>
      <point x="621" y="0" type="curve"/>
      <point x="669" y="0"/>
      <point x="708" y="0"/>
      <point x="757" y="0" type="curve"/>
      <point x="757" y="70"/>
      <point x="757" y="0"/>
      <point x="757" y="70" type="curve"/>
      <point x="609" y="70"/>
      <point x="768" y="70"/>
      <point x="621" y="70" type="curve"/>
      <point x="621" y="0"/>
      <point x="621" y="70"/>
    </contour>
    <contour>
      <point x="621" y="70" type="curve"/>
      <point x="473" y="70"/>
      <point x="632" y="70"/>
      <point x="485" y="70" type="curve"/>
      <point x="485" y="0"/>
      <point x="485" y="70"/>
      <point x="485" y="0" type="curve"/>
      <point x="533" y="0"/>
      <point x="572" y="0"/>
      <point x="621" y="0" type="curve"/>
      <point x="621" y="70"/>
      <point x="621" y="0"/>
    </contour>
    <contour>
      <point x="621" y="722" type="curve"/>
      <point x="572" y="722"/>
      <point x="533" y="722"/>
      <point x="485" y="722" type="curve"/>
      <point x="485" y="652"/>
      <point x="485" y="722"/>
      <point x="485" y="652" type="curve"/>
      <point x="632" y="652"/>
      <point x="473" y="652"/>
      <point x="621" y="652" type="curve"/>
      <point x="621" y="722"/>
      <point x="621" y="652"/>
    </contour>
    <contour>
      <point x="177" y="652" type="curve"/>
      <point x="324" y="652"/>
      <point x="166" y="652"/>
      <point x="313" y="652" type="curve"/>
      <point x="313" y="722"/>
      <point x="313" y="652"/>
      <point x="313" y="722" type="curve"/>
      <point x="264" y="722"/>
      <point x="226" y="722"/>
      <point x="177" y="722" type="curve"/>
      <point x="177" y="652"/>
      <point x="177" y="722"/>
    </contour>
    <contour>
      <point x="177" y="722" type="curve"/>
      <point x="128" y="722"/>
      <point x="90" y="722"/>
      <point x="40" y="722" type="curve"/>
      <point x="40" y="652"/>
      <point x="40" y="722"/>
      <point x="40" y="652" type="curve"/>
      <point x="187" y="652"/>
      <point x="29" y="652"/>
      <point x="177" y="652" type="curve"/>
      <point x="177" y="722"/>
      <point x="177" y="652"/>
    </contour>
    <contour>
      <point x="177" y="0" type="curve"/>
      <point x="226" y="0"/>
      <point x="166" y="0"/>
      <point x="313" y="0" type="curve"/>
      <point x="313" y="70"/>
      <point x="313" y="0"/>
      <point x="313" y="70" type="curve"/>
      <point x="166" y="70"/>
      <point x="324" y="70"/>
      <point x="177" y="70" type="curve"/>
      <point x="177" y="0"/>
      <point x="177" y="70"/>
    </contour>
    <contour>
      <point x="177" y="70" type="curve"/>
      <point x="29" y="70"/>
      <point x="187" y="70"/>
      <point x="40" y="70" type="curve"/>
      <point x="40" y="0"/>
      <point x="40" y="70"/>
      <point x="40" y="0" type="curve"/>
      <point x="90" y="0"/>
      <point x="128" y="0"/>
      <point x="177" y="0" type="curve"/>
      <point x="177" y="70"/>
      <point x="177" y="0"/>
    </contour>
    <contour>
      <point x="222" y="0" type="curve"/>
      <point x="222" y="722" type="line"/>
      <point x="132" y="722"/>
      <point x="222" y="722"/>
      <point x="132" y="722" type="curve"/>
      <point x="132" y="481"/>
      <point x="132" y="241"/>
      <point x="132" y="0" type="curve"/>
      <point x="222" y="0"/>
      <point x="132" y="0"/>
    </contour>
    <contour>
      <point x="618" y="398" type="curve"/>
      <point x="471" y="398"/>
      <point x="324" y="398"/>
      <point x="177" y="398" type="curve"/>
      <point x="177" y="328"/>
      <point x="177" y="398"/>
      <point x="177" y="328" type="curve"/>
      <point x="324" y="328"/>
      <point x="471" y="328"/>
      <point x="618" y="328" type="curve"/>
      <point x="618" y="398"/>
      <point x="618" y="328"/>
    </contour>
    <contour>
      <point x="665" y="26" type="curve"/>
      <point x="665" y="249"/>
      <point x="665" y="473"/>
      <point x="665" y="696" type="curve"/>
      <point x="575" y="696"/>
      <point x="665" y="696"/>
      <point x="575" y="696" type="curve"/>
      <point x="575" y="26" type="line"/>
      <point x="665" y="26"/>
      <point x="575" y="26"/>
    </contour>
  </outline>
</glyph>
<glyph name="I" format="1">
  <advance width="354"/>
  <unicode hex="0049"/>
  <outline>
    <contour>
      <point x="178" y="801" type="move" name="top"/>
    </contour>
    <contour>
      <point x="217" y="2" type="move" name="bottom"/>
    </contour>
    <contour>
      <point x="178" y="722" type="curve"/>
      <point x="129" y="722"/>
      <point x="90" y="722"/>
      <point x="42" y="722" type="curve"/>
      <point x="42" y="652"/>
      <point x="42" y="722"/>
      <point x="42" y="652" type="curve"/>
      <point x="188" y="652"/>
      <point x="30" y="652"/>
      <point x="178" y="652" type="curve"/>
      <point x="178" y="722"/>
      <point x="178" y="652"/>
    </contour>
    <contour>
      <point x="178" y="652" type="curve"/>
      <point x="325" y="652"/>
      <point x="167" y="652"/>
      <point x="314" y="652" type="curve"/>
      <point x="314" y="722"/>
      <point x="314" y="652"/>
      <point x="314" y="722" type="curve"/>
      <point x="265" y="722"/>
      <point x="227" y="722"/>
      <point x="178" y="722" type="curve"/>
      <point x="178" y="652"/>
      <point x="178" y="722"/>
    </contour>
    <contour>
      <point x="178" y="0" type="curve"/>
      <point x="227" y="0"/>
      <point x="265" y="0"/>
      <point x="314" y="0" type="curve"/>
      <point x="314" y="70"/>
      <point x="314" y="0"/>
      <point x="314" y="70" type="curve"/>
      <point x="167" y="70"/>
      <point x="325" y="70"/>
      <point x="178" y="70" type="curve"/>
      <point x="178" y="0"/>
      <point x="178" y="70"/>
    </contour>
    <contour>
      <point x="178" y="70" type="curve"/>
      <point x="30" y="70"/>
      <point x="188" y="70"/>
      <point x="42" y="70" type="curve"/>
      <point x="42" y="0"/>
      <point x="42" y="70"/>
      <point x="42" y="0" type="curve"/>
      <point x="90" y="0"/>
      <point x="129" y="0"/>
      <point x="178" y="0" type="curve"/>
      <point x="178" y="70"/>
      <point x="178" y="0"/>
    </contour>
    <contour>
      <point x="222" y="0" type="curve"/>
      <point x="222" y="241"/>
      <point x="222" y="481"/>
      <point x="222" y="722" type="curve"/>
      <point x="132" y="722"/>
      <point x="222" y="722"/>
      <point x="132" y="722" type="curve"/>
      <point x="132" y="481"/>
      <point x="132" y="241"/>
      <point x="132" y="0" type="curve"/>
      <point x="222" y="0"/>
      <point x="132" y="0"/>
    </contour>
  </outline>
</glyph>
<glyph name="J" format="1">
  <advance width="443"/>
  <unicode hex="004A"/>
  <outline>
    <contour>
      <point x="286" y="722" type="curve"/>
      <point x="239" y="722"/>
      <point x="201" y="722"/>
      <point x="153" y="722" type="curve"/>
      <point x="153" y="652"/>
      <point x="153" y="722"/>
      <point x="153" y="652" type="curve"/>
      <point x="298" y="652"/>
      <point x="142" y="652"/>
      <point x="286" y="652" type="curve"/>
      <point x="286" y="722"/>
      <point x="286" y="652"/>
    </contour>
    <contour>
      <point x="286" y="652" type="curve"/>
      <point x="430" y="652"/>
      <point x="276" y="652"/>
      <point x="420" y="652" type="curve"/>
      <point x="420" y="722"/>
      <point x="420" y="652"/>
      <point x="420" y="722" type="curve"/>
      <point x="371" y="722"/>
      <point x="335" y="722"/>
      <point x="286" y="722" type="curve"/>
      <point x="286" y="652"/>
      <point x="286" y="722"/>
    </contour>
    <contour>
      <point x="13" y="42" type="curve"/>
      <point x="42" y="20"/>
      <point x="83" y="-4"/>
      <point x="135" y="-4" type="curve"/>
      <point x="270" y="-4"/>
      <point x="331" y="82"/>
      <point x="331" y="231" type="curve"/>
      <point x="331" y="402"/>
      <point x="331" y="551"/>
      <point x="331" y="722" type="curve"/>
      <point x="246" y="722"/>
      <point x="326" y="722"/>
      <point x="241" y="722" type="curve"/>
      <point x="241" y="551"/>
      <point x="241" y="402"/>
      <point x="241" y="231" type="curve"/>
      <point x="241" y="138"/>
      <point x="219" y="67"/>
      <point x="135" y="67" type="curve"/>
      <point x="101" y="67"/>
      <point x="79" y="82"/>
      <point x="54" y="97" type="curve"/>
      <point x="15" y="46"/>
      <point x="51" y="94"/>
    </contour>
  </outline>
</glyph>
<glyph name="L" format="1">
  <advance width="578"/>
  <unicode hex="004C"/>
  <outline>
    <contour>
      <point x="178" y="801" type="move" name="top"/>
    </contour>
    <contour>
      <point x="336" y="-24" type="move" name="bottom"/>
    </contour>
    <contour>
      <point x="550" y="35" type="curve"/>
      <point x="550" y="155"/>
      <point x="550" y="32"/>
      <point x="550" y="152" type="curve"/>
      <point x="478" y="152"/>
      <point x="550" y="152"/>
      <point x="478" y="152" type="curve"/>
      <point x="478" y="32"/>
      <point x="478" y="155"/>
      <point x="478" y="35" type="curve"/>
      <point x="550" y="35"/>
      <point x="478" y="35"/>
    </contour>
    <contour>
      <point x="177" y="70" type="curve"/>
      <point x="29" y="70"/>
      <point x="187" y="70"/>
      <point x="41" y="70" type="curve"/>
      <point x="40" y="0"/>
      <point x="41" y="70"/>
      <point x="40" y="0" type="curve"/>
      <point x="89" y="0"/>
      <point x="127" y="0"/>
      <point x="177" y="0" type="curve"/>
      <point x="177" y="70"/>
      <point x="177" y="0"/>
    </contour>
    <contour>
      <point x="177" y="722" type="curve"/>
      <point x="127" y="722"/>
      <point x="89" y="722"/>
      <point x="41" y="722" type="curve"/>
      <point x="40" y="652"/>
      <point x="41" y="722"/>
      <point x="40" y="652" type="curve"/>
      <point x="187" y="652"/>
      <point x="29" y="652"/>
      <point x="177" y="652" type="curve"/>
      <point x="177" y="722"/>
      <point x="177" y="652"/>
    </contour>
    <contour>
      <point x="177" y="652" type="curve"/>
      <point x="323" y="652"/>
      <point x="165" y="652"/>
      <point x="313" y="652" type="curve"/>
      <point x="313" y="722"/>
      <point x="313" y="652"/>
      <point x="313" y="722" type="curve"/>
      <point x="263" y="722"/>
      <point x="225" y="722"/>
      <point x="177" y="722" type="curve"/>
      <point x="177" y="652"/>
      <point x="177" y="722"/>
    </contour>
    <contour>
      <point x="223" y="0" type="curve"/>
      <point x="223" y="241"/>
      <point x="223" y="481"/>
      <point x="223" y="722" type="curve"/>
      <point x="133" y="722"/>
      <point x="223" y="722"/>
      <point x="133" y="722" type="curve"/>
      <point x="133" y="481"/>
      <point x="133" y="241"/>
      <point x="133" y="0" type="curve"/>
      <point x="223" y="0"/>
      <point x="133" y="0"/>
    </contour>
    <contour>
      <point x="177" y="0" type="curve"/>
      <point x="301" y="0"/>
      <point x="425" y="0"/>
      <point x="550" y="0" type="curve"/>
      <point x="550" y="70"/>
      <point x="550" y="0"/>
      <point x="550" y="70" type="curve"/>
      <point x="425" y="70"/>
      <point x="301" y="70"/>
      <point x="177" y="70" type="curve"/>
      <point x="177" y="0"/>
      <point x="177" y="70"/>
    </contour>
  </outline>
</glyph>
<glyph name="N" format="1">
  <advance width="817"/>
  <unicode hex="004E"/>
  <outline>
    <contour>
      <point x="415" y="801" type="move" name="top"/>
    </contour>
    <contour>
      <point x="439" y="-26" type="move" name="bottom"/>
    </contour>
    <contour>
      <point x="176" y="722" type="curve"/>
      <point x="128" y="722"/>
      <point x="90" y="722"/>
      <point x="41" y="722" type="curve"/>
      <point x="41" y="652"/>
      <point x="41" y="722"/>
      <point x="41" y="652" type="curve"/>
      <point x="188" y="652"/>
      <point x="30" y="652"/>
      <point x="176" y="652" type="curve"/>
      <point x="176" y="722"/>
      <point x="176" y="652"/>
    </contour>
    <contour>
      <point x="653" y="652" type="curve"/>
      <point x="798" y="652"/>
      <point x="641" y="652"/>
      <point x="787" y="652" type="curve"/>
      <point x="787" y="722"/>
      <point x="787" y="652"/>
      <point x="787" y="722" type="curve"/>
      <point x="739" y="722"/>
      <point x="701" y="722"/>
      <point x="653" y="722" type="curve"/>
      <point x="653" y="652"/>
      <point x="653" y="722"/>
    </contour>
    <contour>
      <point x="656" y="722" type="curve"/>
      <point x="608" y="722"/>
      <point x="571" y="722"/>
      <point x="523" y="722" type="curve"/>
      <point x="523" y="652"/>
      <point x="523" y="722"/>
      <point x="523" y="652" type="curve"/>
      <point x="667" y="652"/>
      <point x="512" y="652"/>
      <point x="656" y="652" type="curve"/>
      <point x="656" y="722"/>
      <point x="656" y="652"/>
    </contour>
    <contour>
      <point x="175" y="70" type="curve"/>
      <point x="30" y="70"/>
      <point x="187" y="70"/>
      <point x="41" y="70" type="curve"/>
      <point x="40" y="0"/>
      <point x="41" y="70"/>
      <point x="40" y="0" type="curve"/>
      <point x="89" y="0"/>
      <point x="126" y="0"/>
      <point x="175" y="0" type="curve"/>
      <point x="175" y="70"/>
      <point x="175" y="0"/>
    </contour>
    <contour>
      <point x="175" y="0" type="curve"/>
      <point x="223" y="0"/>
      <point x="164" y="0"/>
      <point x="308" y="0" type="curve"/>
      <point x="308" y="70"/>
      <point x="308" y="0"/>
      <point x="308" y="70" type="curve"/>
      <point x="164" y="70"/>
      <point x="319" y="70"/>
      <point x="175" y="70" type="curve"/>
      <point x="175" y="0"/>
      <point x="175" y="70"/>
    </contour>
    <contour>
      <point x="699" y="0" type="curve"/>
      <point x="541" y="240"/>
      <point x="384" y="482"/>
      <point x="227" y="722" type="curve"/>
      <point x="127" y="722"/>
      <point x="227" y="722"/>
      <point x="127" y="722" type="curve"/>
      <point x="285" y="482"/>
      <point x="442" y="240"/>
      <point x="600" y="0" type="curve"/>
      <point x="698" y="0"/>
      <point x="600" y="0"/>
    </contour>
    <contour>
      <point x="610" y="722" type="curve"/>
      <point x="610" y="481"/>
      <point x="610" y="241"/>
      <point x="610" y="0" type="curve"/>
      <point x="699" y="0"/>
      <point x="610" y="0"/>
      <point x="699" y="0" type="curve"/>
      <point x="699" y="241"/>
      <point x="699" y="481"/>
      <point x="699" y="722" type="curve"/>
      <point x="610" y="722"/>
      <point x="699" y="722"/>
    </contour>
    <contour>
      <point x="220" y="0" type="curve"/>
      <point x="220" y="241"/>
      <point x="220" y="481"/>
      <point x="220" y="722" type="curve"/>
      <point x="130" y="722"/>
      <point x="220" y="722"/>
      <point x="130" y="722" type="curve"/>
      <point x="130" y="481"/>
      <point x="130" y="241"/>
      <point x="130" y="0" type="curve"/>
      <point x="220" y="0"/>
      <point x="130" y="0"/>
    </contour>
  </outline>
</glyph>
<glyph name="T" format="1">
  <advance width="618"/>
  <unicode hex="0054"/>
  <outline>
    <contour>
      <point x="308" y="801" type="move" name="top"/>
    </contour>
    <contour>
      <point x="341" y="-27" type="move" name="bottom"/>
    </contour>
    <contour>
      <point x="35" y="686" type="curve"/>
      <point x="35" y="566"/>
      <point x="35" y="690"/>
      <point x="35" y="570" type="curve"/>
      <point x="106" y="570"/>
      <point x="35" y="570"/>
      <point x="106" y="570" type="curve"/>
      <point x="106" y="690"/>
      <point x="106" y="566"/>
      <point x="106" y="686" type="curve"/>
      <point x="35" y="686"/>
      <point x="106" y="686"/>
    </contour>
    <contour>
      <point x="512" y="686" type="curve"/>
      <point x="512" y="566"/>
      <point x="512" y="690"/>
      <point x="512" y="570" type="curve"/>
      <point x="584" y="570"/>
      <point x="512" y="570"/>
      <point x="584" y="570" type="curve"/>
      <point x="584" y="690"/>
      <point x="584" y="566"/>
      <point x="584" y="686" type="curve"/>
      <point x="512" y="686"/>
      <point x="584" y="686"/>
    </contour>
    <contour>
      <point x="308" y="0" type="curve"/>
      <point x="355" y="0"/>
      <point x="398" y="0"/>
      <point x="444" y="0" type="curve"/>
      <point x="444" y="70"/>
      <point x="444" y="0"/>
      <point x="444" y="70" type="curve"/>
      <point x="305" y="70"/>
      <point x="448" y="70"/>
      <point x="308" y="70" type="curve"/>
      <point x="308" y="0"/>
      <point x="308" y="70"/>
    </contour>
    <contour>
      <point x="308" y="70" type="curve"/>
      <point x="168" y="70"/>
      <point x="311" y="70"/>
      <point x="171" y="70" type="curve"/>
      <point x="171" y="0"/>
      <point x="171" y="70"/>
      <point x="171" y="0" type="curve"/>
      <point x="218" y="0"/>
      <point x="262" y="0"/>
      <point x="308" y="0" type="curve"/>
      <point x="308" y="70"/>
      <point x="308" y="0"/>
    </contour>
    <contour>
      <point x="354" y="0" type="curve"/>
      <point x="354" y="237"/>
      <point x="354" y="473"/>
      <point x="354" y="710" type="curve"/>
      <point x="264" y="710"/>
      <point x="354" y="710"/>
      <point x="264" y="710" type="curve"/>
      <point x="264" y="473"/>
      <point x="264" y="237"/>
      <point x="264" y="0" type="curve"/>
      <point x="354" y="0"/>
      <point x="264" y="0"/>
    </contour>
    <contour>
      <point x="35" y="647" type="curve"/>
      <point x="217" y="647"/>
      <point x="400" y="647"/>
      <point x="584" y="647" type="curve"/>
      <point x="584" y="725"/>
      <point x="584" y="645"/>
      <point x="584" y="722" type="curve"/>
      <point x="400" y="722"/>
      <point x="217" y="722"/>
      <point x="35" y="722" type="curve"/>
      <point x="35" y="645"/>
      <point x="35" y="725"/>
    </contour>
  </outline>
</glyph>
<glyph name="V" format="1">
  <advance width="732"/>
  <unicode hex="0056"/>
  <outline>
    <contour>
      <point x="588" y="722" type="curve"/>
      <point x="540" y="722"/>
      <point x="495" y="722"/>
      <point x="446" y="722" type="curve"/>
      <point x="446" y="652"/>
      <point x="446" y="722"/>
      <point x="446" y="652" type="curve"/>
      <point x="591" y="652"/>
      <point x="444" y="652"/>
      <point x="588" y="652" type="curve"/>
      <point x="588" y="722"/>
      <point x="588" y="652"/>
    </contour>
    <contour>
      <point x="119" y="722" type="curve"/>
      <point x="76" y="722"/>
      <point x="36" y="722"/>
      <point x="-7" y="722" type="curve"/>
      <point x="-7" y="652"/>
      <point x="-7" y="722"/>
      <point x="-7" y="652" type="curve"/>
      <point x="122" y="652"/>
      <point x="-11" y="652"/>
      <point x="119" y="652" type="curve"/>
      <point x="119" y="722"/>
      <point x="119" y="652"/>
    </contour>
    <contour>
      <point x="595" y="652" type="curve"/>
      <point x="724" y="652"/>
      <point x="592" y="652"/>
      <point x="721" y="652" type="curve"/>
      <point x="721" y="722"/>
      <point x="721" y="652"/>
      <point x="721" y="722" type="curve"/>
      <point x="678" y="722"/>
      <point x="638" y="722"/>
      <point x="595" y="722" type="curve"/>
      <point x="595" y="652"/>
      <point x="595" y="722"/>
    </contour>
    <contour>
      <point x="126" y="652" type="curve"/>
      <point x="271" y="652"/>
      <point x="122" y="652"/>
      <point x="268" y="652" type="curve"/>
      <point x="268" y="722"/>
      <point x="268" y="652"/>
      <point x="268" y="722" type="curve"/>
      <point x="219" y="722"/>
      <point x="174" y="722"/>
      <point x="126" y="722" type="curve"/>
      <point x="126" y="652"/>
      <point x="126" y="722"/>
    </contour>
    <contour>
      <point x="562" y="722" type="curve"/>
      <point x="481" y="480"/>
      <point x="401" y="242"/>
      <point x="322" y="0" type="curve"/>
      <point x="415" y="0"/>
      <point x="316" y="0"/>
      <point x="408" y="0" type="curve"/>
      <point x="490" y="241"/>
      <point x="571" y="481"/>
      <point x="654" y="722" type="curve"/>
      <point x="562" y="722"/>
      <point x="654" y="722"/>
    </contour>
    <contour>
      <point x="61" y="722" type="curve"/>
      <point x="143" y="481"/>
      <point x="227" y="241"/>
      <point x="310" y="0" type="curve"/>
      <point x="402" y="0"/>
      <point x="305" y="0"/>
      <point x="398" y="0" type="curve"/>
      <point x="317" y="242"/>
      <point x="236" y="482"/>
      <point x="153" y="722" type="curve"/>
      <point x="61" y="722"/>
      <point x="153" y="722"/>
    </contour>
  </outline>
</glyph>
<glyph name="W" format="1">
  <advance width="915"/>
  <unicode hex="0057"/>
  <outline>
    <contour>
      <point x="135" y="652" type="curve"/>
      <point x="261" y="652"/>
      <point x="132" y="652"/>
      <point x="258" y="652" type="curve"/>
      <point x="258" y="722"/>
      <point x="258" y="652"/>
      <point x="258" y="722" type="curve"/>
      <point x="216" y="722"/>
      <point x="177" y="722"/>
      <point x="135" y="722" type="curve"/>
      <point x="135" y="652"/>
      <point x="135" y="722"/>
    </contour>
    <contour>
      <point x="131" y="722" type="curve"/>
      <point x="87" y="722"/>
      <point x="46" y="722"/>
      <point x="3" y="722" type="curve"/>
      <point x="3" y="652"/>
      <point x="3" y="722"/>
      <point x="3" y="652" type="curve"/>
      <point x="134" y="652"/>
      <point x="-1" y="652"/>
      <point x="131" y="652" type="curve"/>
      <point x="131" y="722"/>
      <point x="131" y="652"/>
    </contour>
    <contour>
      <point x="775" y="722" type="curve"/>
      <point x="732" y="722"/>
      <point x="693" y="722"/>
      <point x="652" y="722" type="curve"/>
      <point x="652" y="652"/>
      <point x="652" y="722"/>
      <point x="652" y="652" type="curve"/>
      <point x="778" y="652"/>
      <point x="649" y="652"/>
      <point x="775" y="652" type="curve"/>
      <point x="775" y="722"/>
      <point x="775" y="652"/>
    </contour>
    <contour>
      <point x="777" y="652" type="curve"/>
      <point x="908" y="652"/>
      <point x="774" y="652"/>
      <point x="905" y="652" type="curve"/>
      <point x="905" y="722"/>
      <point x="905" y="652"/>
      <point x="905" y="722" type="curve"/>
      <point x="862" y="722"/>
      <point x="820" y="722"/>
      <point x="777" y="722" type="curve"/>
      <point x="777" y="652"/>
      <point x="777" y="722"/>
    </contour>
    <contour>
      <point x="318" y="0" type="curve"/>
      <point x="377" y="241"/>
      <point x="436" y="481"/>
      <point x="495" y="722" type="curve"/>
      <point x="415" y="722"/>
      <point x="496" y="722"/>
      <point x="416" y="722" type="curve"/>
      <point x="360" y="481"/>
      <point x="304" y="242"/>
      <point x="247" y="0" type="curve"/>
      <point x="323" y="0"/>
      <point x="243" y="0"/>
    </contour>
    <contour>
      <point x="424" y="722" type="curve"/>
      <point x="477" y="481"/>
      <point x="529" y="241"/>
      <point x="583" y="0" type="curve"/>
      <point x="658" y="0"/>
      <point x="576" y="0"/>
      <point x="652" y="0" type="curve"/>
      <point x="601" y="243"/>
      <point x="553" y="481"/>
      <point x="502" y="722" type="curve"/>
      <point x="422" y="722"/>
      <point x="504" y="722"/>
    </contour>
    <contour>
      <point x="76" y="722" type="curve"/>
      <point x="130" y="481"/>
      <point x="183" y="241"/>
      <point x="237" y="0" type="curve"/>
      <point x="313" y="0"/>
      <point x="237" y="0"/>
      <point x="313" y="0" type="curve"/>
      <point x="261" y="241"/>
      <point x="210" y="481"/>
      <point x="158" y="722" type="curve"/>
      <point x="76" y="722"/>
      <point x="158" y="722"/>
    </contour>
    <contour>
      <point x="749" y="722" type="curve"/>
      <point x="695" y="481"/>
      <point x="642" y="241"/>
      <point x="589" y="0" type="curve"/>
      <point x="665" y="0"/>
      <point x="588" y="0"/>
      <point x="664" y="0" type="curve"/>
      <point x="719" y="241"/>
      <point x="775" y="481"/>
      <point x="832" y="722" type="curve"/>
      <point x="749" y="722"/>
      <point x="832" y="722"/>
    </contour>
  </outline>
</glyph>
<glyph name="backslash" format="1">
  <advance width="507"/>
  <unicode hex="005C"/>
  <outline>
    <contour>
      <point x="474" y="-68" type="curve"/>
      <point x="358" y="236"/>
      <point x="243" y="540"/>
      <point x="127" y="844" type="curve"/>
      <point x="33" y="844"/>
      <point x="127" y="844"/>
      <point x="33" y="844" type="curve"/>
      <point x="149" y="540"/>
      <point x="265" y="236"/>
      <point x="380" y="-68" type="curve"/>
      <point x="474" y="-68"/>
      <point x="380" y="-68"/>
    </contour>
  </outline>
</glyph>
<glyph name="bracketright" format="1">
  <advance width="295"/>
  <unicode hex="005D"/>
  <outline>
    <contour>
      <point x="44" y="693" type="curve"/>
      <point x="89" y="693"/>
      <point x="134" y="693"/>
      <point x="179" y="693" type="curve"/>
      <point x="171" y="701"/>
      <point x="158" y="703"/>
      <point x="150" y="711" type="curve"/>
      <point x="142" y="719"/>
      <point x="136" y="729"/>
      <point x="128" y="737" type="curve"/>
      <point x="128" y="463"/>
      <point x="128" y="188"/>
      <point x="128" y="-87" type="curve"/>
      <point x="136" y="-78"/>
      <point x="144" y="-69"/>
      <point x="153" y="-61" type="curve"/>
      <point x="161" y="-53"/>
      <point x="173" y="-49"/>
      <point x="180" y="-41" type="curve"/>
      <point x="134" y="-41"/>
      <point x="89" y="-41"/>
      <point x="44" y="-41" type="curve"/>
      <point x="44" y="-118"/>
      <point x="44" y="-41"/>
      <point x="44" y="-118" type="curve"/>
      <point x="89" y="-118"/>
      <point x="134" y="-118"/>
      <point x="180" y="-118" type="curve"/>
      <point x="218" y="-118"/>
      <point x="180" y="-118"/>
      <point x="218" y="-118" type="curve"/>
      <point x="218" y="-87"/>
      <point x="218" y="-118"/>
      <point x="218" y="-87" type="curve"/>
      <point x="218" y="188"/>
      <point x="218" y="463"/>
      <point x="218" y="737" type="curve"/>
      <point x="218" y="770"/>
      <point x="218" y="737"/>
      <point x="218" y="770" type="curve"/>
      <point x="179" y="770"/>
      <point x="218" y="770"/>
      <point x="179" y="770" type="curve"/>
      <point x="134" y="770"/>
      <point x="89" y="770"/>
      <point x="44" y="770" type="curve"/>
      <point x="44" y="693"/>
      <point x="44" y="770"/>
    </contour>
  </outline>
</glyph>
<glyph name="asciicircum" format="1">
  <advance width="516"/>
  <unicode hex="005E"/>
  <outline>
    <contour>
      <point x="148" y="459" type="curve"/>
      <point x="199" y="566"/>
      <point x="251" y="673"/>
      <point x="302" y="780" type="curve"/>
      <point x="213" y="780"/>
      <point x="302" y="780"/>
      <point x="213" y="780" type="curve"/>
      <point x="161" y="673"/>
      <point x="110" y="566"/>
      <point x="59" y="459" type="curve"/>
      <point x="148" y="459"/>
      <point x="59" y="459"/>
    </contour>
    <contour>
      <point x="458" y="459" type="curve"/>
      <point x="408" y="564"/>
      <point x="354" y="675"/>
      <point x="303" y="780" type="curve"/>
      <point x="213" y="780"/>
      <point x="302" y="780"/>
      <point x="213" y="780" type="curve"/>
      <point x="263" y="675"/>
      <point x="318" y="564"/>
      <point x="368" y="459" type="curve"/>
      <point x="458" y="459"/>
      <point x="369" y="459"/>
    </contour>
  </outline>
</glyph>
<glyph name="underscore" format="1">
  <advance width="603"/>
  <unicode hex="005F"/>
  <outline>
    <contour>
      <point x="0" y="-195" type="curve"/>
      <point x="201" y="-195"/>
      <point x="402" y="-195"/>
      <point x="603" y="-195" type="curve"/>
      <point x="603" y="-125"/>
      <point x="603" y="-195"/>
      <point x="603" y="-125" type="curve"/>
      <point x="402" y="-125"/>
      <point x="201" y="-125"/>
      <point x="0" y="-125" type="curve"/>
      <point x="0" y="-195"/>
      <point x="0" y="-125"/>
    </contour>
  </outline>
</glyph>
<glyph name="grave" format="1">
  <advance width="370"/>
  <unicode hex="0060"/>
  <outline>
    <contour>
      <point x="223" y="582" type="move" name="_top"/>
    </contour>
    <contour>
      <point x="270" y="582" type="line"/>
      <point x="170" y="748" type="line"/>
      <point x="56" y="748" type="line"/>
      <point x="182" y="582" type="line"/>
    </contour>
  </outline>
</glyph>
<glyph name="c" format="1">
  <advance width="514"/>
  <unicode hex="0063"/>
  <outline>
    <contour>
      <point x="284" y="639" type="move" name="top"/>
    </contour>
    <contour>
      <point x="305" y="2" type="move" name="bottom"/>
    </contour>
    <contour>
      <point x="386" y="471" type="curve"/>
      <point x="386" y="344"/>
      <point x="386" y="474"/>
      <point x="386" y="348" type="curve"/>
      <point x="458" y="348"/>
      <point x="386" y="348"/>
      <point x="458" y="348" type="curve"/>
      <point x="458" y="474"/>
      <point x="458" y="344"/>
      <point x="458" y="471" type="curve"/>
      <point x="386" y="471"/>
      <point x="458" y="471"/>
    </contour>
    <contour>
      <point x="458" y="471" type="curve"/>
      <point x="413" y="509"/>
      <point x="355" y="538"/>
      <point x="293" y="538" type="curve"/>
      <point x="133" y="538"/>
      <point x="51" y="436"/>
      <point x="51" y="267" type="curve"/>
      <point x="51" y="98"/>
      <point x="131" y="-5"/>
      <point x="291" y="-5" type="curve"/>
      <point x="361" y="-5"/>
      <point x="426" y="27"/>
      <point x="466" y="87" type="curve"/>
      <point x="409" y="133"/>
      <point x="466" y="87"/>
      <point x="409" y="133" type="curve"/>
      <point x="381" y="99"/>
      <point x="341" y="68"/>
      <point x="295" y="68" type="curve"/>
      <point x="186" y="68"/>
      <point x="141" y="147"/>
      <point x="141" y="267" type="curve"/>
      <point x="141" y="386"/>
      <point x="185" y="465"/>
      <point x="292" y="465" type="curve"/>
      <point x="333" y="465"/>
      <point x="374" y="447"/>
      <point x="405" y="422" type="curve"/>
      <point x="458" y="471"/>
      <point x="405" y="422"/>
    </contour>
  </outline>
</glyph>
<glyph name="d" format="1">
  <advance width="625"/>
  <unicode hex="0064"/>
  <outline>
    <contour>
      <point x="466" y="800" type="curve"/>
      <point x="419" y="800"/>
      <point x="378" y="800"/>
      <point x="331" y="800" type="curve"/>
      <point x="331" y="730"/>
      <point x="331" y="800"/>
      <point x="331" y="730" type="curve"/>
      <point x="474" y="730"/>
      <point x="324" y="730"/>
      <point x="467" y="730" type="curve"/>
      <point x="467" y="800"/>
      <point x="466" y="730"/>
    </contour>
    <contour>
      <point x="468" y="0" type="curve"/>
      <point x="516" y="0"/>
      <point x="556" y="0"/>
      <point x="604" y="0" type="curve"/>
      <point x="604" y="70"/>
      <point x="604" y="0"/>
      <point x="604" y="70" type="curve"/>
      <point x="461" y="70"/>
      <point x="611" y="70"/>
      <point x="468" y="70" type="curve"/>
      <point x="468" y="-1"/>
      <point x="468" y="70"/>
    </contour>
    <contour>
      <point x="477" y="438" type="curve"/>
      <point x="430" y="500"/>
      <point x="361" y="536"/>
      <point x="279" y="536" type="curve"/>
      <point x="129" y="536"/>
      <point x="51" y="421"/>
      <point x="51" y="263" type="curve"/>
      <point x="51" y="107"/>
      <point x="132" y="-3"/>
      <point x="279" y="-3" type="curve"/>
      <point x="372" y="-3"/>
      <point x="435" y="45"/>
      <point x="477" y="125" type="curve"/>
      <point x="440" y="171"/>
      <point x="476" y="125"/>
      <point x="439" y="171" type="curve"/>
      <point x="404" y="107"/>
      <point x="359" y="67"/>
      <point x="293" y="67" type="curve"/>
      <point x="190" y="67"/>
      <point x="140" y="153"/>
      <point x="140" y="267" type="curve"/>
      <point x="140" y="381"/>
      <point x="192" y="466"/>
      <point x="295" y="466" type="curve"/>
      <point x="355" y="466"/>
      <point x="408" y="435"/>
      <point x="441" y="387" type="curve"/>
      <point x="478" y="437"/>
      <point x="440" y="389"/>
    </contour>
    <contour>
      <point x="514" y="0" type="curve"/>
      <point x="514" y="267"/>
      <point x="514" y="533"/>
      <point x="514" y="800" type="curve"/>
      <point x="420" y="800"/>
      <point x="514" y="800"/>
      <point x="420" y="800" type="curve"/>
      <point x="420" y="533"/>
      <point x="420" y="267"/>
      <point x="420" y="0" type="curve"/>
      <point x="514" y="0"/>
      <point x="420" y="0"/>
    </contour>
  </outline>
</glyph>
<glyph name="f" format="1">
  <advance width="443"/>
  <unicode hex="0066"/>
  <outline>
    <contour>
      <point x="355" y="772" type="curve"/>
      <point x="355" y="650"/>
      <point x="355" y="775"/>
      <point x="355" y="653" type="curve"/>
      <point x="426" y="653"/>
      <point x="355" y="653"/>
      <point x="426" y="653" type="curve"/>
      <point x="426" y="775"/>
      <point x="426" y="650"/>
      <point x="426" y="772" type="curve"/>
      <point x="355" y="772"/>
      <point x="426" y="772"/>
    </contour>
    <contour>
      <point x="192" y="-1" type="curve"/>
      <point x="240" y="-1"/>
      <point x="280" y="0"/>
      <point x="328" y="0" type="curve"/>
      <point x="328" y="70"/>
      <point x="328" y="0"/>
      <point x="328" y="70" type="curve"/>
      <point x="185" y="70"/>
      <point x="335" y="70"/>
      <point x="192" y="70" type="curve"/>
      <point x="192" y="-1"/>
      <point x="192" y="70"/>
    </contour>
    <contour>
      <point x="192" y="70" type="curve"/>
      <point x="49" y="70"/>
      <point x="200" y="70"/>
      <point x="57" y="70" type="curve"/>
      <point x="57" y="0"/>
      <point x="57" y="70"/>
      <point x="57" y="0" type="curve"/>
      <point x="104" y="0"/>
      <point x="145" y="-1"/>
      <point x="192" y="-1" type="curve"/>
      <point x="192" y="70"/>
      <point x="192" y="-1"/>
    </contour>
    <contour>
      <point x="32" y="463" type="curve"/>
      <point x="388" y="463" type="line"/>
      <point x="388" y="533"/>
      <point x="388" y="463"/>
      <point x="388" y="533" type="curve"/>
      <point x="32" y="533" type="line"/>
      <point x="32" y="463"/>
      <point x="32" y="533"/>
    </contour>
    <contour>
      <point x="237" y="0" type="curve"/>
      <point x="237" y="620" type="line"/>
      <point x="236" y="686"/>
      <point x="258" y="737"/>
      <point x="317" y="737" type="curve"/>
      <point x="343" y="737"/>
      <point x="367" y="728"/>
      <point x="390" y="716" type="curve"/>
      <point x="426" y="772"/>
      <point x="390" y="716"/>
      <point x="426" y="772" type="curve"/>
      <point x="393" y="790"/>
      <point x="355" y="804"/>
      <point x="317" y="804" type="curve"/>
      <point x="209" y="804"/>
      <point x="147" y="731"/>
      <point x="147" y="620" type="curve"/>
      <point x="147" y="0" type="line"/>
      <point x="237" y="0"/>
      <point x="147" y="0"/>
    </contour>
  </outline>
</glyph>
<glyph name="h" format="1">
  <advance width="612"/>
  <unicode hex="0068"/>
  <outline>
    <contour>
      <point x="472" y="-1" type="curve"/>
      <point x="520" y="-1"/>
      <point x="561" y="0"/>
      <point x="608" y="0" type="curve"/>
      <point x="608" y="70"/>
      <point x="608" y="0"/>
      <point x="608" y="70" type="curve"/>
      <point x="465" y="70"/>
      <point x="616" y="70"/>
      <point x="472" y="70" type="curve"/>
      <point x="472" y="-1"/>
      <point x="472" y="70"/>
    </contour>
    <contour>
      <point x="144" y="-1" type="curve"/>
      <point x="186" y="-1"/>
      <point x="137" y="-1"/>
      <point x="263" y="0" type="curve"/>
      <point x="263" y="70"/>
      <point x="263" y="0"/>
      <point x="263" y="70" type="curve"/>
      <point x="137" y="70"/>
      <point x="270" y="70"/>
      <point x="144" y="70" type="curve"/>
      <point x="144" y="-1"/>
      <point x="144" y="70"/>
    </contour>
    <contour>
      <point x="144" y="799" type="curve"/>
      <point x="96" y="799"/>
      <point x="55" y="800"/>
      <point x="8" y="800" type="curve"/>
      <point x="8" y="730"/>
      <point x="8" y="800"/>
      <point x="8" y="730" type="curve"/>
      <point x="151" y="730"/>
      <point x="0" y="730"/>
      <point x="144" y="730" type="curve"/>
      <point x="144" y="799"/>
      <point x="144" y="730"/>
    </contour>
    <contour>
      <point x="144" y="70" type="curve"/>
      <point x="0" y="70"/>
      <point x="151" y="70"/>
      <point x="8" y="70" type="curve"/>
      <point x="8" y="0"/>
      <point x="8" y="70"/>
      <point x="8" y="0" type="curve"/>
      <point x="55" y="0"/>
      <point x="96" y="-1"/>
      <point x="144" y="-1" type="curve"/>
      <point x="144" y="70"/>
      <point x="144" y="-1"/>
    </contour>
    <contour>
      <point x="168" y="321" type="curve"/>
      <point x="192" y="396"/>
      <point x="249" y="466"/>
      <point x="324" y="466" type="curve"/>
      <point x="403" y="466"/>
      <point x="428" y="405"/>
      <point x="428" y="321" type="curve"/>
      <point x="428" y="214"/>
      <point x="428" y="108"/>
      <point x="428" y="0" type="curve"/>
      <point x="518" y="0"/>
      <point x="428" y="0"/>
      <point x="518" y="0" type="curve"/>
      <point x="518" y="110"/>
      <point x="518" y="220"/>
      <point x="518" y="330" type="curve"/>
      <point x="518" y="456"/>
      <point x="468" y="536"/>
      <point x="345" y="536" type="curve"/>
      <point x="246" y="536"/>
      <point x="165" y="458"/>
      <point x="137" y="357" type="curve"/>
      <point x="170" y="320"/>
      <point x="136" y="356"/>
    </contour>
    <contour>
      <point x="189" y="0" type="curve"/>
      <point x="189" y="267"/>
      <point x="189" y="533"/>
      <point x="189" y="800" type="curve"/>
      <point x="99" y="800"/>
      <point x="189" y="800"/>
      <point x="99" y="800" type="curve"/>
      <point x="99" y="533"/>
      <point x="99" y="267"/>
      <point x="99" y="0" type="curve"/>
      <point x="189" y="0"/>
      <point x="99" y="0"/>
    </contour>
  </outline>
</glyph>
<glyph name="i" format="1">
  <advance width="312"/>
  <unicode hex="0069"/>
  <outline>
    <contour>
      <point x="165" y="639" type="move" name="top"/>
    </contour>
    <contour>
      <point x="209" y="4" type="move" name="bottom"/>
    </contour>
    <contour>
      <point x="167" y="70" type="curve"/>
      <point x="24" y="70"/>
      <point x="174" y="70"/>
      <point x="31" y="70" type="curve"/>
      <point x="31" y="0"/>
      <point x="31" y="70"/>
      <point x="31" y="0" type="curve"/>
      <point x="79" y="0"/>
      <point x="120" y="0"/>
      <point x="167" y="0" type="curve"/>
      <point x="167" y="70"/>
      <point x="167" y="0"/>
    </contour>
    <contour>
      <point x="167" y="0" type="curve"/>
      <point x="212" y="0"/>
      <point x="251" y="0"/>
      <point x="296" y="0" type="curve"/>
      <point x="296" y="70"/>
      <point x="296" y="0"/>
      <point x="296" y="70" type="curve"/>
      <point x="161" y="70"/>
      <point x="302" y="70"/>
      <point x="167" y="70" type="curve"/>
      <point x="167" y="0"/>
      <point x="167" y="70"/>
    </contour>
    <contour>
      <point x="167" y="533" type="curve"/>
      <point x="120" y="533"/>
      <point x="79" y="533"/>
      <point x="31" y="533" type="curve"/>
      <point x="31" y="463"/>
      <point x="31" y="533"/>
      <point x="31" y="463" type="curve"/>
      <point x="174" y="463"/>
      <point x="24" y="463"/>
      <point x="167" y="463" type="curve"/>
      <point x="167" y="533"/>
      <point x="167" y="463"/>
    </contour>
    <contour>
      <point x="215" y="0" type="curve"/>
      <point x="215" y="178"/>
      <point x="215" y="355"/>
      <point x="215" y="533" type="curve"/>
      <point x="120" y="533"/>
      <point x="215" y="533"/>
      <point x="120" y="533" type="curve"/>
      <point x="120" y="355"/>
      <point x="120" y="178"/>
      <point x="120" y="0" type="curve"/>
      <point x="215" y="0"/>
      <point x="120" y="0"/>
    </contour>
    <contour>
      <point x="216" y="682" type="curve"/>
      <point x="216" y="714"/>
      <point x="194" y="729"/>
      <point x="164" y="729" type="curve"/>
      <point x="134" y="729"/>
      <point x="115" y="712"/>
      <point x="115" y="682" type="curve"/>
      <point x="213" y="682"/>
      <point x="118" y="682"/>
      <point x="216" y="682" type="curve"/>
      <point x="216" y="651"/>
      <point x="194" y="636"/>
      <point x="164" y="636" type="curve"/>
      <point x="134" y="636"/>
      <point x="115" y="652"/>
      <point x="115" y="682" type="curve"/>
      <point x="213" y="682"/>
      <point x="118" y="682"/>
    </contour>
  </outline>
</glyph>
<glyph name="j" format="1">
  <advance width="287"/>
  <unicode hex="006A"/>
  <outline>
    <contour>
      <point x="154" y="533" type="curve"/>
      <point x="106" y="533"/>
      <point x="61" y="533"/>
      <point x="14" y="533" type="curve"/>
      <point x="14" y="463"/>
      <point x="14" y="533"/>
      <point x="14" y="463" type="curve"/>
      <point x="157" y="463"/>
      <point x="11" y="463"/>
      <point x="154" y="463" type="curve"/>
      <point x="154" y="533"/>
      <point x="154" y="463"/>
    </contour>
    <contour>
      <point x="-6" y="-302" type="curve"/>
      <point x="2" y="-303"/>
      <point x="12" y="-305"/>
      <point x="23" y="-305" type="curve"/>
      <point x="128" y="-305"/>
      <point x="200" y="-235"/>
      <point x="200" y="-130" type="curve"/>
      <point x="200" y="91"/>
      <point x="200" y="312"/>
      <point x="200" y="534" type="curve"/>
      <point x="110" y="534"/>
      <point x="200" y="534"/>
      <point x="110" y="534" type="curve"/>
      <point x="110" y="312"/>
      <point x="110" y="91"/>
      <point x="110" y="-130" type="curve"/>
      <point x="110" y="-187"/>
      <point x="83" y="-236"/>
      <point x="27" y="-236" type="curve"/>
      <point x="20" y="-236"/>
      <point x="13" y="-235"/>
      <point x="7" y="-234" type="curve"/>
      <point x="-6" y="-301"/>
      <point x="6" y="-236"/>
    </contour>
    <contour>
      <point x="205" y="679" type="curve"/>
      <point x="205" y="710"/>
      <point x="184" y="726"/>
      <point x="154" y="726" type="curve"/>
      <point x="124" y="726"/>
      <point x="104" y="709"/>
      <point x="104" y="679" type="curve"/>
      <point x="203" y="679"/>
      <point x="107" y="679"/>
      <point x="205" y="679" type="curve"/>
      <point x="205" y="647"/>
      <point x="185" y="633"/>
      <point x="154" y="633" type="curve"/>
      <point x="124" y="633"/>
      <point x="104" y="648"/>
      <point x="104" y="679" type="curve"/>
      <point x="203" y="679"/>
      <point x="107" y="679"/>
    </contour>
  </outline>
</glyph>
<glyph name="p" format="1">
  <advance width="614"/>
  <unicode hex="0070"/>
  <outline>
    <contour>
      <point x="143" y="-230" type="curve"/>
      <point x="-2" y="-230"/>
      <point x="151" y="-230"/>
      <point x="6" y="-230" type="curve"/>
      <point x="6" y="-300"/>
      <point x="6" y="-230"/>
      <point x="6" y="-300" type="curve"/>
      <point x="55" y="-300"/>
      <point x="95" y="-300"/>
      <point x="143" y="-300" type="curve"/>
      <point x="143" y="-230"/>
      <point x="143" y="-300"/>
    </contour>
    <contour>
      <point x="143" y="-300" type="curve"/>
      <point x="190" y="-300"/>
      <point x="227" y="-300"/>
      <point x="272" y="-300" type="curve"/>
      <point x="272" y="-230"/>
      <point x="272" y="-300"/>
      <point x="272" y="-230" type="curve"/>
      <point x="136" y="-230"/>
      <point x="280" y="-230"/>
      <point x="143" y="-230" type="curve"/>
      <point x="143" y="-300"/>
      <point x="143" y="-230"/>
    </contour>
    <contour>
      <point x="144" y="533" type="curve"/>
      <point x="97" y="533"/>
      <point x="56" y="533"/>
      <point x="8" y="533" type="curve"/>
      <point x="7" y="463"/>
      <point x="8" y="533"/>
      <point x="7" y="463" type="curve"/>
      <point x="152" y="463"/>
      <point x="0" y="463"/>
      <point x="144" y="463" type="curve"/>
      <point x="144" y="533"/>
      <point x="144" y="463"/>
    </contour>
    <contour>
      <point x="166" y="347" type="curve"/>
      <point x="195" y="408"/>
      <point x="254" y="468"/>
      <point x="329" y="468" type="curve"/>
      <point x="435" y="468"/>
      <point x="474" y="379"/>
      <point x="474" y="269" type="curve"/>
      <point x="475" y="155"/>
      <point x="434" y="64"/>
      <point x="329" y="65" type="curve"/>
      <point x="261" y="65"/>
      <point x="212" y="98"/>
      <point x="169" y="149" type="curve"/>
      <point x="138" y="116"/>
      <point x="163" y="140"/>
      <point x="132" y="108" type="curve"/>
      <point x="187" y="37"/>
      <point x="252" y="-5"/>
      <point x="344" y="-5" type="curve"/>
      <point x="497" y="-5"/>
      <point x="564" y="116"/>
      <point x="563" y="273" type="curve"/>
      <point x="563" y="422"/>
      <point x="497" y="539"/>
      <point x="347" y="539" type="curve"/>
      <point x="250" y="539"/>
      <point x="178" y="476"/>
      <point x="137" y="403" type="curve"/>
      <point x="162" y="355"/>
      <point x="141" y="396"/>
    </contour>
    <contour>
      <point x="189" y="-300" type="curve"/>
      <point x="189" y="-22"/>
      <point x="189" y="255"/>
      <point x="189" y="533" type="curve"/>
      <point x="99" y="533"/>
      <point x="189" y="533"/>
      <point x="99" y="533" type="curve"/>
      <point x="99" y="255"/>
      <point x="99" y="-22"/>
      <point x="99" y="-300" type="curve"/>
      <point x="189" y="-300"/>
      <point x="99" y="-300"/>
    </contour>
  </outline>
</glyph>
<glyph name="q" format="1">
  <advance width="625"/>
  <unicode hex="0071"/>
  <outline>
    <contour>
      <point x="473" y="463" type="curve"/>
      <point x="590" y="463"/>
      <point x="482" y="463"/>
      <point x="600" y="463" type="curve"/>
      <point x="600" y="522"/>
      <point x="600" y="474"/>
      <point x="600" y="533" type="curve"/>
      <point x="554" y="533"/>
      <point x="518" y="533"/>
      <point x="473" y="533" type="curve"/>
      <point x="473" y="474"/>
      <point x="473" y="522"/>
    </contour>
    <contour>
      <point x="472" y="-230" type="curve"/>
      <point x="346" y="-230"/>
      <point x="462" y="-230"/>
      <point x="336" y="-230" type="curve"/>
      <point x="336" y="-289"/>
      <point x="336" y="-240"/>
      <point x="336" y="-300" type="curve"/>
      <point x="385" y="-300"/>
      <point x="424" y="-300"/>
      <point x="472" y="-300" type="curve"/>
      <point x="472" y="-240"/>
      <point x="472" y="-289"/>
    </contour>
    <contour>
      <point x="472" y="-300" type="curve"/>
      <point x="518" y="-300"/>
      <point x="554" y="-300"/>
      <point x="599" y="-300" type="curve"/>
      <point x="599" y="-240"/>
      <point x="599" y="-289"/>
      <point x="599" y="-230" type="curve"/>
      <point x="481" y="-230"/>
      <point x="591" y="-230"/>
      <point x="472" y="-230" type="curve"/>
      <point x="472" y="-289"/>
      <point x="472" y="-240"/>
    </contour>
    <contour>
      <point x="481" y="412" type="curve"/>
      <point x="431" y="490"/>
      <point x="357" y="538"/>
      <point x="270" y="538" type="curve"/>
      <point x="117" y="538"/>
      <point x="51" y="419"/>
      <point x="51" y="264" type="curve"/>
      <point x="51" y="110"/>
      <point x="123" y="-5"/>
      <point x="274" y="-5" type="curve"/>
      <point x="364" y="-5"/>
      <point x="435" y="53"/>
      <point x="484" y="128" type="curve"/>
      <point x="455" y="162"/>
      <point x="476" y="136"/>
      <point x="448" y="169" type="curve"/>
      <point x="412" y="108"/>
      <point x="355" y="64"/>
      <point x="287" y="64" type="curve"/>
      <point x="182" y="64"/>
      <point x="141" y="155"/>
      <point x="141" y="268" type="curve"/>
      <point x="141" y="378"/>
      <point x="183" y="467"/>
      <point x="285" y="467" type="curve"/>
      <point x="350" y="467"/>
      <point x="406" y="434"/>
      <point x="452" y="367" type="curve"/>
      <point x="472" y="404"/>
      <point x="459" y="375"/>
    </contour>
    <contour>
      <point x="518" y="-300" type="curve"/>
      <point x="518" y="-18"/>
      <point x="518" y="251"/>
      <point x="518" y="533" type="curve"/>
      <point x="439" y="533"/>
      <point x="503" y="533"/>
      <point x="424" y="533" type="curve"/>
      <point x="424" y="251"/>
      <point x="424" y="-18"/>
      <point x="424" y="-300" type="curve"/>
      <point x="503" y="-300"/>
      <point x="439" y="-300"/>
    </contour>
  </outline>
</glyph>
<glyph name="r" format="1">
  <advance width="424"/>
  <unicode hex="0072"/>
  <outline>
    <contour>
      <point x="197" y="639" type="move" name="top"/>
    </contour>
    <contour>
      <point x="210" y="-21" type="move" name="bottom"/>
    </contour>
    <contour>
      <point x="180" y="0" type="curve"/>
      <point x="225" y="0"/>
      <point x="263" y="0"/>
      <point x="308" y="0" type="curve"/>
      <point x="308" y="60"/>
      <point x="308" y="10"/>
      <point x="308" y="70" type="curve"/>
      <point x="190" y="70"/>
      <point x="298" y="70"/>
      <point x="180" y="70" type="curve"/>
      <point x="180" y="10"/>
      <point x="180" y="60"/>
    </contour>
    <contour>
      <point x="180" y="70" type="curve"/>
      <point x="55" y="70"/>
      <point x="169" y="70"/>
      <point x="44" y="70" type="curve"/>
      <point x="44" y="10"/>
      <point x="44" y="60"/>
      <point x="44" y="0" type="curve"/>
      <point x="91" y="0"/>
      <point x="132" y="0"/>
      <point x="180" y="0" type="curve"/>
      <point x="180" y="60"/>
      <point x="180" y="10"/>
    </contour>
    <contour>
      <point x="179" y="533" type="curve"/>
      <point x="131" y="533"/>
      <point x="90" y="533"/>
      <point x="43" y="533" type="curve"/>
      <point x="43" y="473"/>
      <point x="43" y="523"/>
      <point x="43" y="463" type="curve"/>
      <point x="168" y="463"/>
      <point x="54" y="463"/>
      <point x="179" y="463" type="curve"/>
      <point x="179" y="523"/>
      <point x="179" y="473"/>
    </contour>
    <contour>
      <point x="225" y="0" type="curve"/>
      <point x="225" y="182"/>
      <point x="225" y="351"/>
      <point x="225" y="533" type="curve"/>
      <point x="148" y="533"/>
      <point x="211" y="533"/>
      <point x="135" y="533" type="curve"/>
      <point x="135" y="351"/>
      <point x="135" y="182"/>
      <point x="135" y="0" type="curve"/>
      <point x="211" y="0"/>
      <point x="148" y="0"/>
    </contour>
    <contour>
      <point x="204" y="319" type="curve"/>
      <point x="240" y="424"/>
      <point x="313" y="463"/>
      <point x="401" y="463" type="curve"/>
      <point x="401" y="528"/>
      <point x="401" y="473"/>
      <point x="401" y="538" type="curve"/>
      <point x="295" y="538"/>
      <point x="213" y="469"/>
      <point x="172" y="362" type="curve"/>
      <point x="200" y="329"/>
      <point x="178" y="350"/>
    </contour>
  </outline>
</glyph>
<glyph name="s" format="1">
  <advance width="477"/>
  <unicode hex="0073"/>
  <outline>
    <contour>
      <point x="238" y="639" type="move" name="top"/>
    </contour>
    <contour>
      <point x="267" y="-25" type="move" name="bottom"/>
    </contour>
    <contour>
      <point x="57" y="48" type="curve"/>
      <point x="118" y="16"/>
      <point x="174" y="-5"/>
      <point x="241" y="-5" type="curve"/>
      <point x="352" y="-5"/>
      <point x="427" y="45"/>
      <point x="427" y="149" type="curve"/>
      <point x="426" y="248"/>
      <point x="349" y="277"/>
      <point x="251" y="309" type="curve" smooth="yes"/>
      <point x="194" y="328"/>
      <point x="152" y="351"/>
      <point x="152" y="403" type="curve"/>
      <point x="152" y="442"/>
      <point x="184" y="466"/>
      <point x="232" y="466" type="curve"/>
      <point x="273" y="466"/>
      <point x="317" y="450"/>
      <point x="347" y="429" type="curve"/>
      <point x="386" y="488"/>
      <point x="349" y="434"/>
      <point x="388" y="492" type="curve"/>
      <point x="349" y="518"/>
      <point x="289" y="538"/>
      <point x="234" y="538" type="curve"/>
      <point x="136" y="538"/>
      <point x="71" y="492"/>
      <point x="71" y="402" type="curve"/>
      <point x="71" y="312"/>
      <point x="131" y="272"/>
      <point x="222" y="242" type="curve" smooth="yes"/>
      <point x="285" y="221"/>
      <point x="340" y="203"/>
      <point x="340" y="145" type="curve"/>
      <point x="340" y="97"/>
      <point x="302" y="68"/>
      <point x="249" y="68" type="curve"/>
      <point x="195" y="68"/>
      <point x="152" y="85"/>
      <point x="102" y="111" type="curve"/>
      <point x="57" y="48"/>
      <point x="103" y="111"/>
    </contour>
    <contour>
      <point x="316" y="492" type="curve"/>
      <point x="316" y="367"/>
      <point x="316" y="493"/>
      <point x="316" y="368" type="curve"/>
      <point x="388" y="368"/>
      <point x="316" y="368"/>
      <point x="388" y="368" type="curve"/>
      <point x="388" y="493"/>
      <point x="388" y="367"/>
      <point x="388" y="492" type="curve"/>
      <point x="321" y="492"/>
      <point x="383" y="492"/>
    </contour>
    <contour>
      <point x="128" y="48" type="curve"/>
      <point x="128" y="174"/>
      <point x="128" y="48"/>
      <point x="128" y="175" type="curve"/>
      <point x="57" y="175"/>
      <point x="128" y="175"/>
      <point x="57" y="175" type="curve"/>
      <point x="57" y="48"/>
      <point x="57" y="174"/>
      <point x="57" y="48" type="curve"/>
      <point x="128" y="48"/>
      <point x="57" y="48"/>
    </contour>
  </outline>
</glyph>
<glyph name="t" format="1">
  <advance width="380"/>
  <unicode hex="0074"/>
  <outline>
    <contour>
      <point x="273" y="-23" type="move" name="bottom"/>
    </contour>
    <contour>
      <point x="16" y="463" type="curve"/>
      <point x="356" y="463" type="line"/>
      <point x="356" y="533"/>
      <point x="356" y="463"/>
      <point x="356" y="533" type="curve"/>
      <point x="16" y="533" type="line"/>
      <point x="16" y="463"/>
      <point x="16" y="533"/>
    </contour>
    <contour>
      <point x="327" y="90" type="curve"/>
      <point x="304" y="76"/>
      <point x="287" y="68"/>
      <point x="261" y="68" type="curve"/>
      <point x="212" y="68"/>
      <point x="197" y="105"/>
      <point x="197" y="161" type="curve"/>
      <point x="197" y="682" type="line"/>
      <point x="138" y="645"/>
      <point x="167" y="661"/>
      <point x="108" y="624" type="curve"/>
      <point x="108" y="158" type="line"/>
      <point x="108" y="54"/>
      <point x="153" y="-6"/>
      <point x="249" y="-6" type="curve"/>
      <point x="294" y="-6"/>
      <point x="324" y="8"/>
      <point x="361" y="28" type="curve"/>
      <point x="327" y="90"/>
      <point x="361" y="28"/>
    </contour>
  </outline>
</glyph>
<glyph name="u" format="1">
  <advance width="627"/>
  <unicode hex="0075"/>
  <outline>
    <contour>
      <point x="293" y="639" type="move" name="top"/>
    </contour>
    <contour>
      <point x="513" y="4" type="move" name="bottom"/>
    </contour>
    <contour>
      <point x="474" y="533" type="curve"/>
      <point x="427" y="533"/>
      <point x="384" y="533"/>
      <point x="337" y="533" type="curve"/>
      <point x="337" y="474"/>
      <point x="337" y="522"/>
      <point x="337" y="463" type="curve"/>
      <point x="463" y="463"/>
      <point x="349" y="463"/>
      <point x="474" y="463" type="curve"/>
      <point x="474" y="522"/>
      <point x="474" y="474"/>
    </contour>
    <contour>
      <point x="151" y="533" type="curve"/>
      <point x="104" y="533"/>
      <point x="61" y="533"/>
      <point x="14" y="533" type="curve"/>
      <point x="14" y="474"/>
      <point x="14" y="522"/>
      <point x="14" y="463" type="curve"/>
      <point x="139" y="463"/>
      <point x="26" y="463"/>
      <point x="151" y="463" type="curve"/>
      <point x="151" y="522"/>
      <point x="151" y="474"/>
    </contour>
    <contour>
      <point x="474" y="0" type="curve"/>
      <point x="518" y="0"/>
      <point x="557" y="0"/>
      <point x="601" y="0" type="curve"/>
      <point x="601" y="59"/>
      <point x="601" y="11"/>
      <point x="601" y="70" type="curve"/>
      <point x="484" y="70"/>
      <point x="591" y="70"/>
      <point x="474" y="70" type="curve"/>
      <point x="474" y="11"/>
      <point x="474" y="59"/>
    </contour>
    <contour>
      <point x="519" y="0" type="curve"/>
      <point x="519" y="180"/>
      <point x="519" y="353"/>
      <point x="519" y="533" type="curve"/>
      <point x="443" y="533"/>
      <point x="504" y="533"/>
      <point x="429" y="533" type="curve"/>
      <point x="429" y="353"/>
      <point x="429" y="180"/>
      <point x="429" y="0" type="curve"/>
      <point x="504" y="0"/>
      <point x="443" y="0"/>
    </contour>
    <contour>
      <point x="448" y="207" type="curve"/>
      <point x="421" y="137"/>
      <point x="373" y="67"/>
      <point x="304" y="67" type="curve"/>
      <point x="226" y="67"/>
      <point x="196" y="122"/>
      <point x="196" y="205" type="curve"/>
      <point x="196" y="315"/>
      <point x="196" y="422"/>
      <point x="196" y="533" type="curve"/>
      <point x="120" y="533"/>
      <point x="181" y="533"/>
      <point x="106" y="533" type="curve"/>
      <point x="106" y="421"/>
      <point x="106" y="313"/>
      <point x="106" y="201" type="curve"/>
      <point x="106" y="75"/>
      <point x="163" y="-5"/>
      <point x="291" y="-5" type="curve"/>
      <point x="387" y="-5"/>
      <point x="450" y="75"/>
      <point x="486" y="174" type="curve"/>
      <point x="454" y="200"/>
      <point x="480" y="182"/>
    </contour>
  </outline>
</glyph>
<glyph name="v" format="1">
  <advance width="620"/>
  <unicode hex="0076"/>
  <outline>
    <contour>
      <point x="132" y="533" type="curve"/>
      <point x="90" y="533"/>
      <point x="52" y="533"/>
      <point x="12" y="533" type="curve"/>
      <point x="12" y="463"/>
      <point x="12" y="533"/>
      <point x="12" y="463" type="curve"/>
      <point x="135" y="463"/>
      <point x="8" y="463"/>
      <point x="132" y="463" type="curve"/>
      <point x="132" y="533"/>
      <point x="132" y="463"/>
    </contour>
    <contour>
      <point x="132" y="463" type="curve"/>
      <point x="261" y="463"/>
      <point x="129" y="463"/>
      <point x="258" y="463" type="curve"/>
      <point x="258" y="533"/>
      <point x="258" y="463"/>
      <point x="258" y="533" type="curve"/>
      <point x="215" y="533"/>
      <point x="175" y="533"/>
      <point x="132" y="533" type="curve"/>
      <point x="132" y="463"/>
      <point x="132" y="533"/>
    </contour>
    <contour>
      <point x="496" y="533" type="curve"/>
      <point x="452" y="533"/>
      <point x="410" y="533"/>
      <point x="367" y="533" type="curve"/>
      <point x="367" y="463"/>
      <point x="367" y="533"/>
      <point x="367" y="463" type="curve"/>
      <point x="499" y="463"/>
      <point x="363" y="463"/>
      <point x="496" y="463" type="curve"/>
      <point x="496" y="533"/>
      <point x="496" y="463"/>
    </contour>
    <contour>
      <point x="496" y="463" type="curve"/>
      <point x="617" y="463"/>
      <point x="493" y="463"/>
      <point x="614" y="463" type="curve"/>
      <point x="614" y="533"/>
      <point x="614" y="463"/>
      <point x="614" y="533" type="curve"/>
      <point x="574" y="533"/>
      <point x="537" y="533"/>
      <point x="496" y="533" type="curve"/>
      <point x="496" y="463"/>
      <point x="496" y="533"/>
    </contour>
    <contour>
      <point x="74" y="533" type="curve"/>
      <point x="136" y="355"/>
      <point x="197" y="178"/>
      <point x="258" y="0" type="curve"/>
      <point x="344" y="0"/>
      <point x="258" y="0"/>
      <point x="344" y="0" type="curve"/>
      <point x="283" y="177"/>
      <point x="227" y="356"/>
      <point x="166" y="533" type="curve"/>
      <point x="74" y="533"/>
      <point x="166" y="533"/>
    </contour>
    <contour>
      <point x="462" y="533" type="curve"/>
      <point x="274" y="0" type="line"/>
      <point x="361" y="0"/>
      <point x="274" y="0"/>
      <point x="361" y="0" type="curve"/>
      <point x="425" y="178"/>
      <point x="489" y="355"/>
      <point x="553" y="533" type="curve"/>
      <point x="462" y="533"/>
      <point x="553" y="533"/>
    </contour>
  </outline>
</glyph>
<glyph name="w" format="1">
  <advance width="906"/>
  <unicode hex="0077"/>
  <outline>
    <contour>
      <point x="771" y="463" type="curve"/>
      <point x="900" y="463"/>
      <point x="767" y="463"/>
      <point x="898" y="463" type="curve"/>
      <point x="898" y="533"/>
      <point x="898" y="463"/>
      <point x="898" y="533" type="curve"/>
      <point x="855" y="533"/>
      <point x="814" y="533"/>
      <point x="771" y="533" type="curve"/>
      <point x="771" y="463"/>
      <point x="771" y="533"/>
    </contour>
    <contour>
      <point x="771" y="533" type="curve"/>
      <point x="727" y="533"/>
      <point x="692" y="533"/>
      <point x="648" y="533" type="curve"/>
      <point x="648" y="463"/>
      <point x="648" y="533"/>
      <point x="648" y="463" type="curve"/>
      <point x="780" y="463"/>
      <point x="639" y="463"/>
      <point x="771" y="463" type="curve"/>
      <point x="771" y="533"/>
      <point x="771" y="463"/>
    </contour>
    <contour>
      <point x="137" y="533" type="curve"/>
      <point x="94" y="533"/>
      <point x="53" y="533"/>
      <point x="10" y="533" type="curve"/>
      <point x="10" y="463"/>
      <point x="10" y="533"/>
      <point x="10" y="463" type="curve"/>
      <point x="140" y="463"/>
      <point x="6" y="463"/>
      <point x="137" y="463" type="curve"/>
      <point x="137" y="533"/>
      <point x="137" y="463"/>
    </contour>
    <contour>
      <point x="137" y="463" type="curve"/>
      <point x="266" y="463"/>
      <point x="131" y="463"/>
      <point x="260" y="463" type="curve"/>
      <point x="260" y="533"/>
      <point x="260" y="463"/>
      <point x="260" y="533" type="curve"/>
      <point x="217" y="533"/>
      <point x="179" y="533"/>
      <point x="137" y="533" type="curve"/>
      <point x="137" y="463"/>
      <point x="137" y="533"/>
    </contour>
    <contour>
      <point x="318" y="0" type="curve"/>
      <point x="379" y="178"/>
      <point x="439" y="355"/>
      <point x="499" y="533" type="curve"/>
      <point x="415" y="533"/>
      <point x="499" y="533"/>
      <point x="415" y="533" type="curve"/>
      <point x="357" y="355"/>
      <point x="297" y="178"/>
      <point x="238" y="0" type="curve"/>
      <point x="318" y="0"/>
      <point x="238" y="0"/>
    </contour>
    <contour>
      <point x="748" y="533" type="curve"/>
      <point x="693" y="355"/>
      <point x="638" y="178"/>
      <point x="584" y="0" type="curve"/>
      <point x="664" y="0"/>
      <point x="584" y="0"/>
      <point x="664" y="0" type="curve"/>
      <point x="720" y="178"/>
      <point x="776" y="355"/>
      <point x="832" y="533" type="curve"/>
      <point x="748" y="533"/>
      <point x="832" y="533"/>
    </contour>
    <contour>
      <point x="421" y="533" type="curve"/>
      <point x="474" y="355"/>
      <point x="528" y="178"/>
      <point x="582" y="0" type="curve"/>
      <point x="663" y="0"/>
      <point x="582" y="0"/>
      <point x="663" y="0" type="curve"/>
      <point x="610" y="178"/>
      <point x="556" y="355"/>
      <point x="503" y="533" type="curve"/>
      <point x="421" y="533"/>
      <point x="503" y="533"/>
    </contour>
    <contour>
      <point x="76" y="533" type="curve"/>
      <point x="129" y="355"/>
      <point x="184" y="178"/>
      <point x="237" y="0" type="curve"/>
      <point x="317" y="0"/>
      <point x="237" y="0"/>
      <point x="317" y="0" type="curve"/>
      <point x="265" y="178"/>
      <point x="212" y="355"/>
      <point x="159" y="533" type="curve"/>
      <point x="76" y="533"/>
      <point x="159" y="533"/>
    </contour>
  </outline>
</glyph>
<glyph name="x" format="1">
  <advance width="616"/>
  <unicode hex="0078"/>
  <outline>
    <contour>
      <point x="124" y="70" type="curve"/>
      <point x="11" y="70"/>
      <point x="129" y="70"/>
      <point x="16" y="70" type="curve"/>
      <point x="16" y="0"/>
      <point x="16" y="70"/>
      <point x="16" y="0" type="curve"/>
      <point x="53" y="0"/>
      <point x="86" y="0"/>
      <point x="124" y="0" type="curve"/>
      <point x="124" y="70"/>
      <point x="124" y="0"/>
    </contour>
    <contour>
      <point x="505" y="70" type="curve"/>
      <point x="355" y="70"/>
      <point x="506" y="70"/>
      <point x="357" y="70" type="curve"/>
      <point x="357" y="0"/>
      <point x="357" y="70"/>
      <point x="357" y="0" type="curve"/>
      <point x="406" y="0"/>
      <point x="454" y="0"/>
      <point x="505" y="0" type="curve"/>
      <point x="505" y="70"/>
      <point x="505" y="0"/>
    </contour>
    <contour>
      <point x="497" y="0" type="curve"/>
      <point x="534" y="0"/>
      <point x="571" y="0"/>
      <point x="608" y="0" type="curve"/>
      <point x="608" y="70"/>
      <point x="608" y="0"/>
      <point x="608" y="70" type="curve"/>
      <point x="496" y="70"/>
      <point x="610" y="70"/>
      <point x="497" y="70" type="curve"/>
      <point x="497" y="0"/>
      <point x="497" y="70"/>
    </contour>
    <contour>
      <point x="116" y="0" type="curve"/>
      <point x="167" y="0"/>
      <point x="114" y="0"/>
      <point x="264" y="0" type="curve"/>
      <point x="264" y="70"/>
      <point x="264" y="0"/>
      <point x="264" y="70" type="curve"/>
      <point x="114" y="70"/>
      <point x="267" y="70"/>
      <point x="116" y="70" type="curve"/>
      <point x="116" y="0"/>
      <point x="116" y="70"/>
    </contour>
    <contour>
      <point x="480" y="463" type="curve"/>
      <point x="597" y="463"/>
      <point x="481" y="463"/>
      <point x="598" y="463" type="curve"/>
      <point x="598" y="533"/>
      <point x="598" y="463"/>
      <point x="598" y="533" type="curve"/>
      <point x="558" y="533"/>
      <point x="518" y="533"/>
      <point x="480" y="533" type="curve"/>
      <point x="480" y="463"/>
      <point x="480" y="533"/>
    </contour>
    <contour>
      <point x="157" y="533" type="curve"/>
      <point x="116" y="533"/>
      <point x="78" y="533"/>
      <point x="37" y="533" type="curve"/>
      <point x="37" y="463"/>
      <point x="37" y="533"/>
      <point x="37" y="463" type="curve"/>
      <point x="159" y="463"/>
      <point x="35" y="463"/>
      <point x="157" y="463" type="curve"/>
      <point x="157" y="533"/>
      <point x="157" y="463"/>
    </contour>
    <contour>
      <point x="141" y="463" type="curve"/>
      <point x="284" y="463"/>
      <point x="129" y="463"/>
      <point x="273" y="463" type="curve"/>
      <point x="273" y="533"/>
      <point x="273" y="463"/>
      <point x="273" y="533" type="curve"/>
      <point x="225" y="533"/>
      <point x="188" y="533"/>
      <point x="141" y="533" type="curve"/>
      <point x="141" y="463"/>
      <point x="141" y="533"/>
    </contour>
    <contour>
      <point x="491" y="533" type="curve"/>
      <point x="443" y="533"/>
      <point x="406" y="533"/>
      <point x="359" y="533" type="curve"/>
      <point x="359" y="463"/>
      <point x="359" y="533"/>
      <point x="359" y="463" type="curve"/>
      <point x="502" y="463"/>
      <point x="348" y="463"/>
      <point x="491" y="463" type="curve"/>
      <point x="491" y="533"/>
      <point x="491" y="463"/>
    </contour>
    <contour>
      <point x="544" y="24" type="curve"/>
      <point x="487" y="107"/>
      <point x="222" y="450"/>
      <point x="165" y="533" type="curve"/>
      <point x="95" y="533"/>
      <point x="164" y="506"/>
      <point x="94" y="506" type="curve"/>
      <point x="150" y="423"/>
      <point x="411" y="83"/>
      <point x="467" y="0" type="curve"/>
      <point x="543" y="0"/>
      <point x="468" y="24"/>
    </contour>
    <contour>
      <point x="469" y="533" type="curve"/>
      <point x="412" y="450"/>
      <point x="136" y="110"/>
      <point x="79" y="27" type="curve"/>
      <point x="153" y="27"/>
      <point x="80" y="0"/>
      <point x="154" y="0" type="curve"/>
      <point x="211" y="83"/>
      <point x="483" y="424"/>
      <point x="540" y="507" type="curve"/>
      <point x="469" y="507"/>
      <point x="540" y="533"/>
    </contour>
  </outline>
</glyph>
<glyph name="braceleft" format="1">
  <advance width="290"/>
  <unicode hex="007B"/>
  <outline>
    <contour>
      <point x="242" y="-46" type="curve"/>
      <point x="193" y="-46"/>
      <point x="180" y="-5"/>
      <point x="180" y="48" type="curve"/>
      <point x="180" y="103"/>
      <point x="180" y="157"/>
      <point x="180" y="212" type="curve"/>
      <point x="180" y="309"/>
      <point x="131" y="377"/>
      <point x="38" y="377" type="curve"/>
      <point x="38" y="303"/>
      <point x="38" y="377"/>
      <point x="38" y="303" type="curve"/>
      <point x="83" y="303"/>
      <point x="99" y="267"/>
      <point x="99" y="218" type="curve"/>
      <point x="99" y="163"/>
      <point x="99" y="107"/>
      <point x="99" y="51" type="curve"/>
      <point x="99" y="-47"/>
      <point x="148" y="-115"/>
      <point x="242" y="-115" type="curve"/>
      <point x="242" y="-46"/>
      <point x="242" y="-115"/>
    </contour>
    <contour>
      <point x="242" y="795" type="curve"/>
      <point x="148" y="795"/>
      <point x="99" y="729"/>
      <point x="99" y="630" type="curve"/>
      <point x="99" y="573"/>
      <point x="99" y="516"/>
      <point x="99" y="459" type="curve"/>
      <point x="99" y="411"/>
      <point x="82" y="377"/>
      <point x="38" y="377" type="curve"/>
      <point x="38" y="303"/>
      <point x="38" y="377"/>
      <point x="38" y="303" type="curve"/>
      <point x="131" y="303"/>
      <point x="180" y="370"/>
      <point x="180" y="469" type="curve"/>
      <point x="180" y="523"/>
      <point x="180" y="576"/>
      <point x="180" y="630" type="curve"/>
      <point x="180" y="684"/>
      <point x="193" y="724"/>
      <point x="242" y="724" type="curve"/>
      <point x="242" y="795"/>
      <point x="242" y="724"/>
    </contour>
  </outline>
</glyph>
<glyph name="braceright" format="1">
  <advance width="291"/>
  <unicode hex="007D"/>
  <outline>
    <contour>
      <point x="49" y="-115" type="curve"/>
      <point x="143" y="-115"/>
      <point x="192" y="-48"/>
      <point x="192" y="51" type="curve"/>
      <point x="192" y="107"/>
      <point x="192" y="163"/>
      <point x="192" y="218" type="curve"/>
      <point x="192" y="267"/>
      <point x="207" y="303"/>
      <point x="253" y="303" type="curve"/>
      <point x="253" y="377"/>
      <point x="253" y="303"/>
      <point x="253" y="377" type="curve"/>
      <point x="160" y="377"/>
      <point x="110" y="308"/>
      <point x="110" y="212" type="curve"/>
      <point x="110" y="157"/>
      <point x="110" y="103"/>
      <point x="110" y="48" type="curve"/>
      <point x="110" y="-5"/>
      <point x="97" y="-46"/>
      <point x="49" y="-46" type="curve"/>
      <point x="49" y="-115"/>
      <point x="49" y="-46"/>
    </contour>
    <contour>
      <point x="49" y="724" type="curve"/>
      <point x="97" y="724"/>
      <point x="110" y="684"/>
      <point x="110" y="630" type="curve"/>
      <point x="110" y="576"/>
      <point x="110" y="523"/>
      <point x="110" y="469" type="curve"/>
      <point x="110" y="370"/>
      <point x="159" y="303"/>
      <point x="253" y="303" type="curve"/>
      <point x="253" y="377"/>
      <point x="253" y="303"/>
      <point x="253" y="377" type="curve"/>
      <point x="208" y="377"/>
      <point x="192" y="411"/>
      <point x="192" y="459" type="curve"/>
      <point x="192" y="516"/>
      <point x="192" y="573"/>
      <point x="192" y="630" type="curve"/>
      <point x="192" y="729"/>
      <point x="142" y="795"/>
      <point x="49" y="795" type="curve"/>
      <point x="49" y="724"/>
      <point x="49" y="795"/>
    </contour>
  </outline>
</glyph>
<glyph name="asciitilde" format="1">
  <advance width="642"/>
  <unicode hex="007E"/>
  <outline>
    <contour>
      <point x="499" y="363" type="curve"/>
      <point x="485" y="320"/>
      <point x="470" y="277"/>
      <point x="429" y="277" type="curve"/>
      <point x="394" y="277"/>
      <point x="375" y="289"/>
      <point x="348" y="312" type="curve"/>
      <point x="307" y="350"/>
      <point x="276" y="371"/>
      <point x="220" y="371" type="curve"/>
      <point x="133" y="371"/>
      <point x="95" y="320"/>
      <point x="72" y="235" type="curve"/>
      <point x="106" y="224"/>
      <point x="110" y="221"/>
      <point x="142" y="210" type="curve"/>
      <point x="155" y="258"/>
      <point x="173" y="298"/>
      <point x="218" y="298" type="curve"/>
      <point x="249" y="298"/>
      <point x="266" y="286"/>
      <point x="290" y="266" type="curve"/>
      <point x="335" y="227"/>
      <point x="367" y="205"/>
      <point x="427" y="205" type="curve"/>
      <point x="511" y="205"/>
      <point x="544" y="259"/>
      <point x="570" y="339" type="curve"/>
      <point x="536" y="350"/>
      <point x="533" y="352"/>
    </contour>
  </outline>
</glyph>
<glyph name="exclamdown" format="1">
  <advance width="249"/>
  <unicode hex="00A1"/>
  <outline>
    <contour>
      <point x="83" y="302" type="line"/>
      <point x="74" y="-191" type="line"/>
      <point x="175" y="-192" type="line"/>
      <point x="167" y="301" type="line"/>
    </contour>
    <contour>
      <point x="75" y="491" type="curve"/>
      <point x="75" y="460"/>
      <point x="96" y="445"/>
      <point x="126" y="444" type="curve"/>
      <point x="156" y="444"/>
      <point x="175" y="461"/>
      <point x="175" y="491" type="curve"/>
      <point x="77" y="491"/>
      <point x="172" y="491"/>
      <point x="75" y="491" type="curve"/>
      <point x="75" y="523"/>
      <point x="96" y="538"/>
      <point x="127" y="537" type="curve"/>
      <point x="157" y="537"/>
      <point x="176" y="522"/>
      <point x="175" y="491" type="curve"/>
      <point x="77" y="491"/>
      <point x="172" y="491"/>
    </contour>
  </outline>
</glyph>
<glyph name="cent" format="1">
  <advance width="608"/>
  <unicode hex="00A2"/>
  <outline>
    <contour>
      <point x="365" y="-53" type="curve"/>
      <point x="365" y="-13"/>
      <point x="365" y="27"/>
      <point x="365" y="67" type="curve"/>
      <point x="275" y="67"/>
      <point x="365" y="67"/>
      <point x="275" y="67" type="curve"/>
      <point x="275" y="27"/>
      <point x="275" y="-13"/>
      <point x="275" y="-53" type="curve"/>
      <point x="365" y="-53"/>
      <point x="275" y="-53"/>
    </contour>
    <contour>
      <point x="294" y="778" type="curve"/>
      <point x="294" y="742"/>
      <point x="294" y="706"/>
      <point x="294" y="670" type="curve"/>
      <point x="383" y="670"/>
      <point x="294" y="670"/>
      <point x="383" y="670" type="curve"/>
      <point x="383" y="706"/>
      <point x="383" y="742"/>
      <point x="383" y="778" type="curve"/>
      <point x="294" y="778"/>
      <point x="383" y="778"/>
    </contour>
    <contour>
      <point x="552" y="609" type="curve"/>
      <point x="485" y="662"/>
      <point x="428" y="683"/>
      <point x="345" y="683" type="curve"/>
      <point x="158" y="683"/>
      <point x="54" y="557"/>
      <point x="54" y="364" type="curve"/>
      <point x="54" y="180"/>
      <point x="140" y="49"/>
      <point x="316" y="49" type="curve"/>
      <point x="412" y="49"/>
      <point x="478" y="78"/>
      <point x="550" y="145" type="curve"/>
      <point x="497" y="200"/>
      <point x="550" y="145"/>
      <point x="497" y="200" type="curve"/>
      <point x="441" y="152"/>
      <point x="395" y="122"/>
      <point x="324" y="122" type="curve"/>
      <point x="197" y="122"/>
      <point x="144" y="228"/>
      <point x="144" y="368" type="curve"/>
      <point x="144" y="509"/>
      <point x="210" y="610"/>
      <point x="337" y="610" type="curve"/>
      <point x="404" y="610"/>
      <point x="448" y="591"/>
      <point x="504" y="551" type="curve"/>
      <point x="552" y="609"/>
      <point x="504" y="551"/>
    </contour>
    <contour>
      <point x="480" y="609" type="curve"/>
      <point x="480" y="488"/>
      <point x="480" y="596"/>
      <point x="480" y="475" type="curve"/>
      <point x="552" y="475"/>
      <point x="480" y="475"/>
      <point x="552" y="475" type="curve"/>
      <point x="552" y="596"/>
      <point x="552" y="488"/>
      <point x="552" y="609" type="curve"/>
      <point x="480" y="609"/>
      <point x="552" y="609"/>
    </contour>
  </outline>
</glyph>
<glyph name="currency" format="1">
  <advance width="631"/>
  <unicode hex="00A4"/>
  <outline>
    <contour>
      <point x="227" y="314" type="curve"/>
      <point x="227" y="377"/>
      <point x="254" y="427"/>
      <point x="314" y="427" type="curve"/>
      <point x="377" y="427"/>
      <point x="402" y="380"/>
      <point x="402" y="314" type="curve"/>
      <point x="402" y="248"/>
      <point x="379" y="195"/>
      <point x="319" y="195" type="curve"/>
      <point x="254" y="195"/>
      <point x="227" y="245"/>
      <point x="227" y="314" type="curve"/>
      <point x="138" y="314"/>
      <point x="231" y="314"/>
      <point x="141" y="314" type="curve"/>
      <point x="141" y="199"/>
      <point x="206" y="125"/>
      <point x="318" y="125" type="curve"/>
      <point x="428" y="125"/>
      <point x="490" y="203"/>
      <point x="490" y="316" type="curve"/>
      <point x="490" y="425"/>
      <point x="429" y="496"/>
      <point x="322" y="496" type="curve"/>
      <point x="209" y="496"/>
      <point x="141" y="426"/>
      <point x="141" y="314" type="curve"/>
      <point x="231" y="314"/>
      <point x="138" y="314"/>
    </contour>
    <contour>
      <point x="419" y="371" type="line"/>
      <point x="570" y="512" type="line"/>
      <point x="502" y="579" type="line"/>
      <point x="361" y="429" type="line"/>
    </contour>
    <contour>
      <point x="364" y="199" type="line"/>
      <point x="506" y="49" type="line"/>
      <point x="573" y="116" type="line"/>
      <point x="422" y="257" type="line"/>
    </contour>
    <contour>
      <point x="209" y="258" type="line"/>
      <point x="58" y="117" type="line"/>
      <point x="125" y="49" type="line"/>
      <point x="267" y="200" type="line"/>
    </contour>
    <contour>
      <point x="271" y="430" type="line"/>
      <point x="130" y="581" type="line"/>
      <point x="63" y="513" type="line"/>
      <point x="214" y="372" type="line"/>
    </contour>
  </outline>
</glyph>
<glyph name="yen" format="1">
  <advance width="709"/>
  <unicode hex="00A5"/>
  <outline>
    <contour>
      <point x="548" y="402" type="curve"/>
      <point x="486" y="402"/>
      <point x="423" y="402"/>
      <point x="361" y="402" type="curve"/>
      <point x="361" y="325"/>
      <point x="361" y="402"/>
      <point x="361" y="325" type="curve"/>
      <point x="423" y="325"/>
      <point x="486" y="325"/>
      <point x="548" y="325" type="curve"/>
      <point x="548" y="402"/>
      <point x="548" y="325"/>
    </contour>
    <contour>
      <point x="336" y="402" type="curve"/>
      <point x="274" y="402"/>
      <point x="213" y="402"/>
      <point x="153" y="402" type="curve"/>
      <point x="153" y="325"/>
      <point x="153" y="402"/>
      <point x="153" y="325" type="curve"/>
      <point x="213" y="325"/>
      <point x="274" y="325"/>
      <point x="336" y="325" type="curve"/>
      <point x="336" y="402"/>
      <point x="336" y="325"/>
    </contour>
    <contour>
      <point x="548" y="266" type="curve"/>
      <point x="416" y="266"/>
      <point x="284" y="266"/>
      <point x="153" y="266" type="curve"/>
      <point x="153" y="189"/>
      <point x="153" y="266"/>
      <point x="153" y="189" type="curve"/>
      <point x="284" y="189"/>
      <point x="416" y="189"/>
      <point x="548" y="189" type="curve"/>
      <point x="548" y="266"/>
      <point x="548" y="189"/>
    </contour>
    <contour>
      <point x="347" y="70" type="curve"/>
      <point x="204" y="70"/>
      <point x="350" y="70"/>
      <point x="207" y="70" type="curve"/>
      <point x="207" y="0"/>
      <point x="207" y="70"/>
      <point x="207" y="0" type="curve"/>
      <point x="255" y="0"/>
      <point x="299" y="0"/>
      <point x="347" y="0" type="curve"/>
      <point x="347" y="70"/>
      <point x="347" y="0"/>
    </contour>
    <contour>
      <point x="347" y="0" type="curve"/>
      <point x="395" y="0"/>
      <point x="440" y="0"/>
      <point x="487" y="0" type="curve"/>
      <point x="487" y="70"/>
      <point x="487" y="0"/>
      <point x="487" y="70" type="curve"/>
      <point x="344" y="70"/>
      <point x="491" y="70"/>
      <point x="347" y="70" type="curve"/>
      <point x="347" y="0"/>
      <point x="347" y="70"/>
    </contour>
    <contour>
      <point x="540" y="722" type="curve"/>
      <point x="493" y="722"/>
      <point x="450" y="722"/>
      <point x="404" y="722" type="curve"/>
      <point x="404" y="652"/>
      <point x="404" y="722"/>
      <point x="404" y="652" type="curve"/>
      <point x="542" y="652"/>
      <point x="400" y="652"/>
      <point x="540" y="652" type="curve"/>
      <point x="540" y="722"/>
      <point x="540" y="652"/>
    </contour>
    <contour>
      <point x="159" y="722" type="curve"/>
      <point x="117" y="722"/>
      <point x="77" y="722"/>
      <point x="36" y="722" type="curve"/>
      <point x="36" y="652"/>
      <point x="36" y="722"/>
      <point x="36" y="652" type="curve"/>
      <point x="162" y="652"/>
      <point x="32" y="652"/>
      <point x="159" y="652" type="curve"/>
      <point x="159" y="722"/>
      <point x="159" y="652"/>
    </contour>
    <contour>
      <point x="166" y="652" type="curve"/>
      <point x="305" y="652"/>
      <point x="163" y="652"/>
      <point x="302" y="652" type="curve"/>
      <point x="302" y="722"/>
      <point x="302" y="652"/>
      <point x="302" y="722" type="curve"/>
      <point x="256" y="722"/>
      <point x="212" y="722"/>
      <point x="166" y="722" type="curve"/>
      <point x="166" y="652"/>
      <point x="166" y="722"/>
    </contour>
    <contour>
      <point x="547" y="652" type="curve"/>
      <point x="675" y="652"/>
      <point x="544" y="652"/>
      <point x="673" y="652" type="curve"/>
      <point x="673" y="722"/>
      <point x="673" y="652"/>
      <point x="673" y="722" type="curve"/>
      <point x="630" y="722"/>
      <point x="590" y="722"/>
      <point x="547" y="722" type="curve"/>
      <point x="547" y="652"/>
      <point x="547" y="722"/>
    </contour>
    <contour>
      <point x="98" y="716" type="curve"/>
      <point x="166" y="590"/>
      <point x="232" y="464"/>
      <point x="299" y="337" type="curve"/>
      <point x="390" y="337"/>
      <point x="291" y="337"/>
      <point x="382" y="337" type="curve"/>
      <point x="317" y="467"/>
      <point x="252" y="593"/>
      <point x="185" y="722" type="curve"/>
      <point x="98" y="722"/>
      <point x="185" y="716"/>
    </contour>
    <contour>
      <point x="521" y="722" type="curve"/>
      <point x="449" y="591"/>
      <point x="380" y="467"/>
      <point x="308" y="337" type="curve"/>
      <point x="399" y="337"/>
      <point x="304" y="337"/>
      <point x="395" y="337" type="curve"/>
      <point x="467" y="464"/>
      <point x="536" y="590"/>
      <point x="608" y="717" type="curve"/>
      <point x="521" y="717"/>
      <point x="608" y="722"/>
    </contour>
    <contour>
      <point x="396" y="0" type="curve"/>
      <point x="396" y="115"/>
      <point x="396" y="226"/>
      <point x="396" y="341" type="curve"/>
      <point x="298" y="341"/>
      <point x="396" y="341"/>
      <point x="298" y="341" type="curve"/>
      <point x="298" y="226"/>
      <point x="298" y="115"/>
      <point x="298" y="0" type="curve"/>
      <point x="396" y="0"/>
      <point x="298" y="0"/>
    </contour>
  </outline>
</glyph>
<glyph name="section" format="1">
  <advance width="494"/>
  <unicode hex="00A7"/>
  <outline>
    <contour>
      <point x="394" y="704" type="curve"/>
      <point x="344" y="735"/>
      <point x="307" y="750"/>
      <point x="251" y="750" type="curve"/>
      <point x="153" y="750"/>
      <point x="89" y="699"/>
      <point x="89" y="609" type="curve"/>
      <point x="89" y="528"/>
      <point x="138" y="482"/>
      <point x="216" y="453" type="curve"/>
      <point x="280" y="429"/>
      <point x="349" y="419"/>
      <point x="349" y="360" type="curve"/>
      <point x="349" y="302"/>
      <point x="313" y="270"/>
      <point x="253" y="257" type="curve"/>
      <point x="306" y="201"/>
      <point x="253" y="257"/>
      <point x="306" y="201" type="curve"/>
      <point x="391" y="223"/>
      <point x="438" y="276"/>
      <point x="438" y="361" type="curve"/>
      <point x="437" y="457"/>
      <point x="356" y="486"/>
      <point x="260" y="519" type="curve"/>
      <point x="213" y="537"/>
      <point x="175" y="561"/>
      <point x="175" y="609" type="curve"/>
      <point x="175" y="652"/>
      <point x="202" y="680"/>
      <point x="248" y="680" type="curve"/>
      <point x="291" y="680"/>
      <point x="316" y="668"/>
      <point x="353" y="647" type="curve"/>
      <point x="394" y="704"/>
      <point x="353" y="647"/>
    </contour>
    <contour>
      <point x="187" y="521" type="curve"/>
      <point x="108" y="494"/>
      <point x="59" y="448"/>
      <point x="59" y="366" type="curve"/>
      <point x="59" y="274"/>
      <point x="128" y="237"/>
      <point x="219" y="206" type="curve"/>
      <point x="273" y="185"/>
      <point x="325" y="169"/>
      <point x="325" y="117" type="curve"/>
      <point x="325" y="71"/>
      <point x="295" y="42"/>
      <point x="248" y="42" type="curve"/>
      <point x="200" y="42"/>
      <point x="171" y="58"/>
      <point x="130" y="86" type="curve"/>
      <point x="82" y="34"/>
      <point x="130" y="86"/>
      <point x="82" y="34" type="curve"/>
      <point x="135" y="-9"/>
      <point x="181" y="-28"/>
      <point x="246" y="-28" type="curve"/>
      <point x="344" y="-28"/>
      <point x="413" y="22"/>
      <point x="413" y="118" type="curve"/>
      <point x="412" y="201"/>
      <point x="357" y="244"/>
      <point x="276" y="272" type="curve"/>
      <point x="212" y="295"/>
      <point x="149" y="309"/>
      <point x="149" y="368" type="curve"/>
      <point x="149" y="421"/>
      <point x="180" y="451"/>
      <point x="232" y="469" type="curve"/>
      <point x="187" y="521"/>
      <point x="232" y="469"/>
    </contour>
    <contour>
      <point x="153" y="34" type="curve"/>
      <point x="153" y="154"/>
      <point x="153" y="34"/>
      <point x="153" y="154" type="curve"/>
      <point x="82" y="154"/>
      <point x="153" y="154"/>
      <point x="82" y="154" type="curve"/>
      <point x="82" y="34"/>
      <point x="82" y="154"/>
      <point x="82" y="34" type="curve"/>
      <point x="153" y="34"/>
      <point x="82" y="34"/>
    </contour>
    <contour>
      <point x="394" y="584" type="curve"/>
      <point x="394" y="704"/>
      <point x="394" y="584"/>
      <point x="394" y="704" type="curve"/>
      <point x="322" y="704"/>
      <point x="394" y="704"/>
      <point x="322" y="704" type="curve"/>
      <point x="322" y="584"/>
      <point x="322" y="704"/>
      <point x="322" y="584" type="curve"/>
      <point x="394" y="584"/>
      <point x="322" y="584"/>
    </contour>
  </outline>
</glyph>
<glyph name="dieresis" format="1">
  <advance width="377"/>
  <unicode hex="00A8"/>
  <outline>
    <contour>
      <point x="169" y="613" type="move" name="_top"/>
    </contour>
    <contour>
      <point x="139" y="655" type="curve"/>
      <point x="139" y="686"/>
      <point x="118" y="702"/>
      <point x="87" y="702" type="curve"/>
      <point x="57" y="702"/>
      <point x="38" y="685"/>
      <point x="38" y="655" type="curve"/>
      <point x="136" y="655"/>
      <point x="41" y="655"/>
      <point x="139" y="655" type="curve"/>
      <point x="139" y="623"/>
      <point x="118" y="609"/>
      <point x="87" y="609" type="curve"/>
      <point x="57" y="609"/>
      <point x="38" y="624"/>
      <point x="38" y="655" type="curve"/>
      <point x="136" y="655"/>
      <point x="41" y="655"/>
    </contour>
    <contour>
      <point x="300" y="655" type="curve"/>
      <point x="300" y="686"/>
      <point x="279" y="702"/>
      <point x="249" y="702" type="curve"/>
      <point x="219" y="702"/>
      <point x="198" y="685"/>
      <point x="198" y="655" type="curve"/>
      <point x="297" y="655"/>
      <point x="202" y="655"/>
      <point x="300" y="655" type="curve"/>
      <point x="300" y="623"/>
      <point x="279" y="609"/>
      <point x="248" y="609" type="curve"/>
      <point x="219" y="609"/>
      <point x="198" y="624"/>
      <point x="198" y="655" type="curve"/>
      <point x="297" y="655"/>
      <point x="202" y="655"/>
    </contour>
  </outline>
</glyph>
<glyph name="ordfeminine" format="1">
  <advance width="429"/>
  <unicode hex="00AA"/>
  <outline>
    <contour>
      <point x="78" y="721" type="curve"/>
      <point x="78" y="672"/>
      <point x="78" y="703"/>
      <point x="78" y="654" type="curve"/>
      <point x="122" y="654"/>
      <point x="84" y="654"/>
      <point x="128" y="654" type="curve"/>
      <point x="128" y="703"/>
      <point x="128" y="672"/>
      <point x="128" y="721" type="curve"/>
      <point x="84" y="721"/>
      <point x="122" y="721"/>
    </contour>
    <contour>
      <point x="325" y="427" type="curve"/>
      <point x="325" y="513"/>
      <point x="325" y="586"/>
      <point x="325" y="672" type="curve"/>
      <point x="325" y="742"/>
      <point x="272" y="771"/>
      <point x="201" y="771" type="curve"/>
      <point x="147" y="771"/>
      <point x="108" y="750"/>
      <point x="78" y="721" type="curve"/>
      <point x="100" y="685"/>
      <point x="83" y="716"/>
      <point x="104" y="679" type="curve"/>
      <point x="125" y="700"/>
      <point x="152" y="720"/>
      <point x="192" y="720" type="curve"/>
      <point x="233" y="720"/>
      <point x="262" y="702"/>
      <point x="262" y="662" type="curve"/>
      <point x="262" y="579"/>
      <point x="262" y="509"/>
      <point x="262" y="427" type="curve"/>
      <point x="318" y="427"/>
      <point x="269" y="427"/>
    </contour>
    <contour>
      <point x="295" y="427" type="curve"/>
      <point x="320" y="427"/>
      <point x="341" y="427"/>
      <point x="366" y="427" type="curve"/>
      <point x="366" y="469"/>
      <point x="366" y="433"/>
      <point x="366" y="476" type="curve"/>
      <point x="311" y="476"/>
      <point x="350" y="476"/>
      <point x="295" y="476" type="curve"/>
      <point x="295" y="433"/>
      <point x="295" y="469"/>
    </contour>
    <contour>
      <point x="291" y="642" type="curve"/>
      <point x="248" y="637"/>
      <point x="221" y="635"/>
      <point x="178" y="629" type="curve"/>
      <point x="110" y="619"/>
      <point x="61" y="591"/>
      <point x="61" y="525" type="curve"/>
      <point x="61" y="459"/>
      <point x="103" y="423"/>
      <point x="171" y="423" type="curve"/>
      <point x="238" y="423"/>
      <point x="270" y="468"/>
      <point x="308" y="518" type="curve"/>
      <point x="281" y="541"/>
      <point x="304" y="522"/>
      <point x="277" y="545" type="curve"/>
      <point x="253" y="505"/>
      <point x="230" y="472"/>
      <point x="185" y="472" type="curve"/>
      <point x="146" y="472"/>
      <point x="123" y="492"/>
      <point x="123" y="528" type="curve"/>
      <point x="123" y="561"/>
      <point x="146" y="579"/>
      <point x="178" y="585" type="curve"/>
      <point x="223" y="591"/>
      <point x="249" y="594"/>
      <point x="294" y="600" type="curve"/>
      <point x="292" y="637"/>
      <point x="294" y="606"/>
    </contour>
  </outline>
</glyph>
<glyph name="guillemotleft" format="1">
  <advance width="549"/>
  <unicode hex="00AB"/>
  <outline>
    <contour>
      <point x="260" y="446" type="curve"/>
      <point x="233" y="427"/>
      <point x="87" y="343"/>
      <point x="60" y="324" type="curve"/>
      <point x="60" y="248"/>
      <point x="60" y="317"/>
      <point x="60" y="240" type="curve"/>
      <point x="87" y="258"/>
      <point x="233" y="347"/>
      <point x="260" y="365" type="curve"/>
      <point x="260" y="442"/>
      <point x="260" y="369"/>
    </contour>
    <contour>
      <point x="260" y="200" type="curve"/>
      <point x="233" y="218"/>
      <point x="87" y="306"/>
      <point x="60" y="324" type="curve"/>
      <point x="60" y="248"/>
      <point x="60" y="317"/>
      <point x="60" y="240" type="curve"/>
      <point x="87" y="221"/>
      <point x="233" y="138"/>
      <point x="260" y="120" type="curve"/>
      <point x="260" y="196"/>
      <point x="260" y="124"/>
    </contour>
    <contour>
      <point x="466" y="446" type="curve"/>
      <point x="440" y="427"/>
      <point x="294" y="343"/>
      <point x="267" y="324" type="curve"/>
      <point x="267" y="248"/>
      <point x="267" y="317"/>
      <point x="267" y="240" type="curve"/>
      <point x="294" y="258"/>
      <point x="440" y="347"/>
      <point x="466" y="365" type="curve"/>
      <point x="466" y="442"/>
      <point x="466" y="369"/>
    </contour>
    <contour>
      <point x="467" y="200" type="curve"/>
      <point x="440" y="218"/>
      <point x="294" y="306"/>
      <point x="267" y="324" type="curve"/>
      <point x="267" y="248"/>
      <point x="267" y="317"/>
      <point x="267" y="240" type="curve"/>
      <point x="294" y="221"/>
      <point x="440" y="138"/>
      <point x="467" y="120" type="curve"/>
      <point x="467" y="196"/>
      <point x="467" y="124"/>
    </contour>
  </outline>
</glyph>
<glyph name="logicalnot" format="1">
  <advance width="635"/>
  <unicode hex="00AC"/>
  <outline>
    <contour>
      <point x="91" y="274" type="curve"/>
      <point x="557" y="274" type="line"/>
      <point x="557" y="350"/>
      <point x="557" y="274"/>
      <point x="557" y="350" type="curve"/>
      <point x="91" y="350" type="line"/>
      <point x="91" y="274"/>
      <point x="91" y="350"/>
    </contour>
    <contour>
      <point x="557" y="145" type="curve"/>
      <point x="557" y="350" type="line"/>
      <point x="467" y="350"/>
      <point x="558" y="350"/>
      <point x="469" y="350" type="curve"/>
      <point x="469" y="145" type="line"/>
      <point x="558" y="145"/>
      <point x="467" y="145"/>
    </contour>
  </outline>
</glyph>
<glyph name="registered" format="1">
  <advance width="736"/>
  <unicode hex="00AE"/>
  <outline>
    <contour>
      <point x="125" y="321" type="curve"/>
      <point x="125" y="482"/>
      <point x="214" y="592"/>
      <point x="371" y="592" type="curve"/>
      <point x="526" y="592"/>
      <point x="612" y="480"/>
      <point x="612" y="320" type="curve"/>
      <point x="612" y="162"/>
      <point x="529" y="53"/>
      <point x="378" y="53" type="curve"/>
      <point x="220" y="53"/>
      <point x="125" y="159"/>
      <point x="125" y="321" type="curve"/>
      <point x="93" y="321"/>
      <point x="91" y="321"/>
      <point x="59" y="321" type="curve"/>
      <point x="59" y="126"/>
      <point x="180" y="0"/>
      <point x="375" y="0" type="curve"/>
      <point x="564" y="0"/>
      <point x="676" y="129"/>
      <point x="676" y="322" type="curve"/>
      <point x="676" y="516"/>
      <point x="561" y="645"/>
      <point x="371" y="645" type="curve"/>
      <point x="178" y="645"/>
      <point x="59" y="517"/>
      <point x="59" y="321" type="curve"/>
      <point x="91" y="321"/>
      <point x="93" y="321"/>
    </contour>
    <contour>
      <point x="447" y="145" type="curve"/>
      <point x="477" y="145"/>
      <point x="492" y="145"/>
      <point x="522" y="145" type="curve"/>
      <point x="522" y="202"/>
      <point x="522" y="145"/>
      <point x="522" y="202" type="curve"/>
      <point x="510" y="202"/>
      <point x="504" y="202"/>
      <point x="491" y="202" type="curve"/>
      <point x="452" y="189"/>
      <point x="469" y="212"/>
    </contour>
    <contour>
      <point x="340" y="501" type="curve"/>
      <point x="303" y="501"/>
      <point x="268" y="501"/>
      <point x="230" y="501" type="curve"/>
      <point x="230" y="442"/>
      <point x="230" y="501"/>
      <point x="230" y="442" type="curve"/>
      <point x="243" y="442"/>
      <point x="254" y="442"/>
      <point x="266" y="442" type="curve"/>
      <point x="340" y="501"/>
      <point x="266" y="442"/>
    </contour>
    <contour>
      <point x="340" y="202" type="curve"/>
      <point x="303" y="202"/>
      <point x="268" y="202"/>
      <point x="230" y="202" type="curve"/>
      <point x="230" y="145"/>
      <point x="230" y="202"/>
      <point x="230" y="145" type="curve"/>
      <point x="243" y="145"/>
      <point x="254" y="145"/>
      <point x="266" y="145" type="curve"/>
      <point x="340" y="202"/>
      <point x="266" y="145"/>
    </contour>
    <contour>
      <point x="266" y="145" type="curve"/>
      <point x="301" y="145"/>
      <point x="333" y="145"/>
      <point x="368" y="145" type="curve"/>
      <point x="368" y="202"/>
      <point x="368" y="145"/>
      <point x="368" y="202" type="curve"/>
      <point x="358" y="202"/>
      <point x="351" y="202"/>
      <point x="340" y="202" type="curve"/>
      <point x="266" y="145"/>
      <point x="340" y="202"/>
    </contour>
    <contour>
      <point x="355" y="315" type="curve"/>
      <point x="373" y="282"/>
      <point x="429" y="178"/>
      <point x="447" y="145" type="curve"/>
      <point x="494" y="180"/>
      <point x="467" y="157"/>
      <point x="491" y="202" type="curve"/>
      <point x="430" y="312" type="line"/>
      <point x="340" y="312"/>
      <point x="445" y="315"/>
    </contour>
    <contour>
      <point x="336" y="202" type="curve"/>
      <point x="336" y="301"/>
      <point x="336" y="402"/>
      <point x="336" y="501" type="curve"/>
      <point x="262" y="442"/>
      <point x="340" y="501"/>
      <point x="266" y="442" type="curve"/>
      <point x="266" y="343"/>
      <point x="266" y="243"/>
      <point x="266" y="145" type="curve"/>
      <point x="340" y="202"/>
      <point x="262" y="145"/>
    </contour>
    <contour>
      <point x="306" y="281" type="curve"/>
      <point x="322" y="281"/>
      <point x="340" y="281"/>
      <point x="357" y="281" type="curve"/>
      <point x="436" y="281"/>
      <point x="489" y="313"/>
      <point x="489" y="392" type="curve"/>
      <point x="489" y="461"/>
      <point x="442" y="501"/>
      <point x="373" y="501" type="curve"/>
      <point x="362" y="501"/>
      <point x="351" y="501"/>
      <point x="340" y="501" type="curve"/>
      <point x="266" y="442"/>
      <point x="340" y="501"/>
      <point x="266" y="442" type="curve"/>
      <point x="297" y="442"/>
      <point x="328" y="442"/>
      <point x="359" y="442" type="curve"/>
      <point x="396" y="442"/>
      <point x="420" y="425"/>
      <point x="420" y="389" type="curve"/>
      <point x="420" y="354"/>
      <point x="400" y="339"/>
      <point x="367" y="339" type="curve"/>
      <point x="347" y="339"/>
      <point x="326" y="339"/>
      <point x="306" y="339" type="curve"/>
      <point x="306" y="281"/>
      <point x="306" y="339"/>
    </contour>
  </outline>
</glyph>
<glyph name="macron" format="1">
  <advance width="299"/>
  <unicode hex="00AF"/>
  <outline>
    <contour>
      <point x="130" y="609" type="move" name="_top"/>
    </contour>
    <contour>
      <point x="228" y="678" type="curve"/>
      <point x="162" y="678"/>
      <point x="94" y="678"/>
      <point x="28" y="678" type="curve"/>
      <point x="28" y="609"/>
      <point x="28" y="678"/>
      <point x="28" y="609" type="curve"/>
      <point x="94" y="609"/>
      <point x="162" y="609"/>
      <point x="228" y="609" type="curve"/>
      <point x="228" y="678"/>
      <point x="228" y="609"/>
    </contour>
  </outline>
</glyph>
<glyph name="degree" format="1">
  <advance width="462"/>
  <unicode hex="00B0"/>
  <outline>
    <contour>
      <point x="400" y="515" type="curve"/>
      <point x="400" y="629"/>
      <point x="342" y="707"/>
      <point x="230" y="707" type="curve"/>
      <point x="120" y="707"/>
      <point x="62" y="629"/>
      <point x="62" y="515" type="curve"/>
      <point x="110" y="515"/>
      <point x="91" y="515"/>
      <point x="138" y="515" type="curve"/>
      <point x="138" y="587"/>
      <point x="162" y="642"/>
      <point x="229" y="642" type="curve"/>
      <point x="295" y="642"/>
      <point x="322" y="588"/>
      <point x="322" y="515" type="curve"/>
      <point x="322" y="440"/>
      <point x="299" y="383"/>
      <point x="231" y="383" type="curve"/>
      <point x="162" y="383"/>
      <point x="138" y="441"/>
      <point x="138" y="515" type="curve"/>
      <point x="91" y="515"/>
      <point x="110" y="515"/>
      <point x="62" y="515" type="curve"/>
      <point x="62" y="398"/>
      <point x="118" y="317"/>
      <point x="230" y="317" type="curve"/>
      <point x="343" y="317"/>
      <point x="400" y="398"/>
    </contour>
  </outline>
</glyph>
<glyph name="plusminus" format="1">
  <advance width="668"/>
  <unicode hex="00B1"/>
  <outline>
    <contour>
      <point x="65" y="33" type="line"/>
      <point x="604" y="33" type="line"/>
      <point x="604" y="110" type="line"/>
      <point x="65" y="110" type="line"/>
    </contour>
    <contour>
      <point x="65" y="274" type="curve"/>
      <point x="604" y="274" type="line"/>
      <point x="604" y="350"/>
      <point x="604" y="274"/>
      <point x="604" y="350" type="curve"/>
      <point x="65" y="350" type="line"/>
      <point x="65" y="274"/>
      <point x="65" y="350"/>
    </contour>
    <contour>
      <point x="377" y="33" type="curve"/>
      <point x="377" y="584" type="line"/>
      <point x="287" y="584"/>
      <point x="382" y="584"/>
      <point x="292" y="584" type="curve"/>
      <point x="292" y="33" type="line"/>
      <point x="382" y="33"/>
      <point x="287" y="33"/>
    </contour>
  </outline>
</glyph>
<glyph name="threesuperior" format="1">
  <advance width="411"/>
  <unicode hex="00B3"/>
  <outline>
    <contour>
      <point x="206" y="749" type="move" name="_top"/>
    </contour>
    <contour>
      <point x="197" y="318" type="move" name="_bottom"/>
    </contour>
    <contour>
      <point x="112" y="652" type="curve"/>
      <point x="132" y="673"/>
      <point x="156" y="689"/>
      <point x="184" y="689" type="curve"/>
      <point x="226" y="689"/>
      <point x="254" y="668"/>
      <point x="254" y="628" type="curve"/>
      <point x="254" y="582"/>
      <point x="202" y="567"/>
      <point x="147" y="564" type="curve"/>
      <point x="147" y="512"/>
      <point x="147" y="564"/>
      <point x="147" y="512" type="curve"/>
      <point x="248" y="514"/>
      <point x="331" y="543"/>
      <point x="331" y="633" type="curve"/>
      <point x="331" y="711"/>
      <point x="275" y="749"/>
      <point x="192" y="749" type="curve"/>
      <point x="143" y="749"/>
      <point x="99" y="727"/>
      <point x="68" y="693" type="curve"/>
      <point x="112" y="652"/>
      <point x="68" y="693"/>
    </contour>
    <contour>
      <point x="66" y="353" type="curve"/>
      <point x="101" y="331"/>
      <point x="136" y="318"/>
      <point x="177" y="318" type="curve"/>
      <point x="276" y="315"/>
      <point x="347" y="353"/>
      <point x="345" y="444" type="curve"/>
      <point x="345" y="537"/>
      <point x="253" y="552"/>
      <point x="147" y="555" type="curve"/>
      <point x="147" y="510"/>
      <point x="147" y="555"/>
      <point x="147" y="510" type="curve"/>
      <point x="212" y="506"/>
      <point x="267" y="491"/>
      <point x="267" y="442" type="curve"/>
      <point x="267" y="397"/>
      <point x="233" y="376"/>
      <point x="184" y="377" type="curve"/>
      <point x="156" y="377"/>
      <point x="129" y="384"/>
      <point x="102" y="400" type="curve"/>
      <point x="66" y="353"/>
      <point x="102" y="400"/>
    </contour>
  </outline>
</glyph>
<glyph name="acute" format="1">
  <advance width="364"/>
  <unicode hex="00B4"/>
  <outline>
    <contour>
      <point x="80" y="591" type="move" name="_top"/>
    </contour>
    <contour>
      <point x="119" y="590" type="line"/>
      <point x="244" y="756" type="line"/>
      <point x="131" y="756" type="line"/>
      <point x="32" y="590" type="line"/>
    </contour>
  </outline>
</glyph>
<glyph name="periodcentered" format="1">
  <advance width="240"/>
  <unicode hex="00B7"/>
  <outline>
    <contour>
      <point x="170" y="440" type="curve"/>
      <point x="170" y="471"/>
      <point x="150" y="487"/>
      <point x="119" y="487" type="curve"/>
      <point x="89" y="487"/>
      <point x="69" y="470"/>
      <point x="69" y="440" type="curve"/>
      <point x="167" y="440"/>
      <point x="72" y="440"/>
      <point x="170" y="440" type="curve"/>
      <point x="170" y="408"/>
      <point x="150" y="394"/>
      <point x="118" y="394" type="curve"/>
      <point x="89" y="394"/>
      <point x="69" y="409"/>
      <point x="69" y="440" type="curve"/>
      <point x="167" y="440"/>
      <point x="72" y="440"/>
    </contour>
  </outline>
</glyph>
<glyph name="cedilla" format="1">
  <advance width="351"/>
  <unicode hex="00B8"/>
  <outline>
    <contour>
      <point x="193" y="50" type="move" name="_bottom"/>
    </contour>
    <contour>
      <point x="132" y="99" type="curve"/>
      <point x="119" y="75"/>
      <point x="86" y="10"/>
      <point x="74" y="-14" type="curve"/>
      <point x="135" y="-70"/>
      <point x="74" y="-14"/>
      <point x="135" y="-70" type="curve"/>
      <point x="150" y="-43"/>
      <point x="188" y="23"/>
      <point x="201" y="50" type="curve"/>
      <point x="132" y="99"/>
      <point x="201" y="50"/>
    </contour>
    <contour>
      <point x="135" y="-70" type="curve"/>
      <point x="144" y="-64"/>
      <point x="151" y="-61"/>
      <point x="161" y="-61" type="curve"/>
      <point x="179" y="-61"/>
      <point x="189" y="-73"/>
      <point x="189" y="-93" type="curve"/>
      <point x="189" y="-116"/>
      <point x="171" y="-127"/>
      <point x="148" y="-127" type="curve"/>
      <point x="126" y="-127"/>
      <point x="109" y="-123"/>
      <point x="88" y="-111" type="curve"/>
      <point x="57" y="-162"/>
      <point x="88" y="-111"/>
      <point x="57" y="-162" type="curve"/>
      <point x="85" y="-180"/>
      <point x="110" y="-188"/>
      <point x="143" y="-188" type="curve"/>
      <point x="209" y="-188"/>
      <point x="255" y="-155"/>
      <point x="255" y="-91" type="curve"/>
      <point x="255" y="-31"/>
      <point x="217" y="7"/>
      <point x="157" y="7" type="curve"/>
      <point x="125" y="7"/>
      <point x="103" y="1"/>
      <point x="74" y="-14" type="curve"/>
      <point x="135" y="-70"/>
      <point x="74" y="-14"/>
    </contour>
  </outline>
</glyph>
<glyph name="onesuperior" format="1">
  <advance width="362"/>
  <unicode hex="00B9"/>
  <outline>
    <contour>
      <point x="200" y="740" type="move" name="_top"/>
    </contour>
    <contour>
      <point x="207" y="325" type="move" name="_bottom"/>
    </contour>
    <contour>
      <point x="167" y="324" type="curve"/>
      <point x="212" y="324"/>
      <point x="255" y="324"/>
      <point x="300" y="324" type="curve"/>
      <point x="300" y="386"/>
      <point x="300" y="323"/>
      <point x="300" y="385" type="curve"/>
      <point x="282" y="385"/>
      <point x="264" y="385"/>
      <point x="245" y="385" type="curve"/>
      <point x="167" y="323"/>
      <point x="245" y="386"/>
    </contour>
    <contour>
      <point x="245" y="385" type="curve"/>
      <point x="199" y="385"/>
      <point x="155" y="385"/>
      <point x="109" y="385" type="curve"/>
      <point x="109" y="323"/>
      <point x="109" y="386"/>
      <point x="109" y="324" type="curve"/>
      <point x="129" y="324"/>
      <point x="147" y="324"/>
      <point x="167" y="324" type="curve"/>
      <point x="245" y="386"/>
      <point x="167" y="323"/>
    </contour>
    <contour>
      <point x="99" y="596" type="line"/>
      <point x="244" y="737" type="line"/>
      <point x="167" y="742" type="line"/>
      <point x="57" y="640" type="line"/>
    </contour>
    <contour>
      <point x="245" y="385" type="curve"/>
      <point x="245" y="742" type="line"/>
      <point x="167" y="742" type="line"/>
      <point x="167" y="324" type="line"/>
      <point x="245" y="386"/>
      <point x="167" y="323"/>
    </contour>
  </outline>
</glyph>
<glyph name="ordmasculine" format="1">
  <advance width="419"/>
  <unicode hex="00BA"/>
  <outline>
    <contour>
      <point x="118" y="600" type="curve"/>
      <point x="118" y="668"/>
      <point x="144" y="721"/>
      <point x="208" y="721" type="curve"/>
      <point x="272" y="721"/>
      <point x="298" y="668"/>
      <point x="298" y="599" type="curve"/>
      <point x="298" y="526"/>
      <point x="274" y="472"/>
      <point x="214" y="472" type="curve"/>
      <point x="144" y="472"/>
      <point x="118" y="526"/>
      <point x="118" y="600" type="curve"/>
      <point x="94" y="600"/>
      <point x="84" y="600"/>
      <point x="58" y="600" type="curve"/>
      <point x="58" y="493"/>
      <point x="109" y="421"/>
      <point x="211" y="421" type="curve"/>
      <point x="309" y="421"/>
      <point x="361" y="492"/>
      <point x="361" y="599" type="curve"/>
      <point x="361" y="702"/>
      <point x="310" y="770"/>
      <point x="211" y="770" type="curve"/>
      <point x="109" y="770"/>
      <point x="58" y="702"/>
      <point x="58" y="600" type="curve"/>
      <point x="84" y="600"/>
      <point x="94" y="600"/>
    </contour>
  </outline>
</glyph>
<glyph name="onequarter" format="1">
  <advance width="897"/>
  <unicode hex="00BC"/>
  <outline>
    <contour>
      <point x="307" y="-62" type="line"/>
      <point x="684" y="730" type="line"/>
      <point x="600" y="730" type="line"/>
      <point x="223" y="-62" type="line"/>
    </contour>
    <contour>
      <point x="148" y="315" type="curve"/>
      <point x="193" y="315"/>
      <point x="236" y="315"/>
      <point x="282" y="315" type="curve"/>
      <point x="282" y="375"/>
      <point x="282" y="313"/>
      <point x="282" y="374" type="curve"/>
      <point x="262" y="374"/>
      <point x="245" y="374"/>
      <point x="226" y="374" type="curve"/>
      <point x="148" y="313"/>
      <point x="226" y="375"/>
    </contour>
    <contour>
      <point x="226" y="374" type="curve"/>
      <point x="181" y="374"/>
      <point x="137" y="374"/>
      <point x="90" y="374" type="curve"/>
      <point x="90" y="313"/>
      <point x="90" y="375"/>
      <point x="90" y="315" type="curve"/>
      <point x="110" y="315"/>
      <point x="128" y="315"/>
      <point x="148" y="315" type="curve"/>
      <point x="226" y="375"/>
      <point x="148" y="313"/>
    </contour>
    <contour>
      <point x="80" y="585" type="line"/>
      <point x="226" y="727" type="line"/>
      <point x="148" y="732" type="line"/>
      <point x="39" y="630" type="line"/>
    </contour>
    <contour>
      <point x="226" y="374" type="curve"/>
      <point x="226" y="732" type="line"/>
      <point x="148" y="732" type="line"/>
      <point x="148" y="315" type="line"/>
      <point x="226" y="375"/>
      <point x="148" y="313"/>
    </contour>
    <contour>
      <point x="864" y="115" type="line"/>
      <point x="519" y="115" type="line"/>
      <point x="519" y="56" type="line"/>
      <point x="864" y="56" type="line"/>
    </contour>
    <contour>
      <point x="547" y="60" type="line"/>
      <point x="766" y="362" type="line"/>
      <point x="707" y="375" type="line"/>
      <point x="519" y="115" type="line"/>
    </contour>
    <contour>
      <point x="785" y="-61" type="line"/>
      <point x="785" y="375" type="line"/>
      <point x="707" y="375" type="line"/>
      <point x="707" y="-61" type="line"/>
    </contour>
    <contour>
      <point x="745" y="-6" type="line"/>
      <point x="647" y="-6" type="line"/>
      <point x="647" y="-62" type="line"/>
      <point x="745" y="-62" type="line"/>
    </contour>
    <contour>
      <point x="745" y="-62" type="line"/>
      <point x="844" y="-62" type="line"/>
      <point x="844" y="-6" type="line"/>
      <point x="745" y="-6" type="line"/>
    </contour>
  </outline>
</glyph>
<glyph name="threequarters" format="1">
  <advance width="915"/>
  <unicode hex="00BE"/>
  <outline>
    <contour>
      <point x="330" y="-62" type="line"/>
      <point x="708" y="730" type="line"/>
      <point x="623" y="730" type="line"/>
      <point x="246" y="-62" type="line"/>
    </contour>
    <contour>
      <point x="89" y="633" type="curve"/>
      <point x="111" y="654"/>
      <point x="134" y="670"/>
      <point x="161" y="670" type="curve"/>
      <point x="204" y="670"/>
      <point x="231" y="649"/>
      <point x="231" y="608" type="curve"/>
      <point x="231" y="562"/>
      <point x="180" y="548"/>
      <point x="125" y="544" type="curve"/>
      <point x="125" y="492"/>
      <point x="125" y="544"/>
      <point x="125" y="492" type="curve"/>
      <point x="226" y="495"/>
      <point x="310" y="524"/>
      <point x="310" y="614" type="curve"/>
      <point x="310" y="692"/>
      <point x="253" y="730"/>
      <point x="170" y="730" type="curve"/>
      <point x="121" y="730"/>
      <point x="76" y="708"/>
      <point x="46" y="673" type="curve"/>
      <point x="89" y="633"/>
      <point x="46" y="673"/>
    </contour>
    <contour>
      <point x="44" y="335" type="curve"/>
      <point x="78" y="312"/>
      <point x="114" y="299"/>
      <point x="154" y="299" type="curve"/>
      <point x="253" y="297"/>
      <point x="325" y="334"/>
      <point x="323" y="425" type="curve"/>
      <point x="323" y="518"/>
      <point x="230" y="533"/>
      <point x="125" y="536" type="curve"/>
      <point x="125" y="490"/>
      <point x="125" y="536"/>
      <point x="125" y="490" type="curve"/>
      <point x="190" y="487"/>
      <point x="245" y="472"/>
      <point x="245" y="423" type="curve"/>
      <point x="245" y="378"/>
      <point x="211" y="356"/>
      <point x="162" y="358" type="curve"/>
      <point x="133" y="358"/>
      <point x="107" y="366"/>
      <point x="80" y="380" type="curve"/>
      <point x="44" y="335"/>
      <point x="80" y="380"/>
    </contour>
    <contour>
      <point x="885" y="115" type="line"/>
      <point x="540" y="115" type="line"/>
      <point x="540" y="56" type="line"/>
      <point x="885" y="56" type="line"/>
    </contour>
    <contour>
      <point x="567" y="60" type="line"/>
      <point x="787" y="362" type="line"/>
      <point x="727" y="375" type="line"/>
      <point x="540" y="115" type="line"/>
    </contour>
    <contour>
      <point x="805" y="-61" type="line"/>
      <point x="805" y="375" type="line"/>
      <point x="727" y="375" type="line"/>
      <point x="727" y="-61" type="line"/>
    </contour>
    <contour>
      <point x="766" y="-6" type="line"/>
      <point x="667" y="-6" type="line"/>
      <point x="667" y="-62" type="line"/>
      <point x="766" y="-62" type="line"/>
    </contour>
    <contour>
      <point x="766" y="-62" type="line"/>
      <point x="864" y="-62" type="line"/>
      <point x="864" y="-6" type="line"/>
      <point x="766" y="-6" type="line"/>
    </contour>
  </outline>
</glyph>
<glyph name="questiondown" format="1">
  <advance width="492"/>
  <unicode hex="00BF"/>
  <outline>
    <contour>
      <point x="311" y="362" type="curve"/>
      <point x="311" y="399"/>
      <point x="311" y="463"/>
      <point x="311" y="500" type="curve"/>
      <point x="226" y="500"/>
      <point x="311" y="500"/>
      <point x="226" y="500" type="curve"/>
      <point x="226" y="463"/>
      <point x="226" y="399"/>
      <point x="226" y="362" type="curve"/>
      <point x="311" y="362"/>
      <point x="226" y="362"/>
    </contour>
    <contour>
      <point x="397" y="124" type="line"/>
      <point x="367" y="88"/>
      <point x="327" y="62"/>
      <point x="272" y="62" type="curve"/>
      <point x="189" y="62"/>
      <point x="140" y="118"/>
      <point x="140" y="203" type="curve"/>
      <point x="140" y="299"/>
      <point x="201" y="362"/>
      <point x="301" y="362" type="curve"/>
      <point x="301" y="392"/>
      <point x="301" y="401"/>
      <point x="301" y="431" type="curve"/>
      <point x="151" y="431"/>
      <point x="54" y="343"/>
      <point x="54" y="203" type="curve"/>
      <point x="54" y="71"/>
      <point x="139" y="-12"/>
      <point x="268" y="-12" type="curve"/>
      <point x="346" y="-12"/>
      <point x="403" y="18"/>
      <point x="445" y="69" type="curve"/>
    </contour>
    <contour>
      <point x="217" y="689" type="curve"/>
      <point x="217" y="658"/>
      <point x="239" y="642"/>
      <point x="268" y="642" type="curve"/>
      <point x="298" y="642"/>
      <point x="318" y="660"/>
      <point x="318" y="689" type="curve"/>
      <point x="217" y="689"/>
      <point x="318" y="689"/>
      <point x="217" y="689" type="curve"/>
      <point x="217" y="721"/>
      <point x="239" y="735"/>
      <point x="268" y="735" type="curve"/>
      <point x="299" y="735"/>
      <point x="318" y="719"/>
      <point x="318" y="689" type="curve"/>
      <point x="217" y="689"/>
      <point x="318" y="689"/>
    </contour>
  </outline>
</glyph>
<glyph name="Aacute" format="1">
  <advance width="739"/>
  <unicode hex="00C1"/>
  <outline>
    <contour>
      <point x="114" y="70" type="curve"/>
      <point x="-24" y="70"/>
      <point x="126" y="70"/>
      <point x="-12" y="70" type="curve"/>
      <point x="-12" y="0"/>
      <point x="-12" y="70"/>
      <point x="-12" y="0" type="curve"/>
      <point x="33" y="0"/>
      <point x="69" y="0"/>
      <point x="114" y="0" type="curve"/>
      <point x="114" y="70"/>
      <point x="114" y="0"/>
    </contour>
    <contour>
      <point x="114" y="0" type="curve"/>
      <point x="169" y="0"/>
      <point x="107" y="0"/>
      <point x="270" y="0" type="curve"/>
      <point x="270" y="70"/>
      <point x="270" y="0"/>
      <point x="270" y="70" type="curve"/>
      <point x="107" y="70"/>
      <point x="276" y="70"/>
      <point x="114" y="70" type="curve"/>
      <point x="114" y="0"/>
      <point x="114" y="70"/>
    </contour>
    <contour>
      <point x="598" y="0" type="curve"/>
      <point x="644" y="0"/>
      <point x="679" y="0"/>
      <point x="725" y="0" type="curve"/>
      <point x="725" y="70"/>
      <point x="725" y="0"/>
      <point x="725" y="70" type="curve"/>
      <point x="588" y="70"/>
      <point x="736" y="70"/>
      <point x="598" y="70" type="curve"/>
      <point x="598" y="0"/>
      <point x="598" y="70"/>
    </contour>
    <contour>
      <point x="598" y="70" type="curve"/>
      <point x="436" y="70"/>
      <point x="605" y="70"/>
      <point x="443" y="70" type="curve"/>
      <point x="443" y="0"/>
      <point x="443" y="70"/>
      <point x="443" y="0" type="curve"/>
      <point x="497" y="0"/>
      <point x="544" y="0"/>
      <point x="598" y="0" type="curve"/>
      <point x="598" y="70"/>
      <point x="598" y="0"/>
    </contour>
    <contour>
      <point x="508" y="289" type="curve"/>
      <point x="412" y="289"/>
      <point x="317" y="289"/>
      <point x="223" y="289" type="curve"/>
      <point x="186" y="216"/>
      <point x="223" y="289"/>
      <point x="186" y="216" type="curve"/>
      <point x="302" y="216"/>
      <point x="419" y="216"/>
      <point x="536" y="216" type="curve"/>
      <point x="508" y="289"/>
      <point x="536" y="216"/>
    </contour>
    <contour>
      <point x="655" y="0" type="curve"/>
      <point x="575" y="241"/>
      <point x="492" y="481"/>
      <point x="412" y="722" type="curve"/>
      <point x="330" y="722"/>
      <point x="412" y="722"/>
      <point x="330" y="722" type="curve"/>
      <point x="409" y="482"/>
      <point x="483" y="240"/>
      <point x="561" y="0" type="curve"/>
      <point x="655" y="0"/>
      <point x="561" y="0"/>
    </contour>
    <contour>
      <point x="153" y="0" type="curve"/>
      <point x="241" y="240"/>
      <point x="322" y="482"/>
      <point x="410" y="722" type="curve"/>
      <point x="328" y="722"/>
      <point x="410" y="722"/>
      <point x="328" y="722" type="curve"/>
      <point x="240" y="480"/>
      <point x="144" y="242"/>
      <point x="55" y="0" type="curve"/>
      <point x="153" y="0"/>
      <point x="55" y="0"/>
    </contour>
    <contour>
      <point x="408" y="801" type="line"/>
      <point x="534" y="967" type="line"/>
      <point x="420" y="967" type="line"/>
      <point x="321" y="801" type="line"/>
    </contour>
  </outline>
</glyph>
<glyph name="Atilde" format="1">
  <advance width="739"/>
  <unicode hex="00C3"/>
  <outline>
    <contour>
      <point x="114" y="70" type="curve"/>
      <point x="-24" y="70"/>
      <point x="126" y="70"/>
      <point x="-12" y="70" type="curve"/>
      <point x="-12" y="0"/>
      <point x="-12" y="70"/>
      <point x="-12" y="0" type="curve"/>
      <point x="33" y="0"/>
      <point x="69" y="0"/>
      <point x="114" y="0" type="curve"/>
      <point x="114" y="70"/>
      <point x="114" y="0"/>
    </contour>
    <contour>
      <point x="114" y="0" type="curve"/>
      <point x="169" y="0"/>
      <point x="107" y="0"/>
      <point x="270" y="0" type="curve"/>
      <point x="270" y="70"/>
      <point x="270" y="0"/>
      <point x="270" y="70" type="curve"/>
      <point x="107" y="70"/>
      <point x="276" y="70"/>
      <point x="114" y="70" type="curve"/>
      <point x="114" y="0"/>
      <point x="114" y="70"/>
    </contour>
    <contour>
      <point x="598" y="0" type="curve"/>
      <point x="644" y="0"/>
      <point x="679" y="0"/>
      <point x="725" y="0" type="curve"/>
      <point x="725" y="70"/>
      <point x="725" y="0"/>
      <point x="725" y="70" type="curve"/>
      <point x="588" y="70"/>
      <point x="736" y="70"/>
      <point x="598" y="70" type="curve"/>
      <point x="598" y="0"/>
      <point x="598" y="70"/>
    </contour>
    <contour>
      <point x="598" y="70" type="curve"/>
      <point x="436" y="70"/>
      <point x="605" y="70"/>
      <point x="443" y="70" type="curve"/>
      <point x="443" y="0"/>
      <point x="443" y="70"/>
      <point x="443" y="0" type="curve"/>
      <point x="497" y="0"/>
      <point x="544" y="0"/>
      <point x="598" y="0" type="curve"/>
      <point x="598" y="70"/>
      <point x="598" y="0"/>
    </contour>
    <contour>
      <point x="508" y="289" type="curve"/>
      <point x="412" y="289"/>
      <point x="317" y="289"/>
      <point x="223" y="289" type="curve"/>
      <point x="186" y="216"/>
      <point x="223" y="289"/>
      <point x="186" y="216" type="curve"/>
      <point x="302" y="216"/>
      <point x="419" y="216"/>
      <point x="536" y="216" type="curve"/>
      <point x="508" y="289"/>
      <point x="536" y="216"/>
    </contour>
    <contour>
      <point x="655" y="0" type="curve"/>
      <point x="575" y="241"/>
      <point x="492" y="481"/>
      <point x="412" y="722" type="curve"/>
      <point x="330" y="722"/>
      <point x="412" y="722"/>
      <point x="330" y="722" type="curve"/>
      <point x="409" y="482"/>
      <point x="483" y="240"/>
      <point x="561" y="0" type="curve"/>
      <point x="655" y="0"/>
      <point x="561" y="0"/>
    </contour>
    <contour>
      <point x="153" y="0" type="curve"/>
      <point x="241" y="240"/>
      <point x="322" y="482"/>
      <point x="410" y="722" type="curve"/>
      <point x="328" y="722"/>
      <point x="410" y="722"/>
      <point x="328" y="722" type="curve"/>
      <point x="240" y="480"/>
      <point x="144" y="242"/>
      <point x="55" y="0" type="curve"/>
      <point x="153" y="0"/>
      <point x="55" y="0"/>
    </contour>
    <contour>
      <point x="499" y="960" type="curve"/>
      <point x="485" y="916"/>
      <point x="472" y="885"/>
      <point x="443" y="885" type="curve"/>
      <point x="412" y="885"/>
      <point x="396" y="898"/>
      <point x="374" y="921" type="curve"/>
      <point x="347" y="947"/>
      <point x="327" y="964"/>
      <point x="289" y="964" type="curve"/>
      <point x="221" y="964"/>
      <point x="191" y="905"/>
      <point x="172" y="836" type="curve"/>
      <point x="239" y="802"/>
      <point x="172" y="837"/>
      <point x="239" y="802" type="curve"/>
      <point x="254" y="850"/>
      <point x="269" y="879"/>
      <point x="303" y="879" type="curve"/>
      <point x="330" y="879"/>
      <point x="343" y="864"/>
      <point x="362" y="845" type="curve"/>
      <point x="393" y="814"/>
      <point x="415" y="798"/>
      <point x="456" y="798" type="curve"/>
      <point x="525" y="798"/>
      <point x="549" y="858"/>
      <point x="570" y="927" type="curve"/>
      <point x="499" y="959"/>
      <point x="570" y="926"/>
    </contour>
  </outline>
</glyph>
<glyph name="Adieresis" format="1">
  <advance width="739"/>
  <unicode hex="00C4"/>
  <outline>
    <contour>
      <point x="114" y="70" type="curve"/>
      <point x="-24" y="70"/>
      <point x="126" y="70"/>
      <point x="-12" y="70" type="curve"/>
      <point x="-12" y="0"/>
      <point x="-12" y="70"/>
      <point x="-12" y="0" type="curve"/>
      <point x="33" y="0"/>
      <point x="69" y="0"/>
      <point x="114" y="0" type="curve"/>
      <point x="114" y="70"/>
      <point x="114" y="0"/>
    </contour>
    <contour>
      <point x="114" y="0" type="curve"/>
      <point x="169" y="0"/>
      <point x="107" y="0"/>
      <point x="270" y="0" type="curve"/>
      <point x="270" y="70"/>
      <point x="270" y="0"/>
      <point x="270" y="70" type="curve"/>
      <point x="107" y="70"/>
      <point x="276" y="70"/>
      <point x="114" y="70" type="curve"/>
      <point x="114" y="0"/>
      <point x="114" y="70"/>
    </contour>
    <contour>
      <point x="598" y="0" type="curve"/>
      <point x="644" y="0"/>
      <point x="679" y="0"/>
      <point x="725" y="0" type="curve"/>
      <point x="725" y="70"/>
      <point x="725" y="0"/>
      <point x="725" y="70" type="curve"/>
      <point x="588" y="70"/>
      <point x="736" y="70"/>
      <point x="598" y="70" type="curve"/>
      <point x="598" y="0"/>
      <point x="598" y="70"/>
    </contour>
    <contour>
      <point x="598" y="70" type="curve"/>
      <point x="436" y="70"/>
      <point x="605" y="70"/>
      <point x="443" y="70" type="curve"/>
      <point x="443" y="0"/>
      <point x="443" y="70"/>
      <point x="443" y="0" type="curve"/>
      <point x="497" y="0"/>
      <point x="544" y="0"/>
      <point x="598" y="0" type="curve"/>
      <point x="598" y="70"/>
      <point x="598" y="0"/>
    </contour>
    <contour>
      <point x="508" y="289" type="curve"/>
      <point x="412" y="289"/>
      <point x="317" y="289"/>
      <point x="223" y="289" type="curve"/>
      <point x="186" y="216"/>
      <point x="223" y="289"/>
      <point x="186" y="216" type="curve"/>
      <point x="302" y="216"/>
      <point x="419" y="216"/>
      <point x="536" y="216" type="curve"/>
      <point x="508" y="289"/>
      <point x="536" y="216"/>
    </contour>
    <contour>
      <point x="655" y="0" type="curve"/>
      <point x="575" y="241"/>
      <point x="492" y="481"/>
      <point x="412" y="722" type="curve"/>
      <point x="330" y="722"/>
      <point x="412" y="722"/>
      <point x="330" y="722" type="curve"/>
      <point x="409" y="482"/>
      <point x="483" y="240"/>
      <point x="561" y="0" type="curve"/>
      <point x="655" y="0"/>
      <point x="561" y="0"/>
    </contour>
    <contour>
      <point x="153" y="0" type="curve"/>
      <point x="241" y="240"/>
      <point x="322" y="482"/>
      <point x="410" y="722" type="curve"/>
      <point x="328" y="722"/>
      <point x="410" y="722"/>
      <point x="328" y="722" type="curve"/>
      <point x="240" y="480"/>
      <point x="144" y="242"/>
      <point x="55" y="0" type="curve"/>
      <point x="153" y="0"/>
      <point x="55" y="0"/>
    </contour>
    <contour>
      <point x="339" y="844" type="curve"/>
      <point x="339" y="875"/>
      <point x="317" y="891"/>
      <point x="287" y="891" type="curve"/>
      <point x="257" y="891"/>
      <point x="237" y="873"/>
      <point x="237" y="844" type="curve"/>
      <point x="335" y="844"/>
      <point x="240" y="844"/>
      <point x="339" y="844" type="curve"/>
      <point x="339" y="812"/>
      <point x="317" y="797"/>
      <point x="287" y="797" type="curve"/>
      <point x="257" y="797"/>
      <point x="237" y="813"/>
      <point x="237" y="844" type="curve"/>
      <point x="335" y="844"/>
      <point x="240" y="844"/>
    </contour>
    <contour>
      <point x="500" y="844" type="curve"/>
      <point x="500" y="875"/>
      <point x="478" y="891"/>
      <point x="448" y="891" type="curve"/>
      <point x="418" y="891"/>
      <point x="399" y="873"/>
      <point x="399" y="844" type="curve"/>
      <point x="497" y="844"/>
      <point x="402" y="844"/>
      <point x="500" y="844" type="curve"/>
      <point x="500" y="812"/>
      <point x="478" y="797"/>
      <point x="448" y="797" type="curve"/>
      <point x="417" y="797"/>
      <point x="399" y="813"/>
      <point x="399" y="844" type="curve"/>
      <point x="497" y="844"/>
      <point x="402" y="844"/>
    </contour>
  </outline>
</glyph>
<glyph name="Aring" format="1">
  <advance width="739"/>
  <unicode hex="00C5"/>
  <outline>
    <contour>
      <point x="114" y="70" type="curve"/>
      <point x="-24" y="70"/>
      <point x="126" y="70"/>
      <point x="-12" y="70" type="curve"/>
      <point x="-12" y="0"/>
      <point x="-12" y="70"/>
      <point x="-12" y="0" type="curve"/>
      <point x="33" y="0"/>
      <point x="69" y="0"/>
      <point x="114" y="0" type="curve"/>
      <point x="114" y="70"/>
      <point x="114" y="0"/>
    </contour>
    <contour>
      <point x="114" y="0" type="curve"/>
      <point x="169" y="0"/>
      <point x="107" y="0"/>
      <point x="270" y="0" type="curve"/>
      <point x="270" y="70"/>
      <point x="270" y="0"/>
      <point x="270" y="70" type="curve"/>
      <point x="107" y="70"/>
      <point x="276" y="70"/>
      <point x="114" y="70" type="curve"/>
      <point x="114" y="0"/>
      <point x="114" y="70"/>
    </contour>
    <contour>
      <point x="598" y="0" type="curve"/>
      <point x="644" y="0"/>
      <point x="679" y="0"/>
      <point x="725" y="0" type="curve"/>
      <point x="725" y="70"/>
      <point x="725" y="0"/>
      <point x="725" y="70" type="curve"/>
      <point x="588" y="70"/>
      <point x="736" y="70"/>
      <point x="598" y="70" type="curve"/>
      <point x="598" y="0"/>
      <point x="598" y="70"/>
    </contour>
    <contour>
      <point x="598" y="70" type="curve"/>
      <point x="436" y="70"/>
      <point x="605" y="70"/>
      <point x="443" y="70" type="curve"/>
      <point x="443" y="0"/>
      <point x="443" y="70"/>
      <point x="443" y="0" type="curve"/>
      <point x="497" y="0"/>
      <point x="544" y="0"/>
      <point x="598" y="0" type="curve"/>
      <point x="598" y="70"/>
      <point x="598" y="0"/>
    </contour>
    <contour>
      <point x="508" y="289" type="curve"/>
      <point x="412" y="289"/>
      <point x="317" y="289"/>
      <point x="223" y="289" type="curve"/>
      <point x="186" y="216"/>
      <point x="223" y="289"/>
      <point x="186" y="216" type="curve"/>
      <point x="302" y="216"/>
      <point x="419" y="216"/>
      <point x="536" y="216" type="curve"/>
      <point x="508" y="289"/>
      <point x="536" y="216"/>
    </contour>
    <contour>
      <point x="655" y="0" type="curve"/>
      <point x="575" y="241"/>
      <point x="492" y="481"/>
      <point x="412" y="722" type="curve"/>
      <point x="330" y="722"/>
      <point x="412" y="722"/>
      <point x="330" y="722" type="curve"/>
      <point x="409" y="482"/>
      <point x="483" y="240"/>
      <point x="561" y="0" type="curve"/>
      <point x="655" y="0"/>
      <point x="561" y="0"/>
    </contour>
    <contour>
      <point x="153" y="0" type="curve"/>
      <point x="241" y="240"/>
      <point x="322" y="482"/>
      <point x="410" y="722" type="curve"/>
      <point x="328" y="722"/>
      <point x="410" y="722"/>
      <point x="328" y="722" type="curve"/>
      <point x="240" y="480"/>
      <point x="144" y="242"/>
      <point x="55" y="0" type="curve"/>
      <point x="153" y="0"/>
      <point x="55" y="0"/>
    </contour>
    <contour>
      <point x="235" y="933" type="curve"/>
      <point x="235" y="851"/>
      <point x="286" y="799"/>
      <point x="368" y="799" type="curve"/>
      <point x="452" y="799"/>
      <point x="504" y="849"/>
      <point x="504" y="933" type="curve"/>
      <point x="504" y="1016"/>
      <point x="451" y="1066"/>
      <point x="366" y="1066" type="curve"/>
      <point x="285" y="1066"/>
      <point x="235" y="1015"/>
      <point x="235" y="933" type="curve"/>
      <point x="314" y="933"/>
      <point x="231" y="933"/>
      <point x="310" y="933" type="curve"/>
      <point x="310" y="973"/>
      <point x="326" y="1003"/>
      <point x="366" y="1003" type="curve"/>
      <point x="408" y="1003"/>
      <point x="427" y="975"/>
      <point x="427" y="933" type="curve"/>
      <point x="427" y="891"/>
      <point x="409" y="862"/>
      <point x="368" y="862" type="curve"/>
      <point x="328" y="862"/>
      <point x="310" y="891"/>
      <point x="310" y="933" type="curve"/>
      <point x="231" y="933"/>
      <point x="314" y="933"/>
    </contour>
  </outline>
</glyph>
<glyph name="AE" format="1">
  <advance width="903"/>
  <unicode hex="00C6"/>
  <outline>
    <contour>
      <point x="106" y="70" type="curve"/>
      <point x="-11" y="70"/>
      <point x="109" y="70"/>
      <point x="-8" y="70" type="curve"/>
      <point x="-8" y="0"/>
      <point x="-8" y="70"/>
      <point x="-8" y="0" type="curve"/>
      <point x="32" y="0"/>
      <point x="67" y="0"/>
      <point x="106" y="0" type="curve"/>
      <point x="106" y="70"/>
      <point x="106" y="0"/>
    </contour>
    <contour>
      <point x="106" y="0" type="curve"/>
      <point x="159" y="0"/>
      <point x="101" y="0"/>
      <point x="260" y="0" type="curve"/>
      <point x="260" y="70"/>
      <point x="260" y="0"/>
      <point x="260" y="70" type="curve"/>
      <point x="101" y="70"/>
      <point x="265" y="70"/>
      <point x="106" y="70" type="curve"/>
      <point x="106" y="0"/>
      <point x="106" y="70"/>
    </contour>
    <contour>
      <point x="465" y="275" type="curve"/>
      <point x="370" y="275"/>
      <point x="321" y="275"/>
      <point x="226" y="275" type="curve"/>
      <point x="189" y="201"/>
      <point x="226" y="275"/>
      <point x="189" y="201" type="curve"/>
      <point x="306" y="201"/>
      <point x="377" y="201"/>
      <point x="494" y="201" type="curve"/>
      <point x="465" y="275"/>
      <point x="494" y="201"/>
    </contour>
    <contour>
      <point x="144" y="0" type="curve"/>
      <point x="533" y="722" type="line"/>
      <point x="451" y="722"/>
      <point x="532" y="722"/>
      <point x="451" y="722" type="curve"/>
      <point x="46" y="0" type="line"/>
      <point x="144" y="0"/>
      <point x="47" y="0"/>
    </contour>
    <contour>
      <point x="859" y="35" type="curve"/>
      <point x="859" y="155"/>
      <point x="859" y="32"/>
      <point x="859" y="152" type="curve"/>
      <point x="788" y="152"/>
      <point x="859" y="152"/>
      <point x="788" y="152" type="curve"/>
      <point x="788" y="32"/>
      <point x="788" y="155"/>
      <point x="788" y="35" type="curve"/>
      <point x="859" y="35"/>
      <point x="788" y="35"/>
    </contour>
    <contour>
      <point x="758" y="687" type="curve"/>
      <point x="758" y="567"/>
      <point x="758" y="690"/>
      <point x="758" y="570" type="curve"/>
      <point x="829" y="570"/>
      <point x="758" y="570"/>
      <point x="829" y="570" type="curve"/>
      <point x="829" y="690"/>
      <point x="829" y="567"/>
      <point x="829" y="687" type="curve"/>
      <point x="758" y="687"/>
      <point x="829" y="687"/>
    </contour>
    <contour>
      <point x="480" y="70" type="curve"/>
      <point x="337" y="70"/>
      <point x="487" y="70"/>
      <point x="344" y="70" type="curve"/>
      <point x="344" y="0"/>
      <point x="344" y="70"/>
      <point x="344" y="0" type="curve"/>
      <point x="392" y="0"/>
      <point x="433" y="0"/>
      <point x="480" y="0" type="curve"/>
      <point x="480" y="70"/>
      <point x="480" y="0"/>
    </contour>
    <contour>
      <point x="480" y="722" type="curve"/>
      <point x="433" y="722"/>
      <point x="392" y="722"/>
      <point x="344" y="722" type="curve"/>
      <point x="344" y="652"/>
      <point x="344" y="722"/>
      <point x="344" y="652" type="curve"/>
      <point x="487" y="652"/>
      <point x="337" y="652"/>
      <point x="480" y="652" type="curve"/>
      <point x="480" y="722"/>
      <point x="480" y="652"/>
    </contour>
    <contour>
      <point x="483" y="338" type="curve"/>
      <point x="580" y="338"/>
      <point x="676" y="338"/>
      <point x="773" y="338" type="curve"/>
      <point x="773" y="408"/>
      <point x="773" y="338"/>
      <point x="773" y="408" type="curve"/>
      <point x="676" y="408"/>
      <point x="580" y="408"/>
      <point x="483" y="408" type="curve"/>
      <point x="483" y="338"/>
      <point x="483" y="408"/>
    </contour>
    <contour>
      <point x="469" y="652" type="curve"/>
      <point x="590" y="652"/>
      <point x="709" y="652"/>
      <point x="829" y="652" type="curve"/>
      <point x="829" y="722"/>
      <point x="829" y="652"/>
      <point x="829" y="722" type="curve"/>
      <point x="709" y="722"/>
      <point x="590" y="722"/>
      <point x="469" y="722" type="curve"/>
      <point x="469" y="652"/>
      <point x="469" y="722"/>
    </contour>
    <contour>
      <point x="524" y="0" type="curve"/>
      <point x="524" y="722" type="line"/>
      <point x="435" y="722"/>
      <point x="524" y="722"/>
      <point x="435" y="722" type="curve"/>
      <point x="435" y="481"/>
      <point x="435" y="241"/>
      <point x="435" y="0" type="curve"/>
      <point x="524" y="0"/>
      <point x="435" y="0"/>
    </contour>
    <contour>
      <point x="469" y="0" type="curve"/>
      <point x="600" y="0"/>
      <point x="729" y="0"/>
      <point x="859" y="0" type="curve"/>
      <point x="859" y="70"/>
      <point x="859" y="0"/>
      <point x="859" y="70" type="curve"/>
      <point x="729" y="70"/>
      <point x="600" y="70"/>
      <point x="469" y="70" type="curve"/>
      <point x="469" y="0"/>
      <point x="469" y="70"/>
    </contour>
  </outline>
</glyph>
<glyph name="Edieresis" format="1">
  <advance width="614"/>
  <unicode hex="00CB"/>
  <outline>
    <contour>
      <point x="570" y="35" type="curve"/>
      <point x="570" y="155"/>
      <point x="570" y="32"/>
      <point x="570" y="152" type="curve"/>
      <point x="498" y="152"/>
      <point x="570" y="152"/>
      <point x="498" y="152" type="curve"/>
      <point x="498" y="32"/>
      <point x="498" y="155"/>
      <point x="498" y="35" type="curve"/>
      <point x="570" y="35"/>
      <point x="498" y="35"/>
    </contour>
    <contour>
      <point x="468" y="687" type="curve"/>
      <point x="468" y="567"/>
      <point x="468" y="690"/>
      <point x="468" y="570" type="curve"/>
      <point x="540" y="570"/>
      <point x="468" y="570"/>
      <point x="540" y="570" type="curve"/>
      <point x="540" y="690"/>
      <point x="540" y="567"/>
      <point x="540" y="687" type="curve"/>
      <point x="468" y="687"/>
      <point x="540" y="687"/>
    </contour>
    <contour>
      <point x="191" y="70" type="curve"/>
      <point x="48" y="70"/>
      <point x="197" y="70"/>
      <point x="55" y="70" type="curve"/>
      <point x="55" y="0"/>
      <point x="55" y="70"/>
      <point x="55" y="0" type="curve"/>
      <point x="102" y="0"/>
      <point x="143" y="0"/>
      <point x="191" y="0" type="curve"/>
      <point x="191" y="70"/>
      <point x="191" y="0"/>
    </contour>
    <contour>
      <point x="191" y="722" type="curve"/>
      <point x="143" y="722"/>
      <point x="102" y="722"/>
      <point x="55" y="722" type="curve"/>
      <point x="55" y="652"/>
      <point x="55" y="722"/>
      <point x="55" y="652" type="curve"/>
      <point x="197" y="652"/>
      <point x="48" y="652"/>
      <point x="191" y="652" type="curve"/>
      <point x="191" y="722"/>
      <point x="191" y="652"/>
    </contour>
    <contour>
      <point x="194" y="338" type="curve"/>
      <point x="290" y="338"/>
      <point x="387" y="338"/>
      <point x="484" y="338" type="curve"/>
      <point x="484" y="408"/>
      <point x="484" y="338"/>
      <point x="484" y="408" type="curve"/>
      <point x="387" y="408"/>
      <point x="290" y="408"/>
      <point x="194" y="408" type="curve"/>
      <point x="194" y="338"/>
      <point x="194" y="408"/>
    </contour>
    <contour>
      <point x="180" y="652" type="curve"/>
      <point x="300" y="652"/>
      <point x="420" y="652"/>
      <point x="540" y="652" type="curve"/>
      <point x="540" y="722"/>
      <point x="540" y="652"/>
      <point x="540" y="722" type="curve"/>
      <point x="420" y="722"/>
      <point x="300" y="722"/>
      <point x="180" y="722" type="curve"/>
      <point x="180" y="652"/>
      <point x="180" y="722"/>
    </contour>
    <contour>
      <point x="235" y="0" type="curve"/>
      <point x="235" y="722" type="line"/>
      <point x="145" y="722"/>
      <point x="235" y="722"/>
      <point x="145" y="722" type="curve"/>
      <point x="145" y="481"/>
      <point x="145" y="241"/>
      <point x="145" y="0" type="curve"/>
      <point x="235" y="0"/>
      <point x="145" y="0"/>
    </contour>
    <contour>
      <point x="180" y="0" type="curve"/>
      <point x="310" y="0"/>
      <point x="440" y="0"/>
      <point x="570" y="0" type="curve"/>
      <point x="570" y="70"/>
      <point x="570" y="0"/>
      <point x="570" y="70" type="curve"/>
      <point x="440" y="70"/>
      <point x="310" y="70"/>
      <point x="180" y="70" type="curve"/>
      <point x="180" y="0"/>
      <point x="180" y="70"/>
    </contour>
    <contour>
      <point x="289" y="844" type="curve"/>
      <point x="289" y="875"/>
      <point x="267" y="891"/>
      <point x="238" y="891" type="curve"/>
      <point x="208" y="891"/>
      <point x="188" y="873"/>
      <point x="188" y="844" type="curve"/>
      <point x="287" y="844"/>
      <point x="191" y="844"/>
      <point x="289" y="844" type="curve"/>
      <point x="289" y="812"/>
      <point x="268" y="797"/>
      <point x="238" y="797" type="curve"/>
      <point x="207" y="797"/>
      <point x="188" y="813"/>
      <point x="188" y="844" type="curve"/>
      <point x="287" y="844"/>
      <point x="191" y="844"/>
    </contour>
    <contour>
      <point x="451" y="844" type="curve"/>
      <point x="451" y="875"/>
      <point x="429" y="891"/>
      <point x="399" y="891" type="curve"/>
      <point x="369" y="891"/>
      <point x="349" y="873"/>
      <point x="349" y="844" type="curve"/>
      <point x="448" y="844"/>
      <point x="353" y="844"/>
      <point x="451" y="844" type="curve"/>
      <point x="451" y="812"/>
      <point x="429" y="797"/>
      <point x="399" y="797" type="curve"/>
      <point x="368" y="797"/>
      <point x="349" y="813"/>
      <point x="349" y="844" type="curve"/>
      <point x="448" y="844"/>
      <point x="353" y="844"/>
    </contour>
  </outline>
</glyph>
<glyph name="Igrave" format="1">
  <advance width="357"/>
  <unicode hex="00CC"/>
  <outline>
    <contour>
      <point x="180" y="722" type="curve"/>
      <point x="131" y="722"/>
      <point x="93" y="722"/>
      <point x="43" y="722" type="curve"/>
      <point x="43" y="652"/>
      <point x="43" y="722"/>
      <point x="43" y="652" type="curve"/>
      <point x="191" y="652"/>
      <point x="33" y="652"/>
      <point x="180" y="652" type="curve"/>
      <point x="180" y="722"/>
      <point x="180" y="652"/>
    </contour>
    <contour>
      <point x="180" y="652" type="curve"/>
      <point x="328" y="652"/>
      <point x="169" y="652"/>
      <point x="316" y="652" type="curve"/>
      <point x="316" y="722"/>
      <point x="316" y="652"/>
      <point x="316" y="722" type="curve"/>
      <point x="267" y="722"/>
      <point x="229" y="722"/>
      <point x="180" y="722" type="curve"/>
      <point x="180" y="652"/>
      <point x="180" y="722"/>
    </contour>
    <contour>
      <point x="180" y="0" type="curve"/>
      <point x="229" y="0"/>
      <point x="267" y="0"/>
      <point x="316" y="0" type="curve"/>
      <point x="316" y="70"/>
      <point x="316" y="0"/>
      <point x="316" y="70" type="curve"/>
      <point x="169" y="70"/>
      <point x="328" y="70"/>
      <point x="180" y="70" type="curve"/>
      <point x="180" y="0"/>
      <point x="180" y="70"/>
    </contour>
    <contour>
      <point x="180" y="70" type="curve"/>
      <point x="33" y="70"/>
      <point x="191" y="70"/>
      <point x="43" y="70" type="curve"/>
      <point x="43" y="0"/>
      <point x="43" y="70"/>
      <point x="43" y="0" type="curve"/>
      <point x="93" y="0"/>
      <point x="131" y="0"/>
      <point x="180" y="0" type="curve"/>
      <point x="180" y="70"/>
      <point x="180" y="0"/>
    </contour>
    <contour>
      <point x="224" y="0" type="curve"/>
      <point x="224" y="241"/>
      <point x="224" y="481"/>
      <point x="224" y="722" type="curve"/>
      <point x="134" y="722"/>
      <point x="224" y="722"/>
      <point x="134" y="722" type="curve"/>
      <point x="134" y="481"/>
      <point x="134" y="241"/>
      <point x="134" y="0" type="curve"/>
      <point x="224" y="0"/>
      <point x="134" y="0"/>
    </contour>
    <contour>
      <point x="227" y="801" type="line"/>
      <point x="128" y="967" type="line"/>
      <point x="14" y="967" type="line"/>
      <point x="140" y="801" type="line"/>
    </contour>
  </outline>
</glyph>
<glyph name="Iacute" format="1">
  <advance width="357"/>
  <unicode hex="00CD"/>
  <outline>
    <contour>
      <point x="178" y="722" type="curve"/>
      <point x="129" y="722"/>
      <point x="90" y="722"/>
      <point x="42" y="722" type="curve"/>
      <point x="42" y="652"/>
      <point x="42" y="722"/>
      <point x="42" y="652" type="curve"/>
      <point x="188" y="652"/>
      <point x="30" y="652"/>
      <point x="178" y="652" type="curve"/>
      <point x="178" y="722"/>
      <point x="178" y="652"/>
    </contour>
    <contour>
      <point x="178" y="652" type="curve"/>
      <point x="325" y="652"/>
      <point x="167" y="652"/>
      <point x="314" y="652" type="curve"/>
      <point x="314" y="722"/>
      <point x="314" y="652"/>
      <point x="314" y="722" type="curve"/>
      <point x="265" y="722"/>
      <point x="227" y="722"/>
      <point x="178" y="722" type="curve"/>
      <point x="178" y="652"/>
      <point x="178" y="722"/>
    </contour>
    <contour>
      <point x="178" y="0" type="curve"/>
      <point x="227" y="0"/>
      <point x="265" y="0"/>
      <point x="314" y="0" type="curve"/>
      <point x="314" y="70"/>
      <point x="314" y="0"/>
      <point x="314" y="70" type="curve"/>
      <point x="167" y="70"/>
      <point x="325" y="70"/>
      <point x="178" y="70" type="curve"/>
      <point x="178" y="0"/>
      <point x="178" y="70"/>
    </contour>
    <contour>
      <point x="178" y="70" type="curve"/>
      <point x="30" y="70"/>
      <point x="188" y="70"/>
      <point x="42" y="70" type="curve"/>
      <point x="42" y="0"/>
      <point x="42" y="70"/>
      <point x="42" y="0" type="curve"/>
      <point x="90" y="0"/>
      <point x="129" y="0"/>
      <point x="178" y="0" type="curve"/>
      <point x="178" y="70"/>
      <point x="178" y="0"/>
    </contour>
    <contour>
      <point x="222" y="0" type="curve"/>
      <point x="222" y="241"/>
      <point x="222" y="481"/>
      <point x="222" y="722" type="curve"/>
      <point x="132" y="722"/>
      <point x="222" y="722"/>
      <point x="132" y="722" type="curve"/>
      <point x="132" y="481"/>
      <point x="132" y="241"/>
      <point x="132" y="0" type="curve"/>
      <point x="222" y="0"/>
      <point x="132" y="0"/>
    </contour>
    <contour>
      <point x="218" y="801" type="line"/>
      <point x="343" y="967" type="line"/>
      <point x="230" y="967" type="line"/>
      <point x="131" y="801" type="line"/>
    </contour>
  </outline>
</glyph>
<glyph name="Icircumflex" format="1">
  <advance width="356"/>
  <unicode hex="00CE"/>
  <outline>
    <contour>
      <point x="176" y="722" type="curve"/>
      <point x="127" y="722"/>
      <point x="88" y="722"/>
      <point x="40" y="722" type="curve"/>
      <point x="40" y="652"/>
      <point x="40" y="722"/>
      <point x="40" y="652" type="curve"/>
      <point x="188" y="652"/>
      <point x="29" y="652"/>
      <point x="176" y="652" type="curve"/>
      <point x="176" y="722"/>
      <point x="176" y="652"/>
    </contour>
    <contour>
      <point x="176" y="652" type="curve"/>
      <point x="324" y="652"/>
      <point x="166" y="652"/>
      <point x="313" y="652" type="curve"/>
      <point x="313" y="722"/>
      <point x="313" y="652"/>
      <point x="313" y="722" type="curve"/>
      <point x="263" y="722"/>
      <point x="225" y="722"/>
      <point x="176" y="722" type="curve"/>
      <point x="176" y="652"/>
      <point x="176" y="722"/>
    </contour>
    <contour>
      <point x="176" y="0" type="curve"/>
      <point x="225" y="0"/>
      <point x="263" y="0"/>
      <point x="313" y="0" type="curve"/>
      <point x="313" y="70"/>
      <point x="313" y="0"/>
      <point x="313" y="70" type="curve"/>
      <point x="166" y="70"/>
      <point x="324" y="70"/>
      <point x="176" y="70" type="curve"/>
      <point x="176" y="0"/>
      <point x="176" y="70"/>
    </contour>
    <contour>
      <point x="176" y="70" type="curve"/>
      <point x="29" y="70"/>
      <point x="188" y="70"/>
      <point x="40" y="70" type="curve"/>
      <point x="40" y="0"/>
      <point x="40" y="70"/>
      <point x="40" y="0" type="curve"/>
      <point x="88" y="0"/>
      <point x="127" y="0"/>
      <point x="176" y="0" type="curve"/>
      <point x="176" y="70"/>
      <point x="176" y="0"/>
    </contour>
    <contour>
      <point x="220" y="0" type="curve"/>
      <point x="220" y="241"/>
      <point x="220" y="481"/>
      <point x="220" y="722" type="curve"/>
      <point x="130" y="722"/>
      <point x="220" y="722"/>
      <point x="130" y="722" type="curve"/>
      <point x="130" y="481"/>
      <point x="130" y="241"/>
      <point x="130" y="0" type="curve"/>
      <point x="220" y="0"/>
      <point x="130" y="0"/>
    </contour>
    <contour>
      <point x="91" y="801" type="line"/>
      <point x="217" y="967" type="line"/>
      <point x="103" y="967" type="line"/>
      <point x="4" y="801" type="line"/>
    </contour>
    <contour>
      <point x="349" y="801" type="line"/>
      <point x="250" y="967" type="line"/>
      <point x="136" y="967" type="line"/>
      <point x="262" y="801" type="line"/>
    </contour>
  </outline>
</glyph>
<glyph name="Eth" format="1">
  <advance width="739"/>
  <unicode hex="00D0"/>
  <outline>
    <contour>
      <point x="192" y="70" type="curve"/>
      <point x="49" y="70"/>
      <point x="198" y="70"/>
      <point x="56" y="70" type="curve"/>
      <point x="56" y="0"/>
      <point x="56" y="70"/>
      <point x="56" y="0" type="curve"/>
      <point x="103" y="0"/>
      <point x="144" y="0"/>
      <point x="192" y="0" type="curve"/>
      <point x="192" y="70"/>
      <point x="192" y="0"/>
    </contour>
    <contour>
      <point x="192" y="722" type="curve"/>
      <point x="144" y="722"/>
      <point x="103" y="722"/>
      <point x="56" y="722" type="curve"/>
      <point x="56" y="652"/>
      <point x="56" y="722"/>
      <point x="56" y="652" type="curve"/>
      <point x="198" y="652"/>
      <point x="49" y="652"/>
      <point x="192" y="652" type="curve"/>
      <point x="192" y="722"/>
      <point x="192" y="652"/>
    </contour>
    <contour>
      <point x="145" y="722" type="curve"/>
      <point x="145" y="481"/>
      <point x="145" y="241"/>
      <point x="145" y="0" type="curve"/>
      <point x="235" y="0"/>
      <point x="145" y="0"/>
      <point x="235" y="0" type="curve"/>
      <point x="235" y="241"/>
      <point x="235" y="481"/>
      <point x="235" y="722" type="curve"/>
      <point x="145" y="722"/>
      <point x="235" y="722"/>
    </contour>
    <contour>
      <point x="192" y="0" type="curve"/>
      <point x="249" y="0"/>
      <point x="301" y="0"/>
      <point x="358" y="0" type="curve"/>
      <point x="576" y="0"/>
      <point x="682" y="131"/>
      <point x="682" y="354" type="curve"/>
      <point x="682" y="585"/>
      <point x="574" y="722"/>
      <point x="352" y="722" type="curve"/>
      <point x="297" y="722"/>
      <point x="247" y="722"/>
      <point x="192" y="722" type="curve"/>
      <point x="192" y="657"/>
      <point x="192" y="717"/>
      <point x="192" y="652" type="curve"/>
      <point x="245" y="652"/>
      <point x="293" y="652"/>
      <point x="347" y="652" type="curve"/>
      <point x="521" y="652"/>
      <point x="593" y="535"/>
      <point x="593" y="352" type="curve"/>
      <point x="593" y="181"/>
      <point x="528" y="70"/>
      <point x="366" y="70" type="curve"/>
      <point x="306" y="70"/>
      <point x="252" y="70"/>
      <point x="192" y="70" type="curve"/>
      <point x="192" y="5"/>
      <point x="192" y="65"/>
    </contour>
    <contour>
      <point x="83" y="338" type="curve"/>
      <point x="182" y="338"/>
      <point x="280" y="338"/>
      <point x="378" y="338" type="curve"/>
      <point x="378" y="415"/>
      <point x="378" y="338"/>
      <point x="378" y="415" type="curve"/>
      <point x="280" y="415"/>
      <point x="182" y="415"/>
      <point x="83" y="415" type="curve"/>
      <point x="83" y="338"/>
      <point x="83" y="415"/>
    </contour>
  </outline>
</glyph>
<glyph name="Ntilde" format="1">
  <advance width="816"/>
  <unicode hex="00D1"/>
  <outline>
    <contour>
      <point x="176" y="722" type="curve"/>
      <point x="128" y="722"/>
      <point x="90" y="722"/>
      <point x="41" y="722" type="curve"/>
      <point x="41" y="652"/>
      <point x="41" y="722"/>
      <point x="41" y="652" type="curve"/>
      <point x="188" y="652"/>
      <point x="30" y="652"/>
      <point x="176" y="652" type="curve"/>
      <point x="176" y="722"/>
      <point x="176" y="652"/>
    </contour>
    <contour>
      <point x="653" y="652" type="curve"/>
      <point x="798" y="652"/>
      <point x="641" y="652"/>
      <point x="787" y="652" type="curve"/>
      <point x="787" y="722"/>
      <point x="787" y="652"/>
      <point x="787" y="722" type="curve"/>
      <point x="739" y="722"/>
      <point x="701" y="722"/>
      <point x="653" y="722" type="curve"/>
      <point x="653" y="652"/>
      <point x="653" y="722"/>
    </contour>
    <contour>
      <point x="656" y="722" type="curve"/>
      <point x="608" y="722"/>
      <point x="571" y="722"/>
      <point x="523" y="722" type="curve"/>
      <point x="523" y="652"/>
      <point x="523" y="722"/>
      <point x="523" y="652" type="curve"/>
      <point x="667" y="652"/>
      <point x="512" y="652"/>
      <point x="656" y="652" type="curve"/>
      <point x="656" y="722"/>
      <point x="656" y="652"/>
    </contour>
    <contour>
      <point x="175" y="70" type="curve"/>
      <point x="30" y="70"/>
      <point x="187" y="70"/>
      <point x="41" y="70" type="curve"/>
      <point x="40" y="0"/>
      <point x="41" y="70"/>
      <point x="40" y="0" type="curve"/>
      <point x="89" y="0"/>
      <point x="126" y="0"/>
      <point x="175" y="0" type="curve"/>
      <point x="175" y="70"/>
      <point x="175" y="0"/>
    </contour>
    <contour>
      <point x="175" y="0" type="curve"/>
      <point x="223" y="0"/>
      <point x="164" y="0"/>
      <point x="308" y="0" type="curve"/>
      <point x="308" y="70"/>
      <point x="308" y="0"/>
      <point x="308" y="70" type="curve"/>
      <point x="164" y="70"/>
      <point x="319" y="70"/>
      <point x="175" y="70" type="curve"/>
      <point x="175" y="0"/>
      <point x="175" y="70"/>
    </contour>
    <contour>
      <point x="699" y="0" type="curve"/>
      <point x="541" y="240"/>
      <point x="384" y="482"/>
      <point x="227" y="722" type="curve"/>
      <point x="127" y="722"/>
      <point x="227" y="722"/>
      <point x="127" y="722" type="curve"/>
      <point x="285" y="482"/>
      <point x="442" y="240"/>
      <point x="600" y="0" type="curve"/>
      <point x="698" y="0"/>
      <point x="600" y="0"/>
    </contour>
    <contour>
      <point x="610" y="722" type="curve"/>
      <point x="610" y="481"/>
      <point x="610" y="241"/>
      <point x="610" y="0" type="curve"/>
      <point x="699" y="0"/>
      <point x="610" y="0"/>
      <point x="699" y="0" type="curve"/>
      <point x="699" y="241"/>
      <point x="699" y="481"/>
      <point x="699" y="722" type="curve"/>
      <point x="610" y="722"/>
      <point x="699" y="722"/>
    </contour>
    <contour>
      <point x="220" y="0" type="curve"/>
      <point x="220" y="241"/>
      <point x="220" y="481"/>
      <point x="220" y="722" type="curve"/>
      <point x="130" y="722"/>
      <point x="220" y="722"/>
      <point x="130" y="722" type="curve"/>
      <point x="130" y="481"/>
      <point x="130" y="241"/>
      <point x="130" y="0" type="curve"/>
      <point x="220" y="0"/>
      <point x="130" y="0"/>
    </contour>
    <contour>
      <point x="546" y="960" type="curve"/>
      <point x="532" y="916"/>
      <point x="519" y="885"/>
      <point x="490" y="885" type="curve"/>
      <point x="459" y="885"/>
      <point x="443" y="898"/>
      <point x="422" y="921" type="curve"/>
      <point x="393" y="947"/>
      <point x="374" y="964"/>
      <point x="336" y="964" type="curve"/>
      <point x="268" y="964"/>
      <point x="238" y="905"/>
      <point x="219" y="836" type="curve"/>
      <point x="285" y="802"/>
      <point x="219" y="837"/>
      <point x="286" y="802" type="curve"/>
      <point x="300" y="850"/>
      <point x="315" y="879"/>
      <point x="350" y="879" type="curve"/>
      <point x="377" y="879"/>
      <point x="390" y="864"/>
      <point x="409" y="845" type="curve"/>
      <point x="440" y="814"/>
      <point x="462" y="798"/>
      <point x="503" y="798" type="curve"/>
      <point x="572" y="798"/>
      <point x="595" y="858"/>
      <point x="617" y="927" type="curve"/>
      <point x="546" y="959"/>
      <point x="617" y="926"/>
    </contour>
  </outline>
</glyph>
<glyph name="Ograve" format="1">
  <advance width="715"/>
  <unicode hex="00D2"/>
  <outline>
    <contour>
      <point x="149" y="360" type="curve"/>
      <point x="149" y="525"/>
      <point x="202" y="654"/>
      <point x="355" y="654" type="curve"/>
      <point x="506" y="654"/>
      <point x="567" y="528"/>
      <point x="567" y="363" type="curve"/>
      <point x="567" y="199"/>
      <point x="512" y="69"/>
      <point x="360" y="69" type="curve"/>
      <point x="207" y="69"/>
      <point x="149" y="195"/>
      <point x="149" y="360" type="curve"/>
      <point x="58" y="360"/>
      <point x="149" y="360"/>
      <point x="58" y="360" type="curve"/>
      <point x="58" y="147"/>
      <point x="156" y="-5"/>
      <point x="356" y="-5" type="curve"/>
      <point x="558" y="-5"/>
      <point x="657" y="149"/>
      <point x="657" y="363" type="curve"/>
      <point x="657" y="574"/>
      <point x="560" y="727"/>
      <point x="360" y="727" type="curve"/>
      <point x="157" y="727"/>
      <point x="58" y="573"/>
      <point x="58" y="360" type="curve"/>
      <point x="149" y="360"/>
      <point x="58" y="360"/>
    </contour>
    <contour>
      <point x="405" y="801" type="line"/>
      <point x="305" y="967" type="line"/>
      <point x="192" y="967" type="line"/>
      <point x="318" y="801" type="line"/>
    </contour>
  </outline>
</glyph>
